<svg xmlns="http://www.w3.org/2000/svg" width="56" height="56" viewBox="0 0 56 56"><path fill="#556278" d="M53.37 28.16A27.03 27.03 0 0 0 37.3 34.9l-6.81-6.81L47.28 11.3c.67-.66.67-1.74 0-2.4a1.7 1.7 0 0 0-2.4 0L28.09 25.69l-6.81-6.81a27.02 27.02 0 0 0 6.75-16.07A1.7 1.7 0 0 0 26.45 1a1.71 1.71 0 0 0-1.81 1.58 23.65 23.65 0 0 1-5.76 13.9L11.3 8.9a1.7 1.7 0 0 0-2.4 0 1.7 1.7 0 0 0 0 2.4l7.58 7.58a23.65 23.65 0 0 1-13.9 5.76c-.93.07-1.64.88-1.58 1.81a1.7 1.7 0 0 0 1.81 1.58 27.08 27.08 0 0 0 16.07-6.75l6.81 6.81L8.9 44.88a1.7 1.7 0 0 0 0 2.4 1.7 1.7 0 0 0 2.4 0l16.79-16.79 6.81 6.81a27 27 0 0 0-6.74 16.07 1.7 1.7 0 1 0 3.38.23 23.62 23.62 0 0 1 5.77-13.9l7.57 7.58a1.7 1.7 0 0 0 2.4 0c.67-.66.67-1.74 0-2.4l-7.57-7.58c3.78-3.28 8.6-5.4 13.89-5.76a1.7 1.7 0 1 0-.23-3.38"/><path d="M28.17 51.91a23.32 23.32 0 0 1-16.82-6.97 23.69 23.69 0 0 1-.01-33.58 23.62 23.62 0 0 1 16.78-6.97c6.56 0 12.49 2.66 16.79 6.97a23.66 23.66 0 0 1 6.97 16.79c0 6.56-2.64 12.48-6.94 16.79a23.2 23.2 0 0 1-16.77 6.97zM1 28.15A27 27 0 0 0 28.17 55.3 26.97 26.97 0 0 0 55.3 28.15 27.2 27.2 0 0 0 28.13 1 27.16 27.16 0 0 0 1 28.15z"/></svg>