<svg xmlns="http://www.w3.org/2000/svg" width="55" height="62" viewBox="0 0 55 62"><path fill="#556278" d="M9.68 28.35a9.6 9.6 0 0 1 3.76-.76h9.66a3.87 3.87 0 0 1 0 7.72h-9.66a1.93 1.93 0 0 0 0 3.86h9.66a7.72 7.72 0 0 0 7.72-7.72h9.65c7.47 0 13.52-6.05 13.52-13.52a1.93 1.93 0 0 0-3.86 0 9.67 9.67 0 0 1-9.66 9.66H29.75a7.7 7.7 0 0 0-6.65-3.87h-9.66c-1.86 0-3.64.38-5.26 1.07a1.93 1.93 0 0 0 1.5 3.56M49.63 47.93c0-1.06-.86-1.93-1.93-1.93H12.93c-.51 0-1.01.21-1.37.57a1.95 1.95 0 0 0 0 2.73c.36.36.86.56 1.37.56H47.7c1.07 0 1.93-.86 1.93-1.93"/><path d="M11.39 26.71c.22-.47.25-.99.07-1.48v-.13h.15V13.58a9.67 9.67 0 0 1 9.6-9.72h19.37v.07c5.79.01 9.65 4.32 9.65 9.65v30.9c0 1.07-.89 1.93-1.96 1.93a1.93 1.93 0 0 0-1.9 1.93v7.73c0 1.06-.92 1.86-1.99 1.86H17.35c-1.06 0-1.88-.8-1.88-1.86v-7.73a1.97 1.97 0 0 0-1.97-1.93 9.67 9.67 0 0 1-9.66-9.65 9.6 9.6 0 0 1 6.45-9.06c.49-.18.88-.53 1.1-.99zm.22 29.36c0 3.2 2.54 5.72 5.74 5.72h27.03a5.77 5.77 0 0 0 5.85-5.72v-6.08c2.56-.73 3.86-2.9 3.86-5.51v-30.9C54.09 6.12 48.3.07 40.58.07V0H21.21A13.53 13.53 0 0 0 7.75 13.58v11.03A13.4 13.4 0 0 0 0 36.76c0 6.83 4.87 12.45 11.61 13.37z"/></svg>