<svg xmlns="http://www.w3.org/2000/svg" width="55" height="51" viewBox="0 0 55 51"><path fill="#556278" d="M27.39 43.79a3.4 3.4 0 1 0 0-6.8 3.4 3.4 0 0 0 0 6.8"/><path d="M25.43 3.4c6.1 0 11.6 2.44 15.6 6.43a20.6 20.6 0 0 1 6.38 13.87H25.43a5.12 5.12 0 0 0 0 10.23l.34-.02.24-.02c.22 0 1.17.05 1.17.06a7.01 7.01 0 0 1 6.76 6.78 6.8 6.8 0 0 1-6.8 6.79c-.53.01-.92.06-1.15.05l-.22-.01-.34-.04c-6.09 0-11.6-2.46-15.6-6.46a22 22 0 0 1-6.46-15.6A22.02 22.02 0 0 1 25.43 3.4zM26 50.97c.52-.01.89-.06 1.13-.05a10.21 10.21 0 0 0 10.21-10.19c0-5.62-5.07-10.18-10.16-10.18 0 .01-.65-.04-1.17-.05-.16 0-.35.03-.53.05-1.7 0-1.72-.79-1.72-1.72 0-.94.74-1.73 1.67-1.73h27.15a1.7 1.7 0 1 0 0-3.4H50.8A25.43 25.43 0 0 0 0 25.46c0 14.05 11.9 25.45 25.47 25.46.18.01.37.05.53.05z"/></svg>