<svg xmlns="http://www.w3.org/2000/svg" width="55" height="55" viewBox="0 0 55 55"><path fill="#556278" d="M31.71 20a15.3 15.3 0 0 0-15.32 15.25v1.67a3.4 3.4 0 1 0 3.4 3.4v-5.07a11.88 11.88 0 0 1 10.18-11.72v4.91h3.39V23.4l18.74.06.02-3.4h-.01L31.71 20M44.18 41h-3.39v3.39H34v3.4h6.79v3.39h3.39v-3.39h6.79v-3.4h-6.79V41"/><path d="M31.84 26.93a8.51 8.51 0 0 0-8.44 8.57v3.11c-.01.08-.04.15-.04.23 0 .09.03.15.04.23v1.08c0 1.84-.71 3.6-1.85 4.91a6.46 6.46 0 0 1-4.46 2.28l.1 1.69-.12-1.69-.5.02a8.31 8.31 0 0 1-5.03-1.85c-2.38-1.79-4.47-4.85-5.91-8.25a27.52 27.52 0 0 1-2.24-10.18A23.71 23.71 0 0 1 27.15 3.4c5.89 0 11.3 2.47 15.5 6.46a26.7 26.7 0 0 1 7.99 15.3l.02.24c0 .43-.18.78-.5 1.09-.32.32-.75.44-1.22.44zm18.71 22.12c0 .94-.8 1.64-1.74 1.64H38.63a5 5 0 0 1-5.05-5.03v-5.15h16.97zM26.8 37.12V35.5a5.16 5.16 0 0 1 3.39-4.86v6.48H26.8zm22.14-6.79c2.82 0 5.1-2.2 5.11-5l-.05-.7v.02a30.16 30.16 0 0 0-9.01-17.26C40.25 2.89 34.01 0 27.15 0A27.1 27.1 0 0 0 0 27.07a31.35 31.35 0 0 0 4.36 15.18 20.67 20.67 0 0 0 5.13 5.97 11.7 11.7 0 0 0 7.08 2.53l.74-.02a9.94 9.94 0 0 0 6.81-3.45 10.88 10.88 0 0 0 2.64-6.77h3.43v5.15a8.4 8.4 0 0 0 8.44 8.43h10.18a5.09 5.09 0 0 0 5.14-5.04V38.87c0-.44-.21-.91-.52-1.23a1.83 1.83 0 0 0-1.23-.52H33.58v-6.79z"/></svg>