<svg xmlns="http://www.w3.org/2000/svg" width="55" height="55" viewBox="0 0 55 55"><path fill="#556278" d="M21.57 33.22l-2.08-7.58 5.41-5.42 7.55 2.06 2.05 7.54-5.42 5.43zm23.9-2.36l-7.74-2.09-2-7.37 5.57-5.57 8.47 2.31.9-3.27-8.5-2.32-2.24-8.23-3.28.9 2.25 8.21L33.33 19l-7.55-2.06-1.98-7.27 6.26-6.27-2.4-2.4-6.26 6.27-8.48-2.32-.89 3.28 8.49 2.31 1.98 7.29-5.61 5.61-7.24-1.95-2.35-8.54-3.27.9 2.25 8.2L0 28.33l2.4 2.4 6.05-6.05 7.84 2.12 1.96 7.15-5.66 5.66-8.34-2.25-.89 3.28 8.46 2.28 2.32 8.43 3.27-.9-2.34-8.52 5.47-5.47L28 38.47l2.09 7.65-6.13 6.12 2.4 2.4 6.25-6.25 8.5 2.29.89-3.27-8.69-2.35-1.98-7.27 5.7-5.7 7.36 1.99 2.35 8.59 3.27-.89-2.28-8.38 6.26-6.26-2.4-2.41z"/><path d="M4.2 21a23.77 23.77 0 1 1 45.91 12.31A23.77 23.77 0 0 1 4.2 21zm49.18 13.18a27.2 27.2 0 0 0-7.03-26.23 27.14 27.14 0 1 0 7.03 26.23z"/></svg>