<svg xmlns="http://www.w3.org/2000/svg" width="20" height="20" viewBox="0 0 20 20"><path fill="#556278" d="M11.35 2.13l-.02-.59a.58.58 0 0 0-.61-.54.58.58 0 0 0-.54.61l.01.52a8.02 8.02 0 0 1-8.06 8.06l-.52-.01a.58.58 0 0 0-.61.54c-.02.31.22.59.54.61l.59.02a9.23 9.23 0 0 0 9.22-9.22M18.81 9.02l-.6-.02A9.22 9.22 0 0 0 9 18.21l.02.6c.02.31.29.55.61.53a.57.57 0 0 0 .54-.61l-.02-.52c0-2.22.9-4.23 2.37-5.69a7.99 7.99 0 0 1 6.21-2.35c.32.02.59-.22.61-.54a.57.57 0 0 0-.53-.61"/><path fill="#0b131e" d="M10.2 2.15a8.02 8.02 0 0 1 8.06 8.06 8.02 8.02 0 0 1-8.04 8.06A8.02 8.02 0 0 1 4.51 4.51a8.02 8.02 0 0 1 5.69-2.36zm9.22 8.06a9.22 9.22 0 1 0-18.44.02 9.22 9.22 0 0 0 18.44-.02z"/></svg>