<svg xmlns="http://www.w3.org/2000/svg" width="55" height="55" viewBox="0 0 55 55"><path fill="#556278" d="M33.94 10.02a22 22 0 0 0-13.41 4.57c-.02-.33-.07-.67-.07-1 .01-3.98 1.6-7.9 4.88-10.58A1.7 1.7 0 0 0 23.19.38a16.87 16.87 0 0 0-6.12 13.21 16.55 16.55 0 0 0 8.42 14.38 13.21 13.21 0 0 1-2.96 8.37 18.63 18.63 0 0 1-9.72-28.4 1.7 1.7 0 1 0-2.79-1.92 22.15 22.15 0 0 0-3.91 12.56 21.92 21.92 0 0 0 13.63 20.34 13.64 13.64 0 0 1-7.78 2.49c-1.55 0-3.12-.27-4.66-.86a1.7 1.7 0 0 0-2.19.98 1.7 1.7 0 0 0 .98 2.19c1.94.74 3.92 1.09 5.87 1.09a17.12 17.12 0 0 0 11.75-4.74c.23-.22.43-.45.65-.68.03-.04.07-.06.09-.1a16.57 16.57 0 0 0 4.43-11.33 13.32 13.32 0 0 1 6.6-1.82c.69 0 1.38.07 2.06.17.29 1.33.48 2.67.48 4.03a18.64 18.64 0 0 1-20.19 18.59A1.7 1.7 0 0 0 16 50.49a1.7 1.7 0 0 0 1.56 1.82 22.07 22.07 0 0 0 23.66-24.87 13.38 13.38 0 0 1 7.61 9.96 1.7 1.7 0 1 0 3.35-.54A16.9 16.9 0 0 0 39.26 23.2l-.1-.02c-1.2-.27-2.43-.43-3.68-.43-2.79 0-5.67.72-8.34 2.26a13.18 13.18 0 0 1-5.78-6.69 18.57 18.57 0 0 1 12.58-4.91c7.46 0 13.88 4.37 16.88 10.68a1.7 1.7 0 1 0 3.07-1.45 22.07 22.07 0 0 0-19.95-12.62"/><path d="M27.19 3.39a23.79 23.79 0 0 1 20.53 35.64A23.76 23.76 0 1 1 27.19 3.39zm-.08 50.9A27.14 27.14 0 1 0 27.2 0a27.14 27.14 0 0 0-.09 54.29z"/></svg>