<svg id="SvgjsSvg1046" xmlns="http://www.w3.org/2000/svg" version="1.1" xmlns:xlink="http://www.w3.org/1999/xlink" xmlns:svgjs="http://svgjs.com/svgjs" width="14" height="15" viewBox="0 0 14 15"><title>add to calendar</title><desc>Created with Avocode.</desc><defs id="SvgjsDefs1047"><clipPath id="SvgjsClipPath1050"><path id="SvgjsPath1049" d="M0 1H14V11.1L10.1 15H0Z " fill="#ffffff"></path></clipPath><clipPath id="SvgjsClipPath1053"><path id="SvgjsPath1052" d="M0 1H14V11.1H10.1V15H0Z " fill="#ffffff"></path></clipPath></defs><path id="SvgjsPath1048" d="M0 1H14V11.1L10.1 15H0Z " fill-opacity="0" fill="#ffffff" stroke-dasharray="0" stroke-linejoin="miter" stroke-linecap="butt" stroke-opacity="1" stroke="#8590a4" stroke-miterlimit="50" stroke-width="2" clip-path="url(&quot;#SvgjsClipPath1050&quot;)" transform="matrix(1,0,0,1,0,0)"></path><path id="SvgjsPath1051" d="M0 1H14V11.1H10.1V15H0Z " fill-opacity="0" fill="#ffffff" stroke-dasharray="0" stroke-linejoin="miter" stroke-linecap="butt" stroke-opacity="1" stroke="#8590a4" stroke-miterlimit="50" stroke-width="2" clip-path="url(&quot;#SvgjsClipPath1053&quot;)" transform="matrix(1,0,0,1,0,0)"></path><path id="SvgjsPath1054" d="M1.27 5.5H12.74 " fill-opacity="0" fill="#ffffff" stroke-dasharray="0" stroke-linejoin="miter" stroke-linecap="square" stroke-opacity="1" stroke="#8590a4" stroke-miterlimit="50" stroke-width="1" transform="matrix(1,0,0,1,0,0)"></path><path id="SvgjsPath1055" d="M10 4V0H11V4Z " fill="#8590a4" fill-opacity="1" transform="matrix(1,0,0,1,0,0)"></path><path id="SvgjsPath1056" d="M3 4V0H4V4Z " fill="#8590a4" fill-opacity="1" transform="matrix(1,0,0,1,0,0)"></path><path id="SvgjsPath1057" d="M4 8.78L6.41 10.719999999999999L9.17 6.999999999999998 " fill-opacity="0" fill="#ffffff" stroke-dasharray="0" stroke-linejoin="miter" stroke-linecap="butt" stroke-opacity="1" stroke="#f41b1a" stroke-miterlimit="50" stroke-width="1" transform="matrix(1,0,0,1,0,0)"></path></svg>