<svg id="SvgjsSvg1058" xmlns="http://www.w3.org/2000/svg" version="1.1" xmlns:xlink="http://www.w3.org/1999/xlink" xmlns:svgjs="http://svgjs.com/svgjs" width="14" height="15" viewBox="0 0 14 15"><title>add to calendar</title><desc>Created with Avocode.</desc><defs id="SvgjsDefs1059"><clipPath id="SvgjsClipPath1062"><path id="SvgjsPath1061" d="M0 1H14V11.1L10.1 15H0Z " fill="#ffffff"></path></clipPath><clipPath id="SvgjsClipPath1065"><path id="SvgjsPath1064" d="M0 1H14V11.1H10.1V15H0Z " fill="#ffffff"></path></clipPath></defs><path id="SvgjsPath1060" d="M0 1H14V11.1L10.1 15H0Z " fill-opacity="0" fill="#ffffff" stroke-dasharray="0" stroke-linejoin="miter" stroke-linecap="butt" stroke-opacity="1" stroke="#0b131e" stroke-miterlimit="50" stroke-width="2" clip-path="url(&quot;#SvgjsClipPath1062&quot;)" transform="matrix(1,0,0,1,0,0)"></path><path id="SvgjsPath1063" d="M0 1H14V11.1H10.1V15H0Z " fill-opacity="0" fill="#ffffff" stroke-dasharray="0" stroke-linejoin="miter" stroke-linecap="butt" stroke-opacity="1" stroke="#0b131e" stroke-miterlimit="50" stroke-width="2" clip-path="url(&quot;#SvgjsClipPath1065&quot;)" transform="matrix(1,0,0,1,0,0)"></path><path id="SvgjsPath1066" d="M1.27 5.5H12.74 " fill-opacity="0" fill="#ffffff" stroke-dasharray="0" stroke-linejoin="miter" stroke-linecap="square" stroke-opacity="1" stroke="#0b131e" stroke-miterlimit="50" stroke-width="1" transform="matrix(1,0,0,1,0,0)"></path><path id="SvgjsPath1067" d="M10 4V0H11V4Z " fill="#0b131e" fill-opacity="1" transform="matrix(1,0,0,1,0,0)"></path><path id="SvgjsPath1068" d="M3 4V0H4V4Z " fill="#0b131e" fill-opacity="1" transform="matrix(1,0,0,1,0,0)"></path><path id="SvgjsPath1069" d="M4 8.78L6.41 10.719999999999999L9.17 6.999999999999998 " fill-opacity="0" fill="#ffffff" stroke-dasharray="0" stroke-linejoin="miter" stroke-linecap="butt" stroke-opacity="1" stroke="#f41b1a" stroke-miterlimit="50" stroke-width="1" transform="matrix(1,0,0,1,0,0)"></path></svg>