<?xml version="1.0" encoding="UTF-8"?>
<svg width="12px" height="15px" viewBox="0 0 12 15" version="1.1" xmlns="http://www.w3.org/2000/svg" xmlns:xlink="http://www.w3.org/1999/xlink">
    <!-- Generator: Sketch 46.1 (44463) - http://www.bohemiancoding.com/sketch -->
    <title>Male Copy</title>
    <desc>Created with Sketch.</desc>
    <defs></defs>
    <g id="Home" stroke="none" stroke-width="1" fill="none" fill-rule="evenodd">
        <g id="W---Home---Prefered-Sport---Sports-Menu" transform="translate(-752.000000, -1845.000000)" stroke="#B2B7BF">
            <g id="Stats" transform="translate(0.000000, 1726.000000)">
                <g id="Stats-Bar-0" transform="translate(109.000000, 0.000000)">
                    <g id="Group-5" transform="translate(1.000000, 118.000000)">
                        <g id="Boys-Junior-Varsity" transform="translate(624.000000, 0.000000)">
                            <g id="Male-junior-white" transform="translate(19.000000, 1.000000)">
                                <polygon id="Triangle-Copy" transform="translate(5.000000, 10.000000) scale(1, -1) translate(-5.000000, -10.000000) " points="5 6 10 14 0 14"></polygon>
                                <polyline id="Triangle-Copy" points="4.28631467 2.8 3 2.8 4.875 0 6.75 2.8 5.39730667 2.8"></polyline>
                                <path d="M5,3.48859461 L5,5.56121412" id="Line-Copy"></path>
                                <path d="M0,10 C0,12.7614237 2.23857625,15 5,15 L5,15 C7.76142375,15 10,12.7614237 10,10" id="Oval" transform="translate(5.000000, 12.500000) rotate(-180.000000) translate(-5.000000, -12.500000) "></path>
                            </g>
                        </g>
                    </g>
                </g>
            </g>
        </g>
    </g>
</svg>