<svg id="SvgjsSvg1126" xmlns="http://www.w3.org/2000/svg" version="1.1" xmlns:xlink="http://www.w3.org/1999/xlink" xmlns:svgjs="http://svgjs.com/svgjs" width="39" height="33" viewBox="0 0 39 33"><title>Rectangle 320</title><desc>Created with Avocode.</desc><defs id="SvgjsDefs1127"><filter id="SvgjsFilter1129" width="200%" height="200%" x="-50%" y="-50%"><feMorphology id="SvgjsFeMorphology1130" operator="dilate" radius="0" result="SvgjsFeMorphology1130Out" in="SourceGraphic"></feMorphology><feOffset id="SvgjsFeOffset1131" dx="0" dy="2" result="SvgjsFeOffset1131Out" in="SvgjsFeMorphology1130Out"></feOffset><feGaussianBlur id="SvgjsFeGaussianBlur1132" stdDeviation="4 " result="SvgjsFeGaussianBlur1132Out" in="SvgjsFeOffset1131Out"></feGaussianBlur><feComposite id="SvgjsFeComposite1133" in="SvgjsFeGaussianBlur1132Out" in2="SourceAlpha" operator="out" result="SvgjsFeComposite1133Out"></feComposite></filter><filter id="SvgjsFilter1136" width="200%" height="200%" x="-50%" y="-50%"><feMorphology id="SvgjsFeMorphology1137" operator="dilate" radius="0" result="SvgjsFeMorphology1137Out" in="SourceGraphic"></feMorphology><feOffset id="SvgjsFeOffset1138" dx="0" dy="2" result="SvgjsFeOffset1138Out" in="SvgjsFeMorphology1137Out"></feOffset><feGaussianBlur id="SvgjsFeGaussianBlur1139" stdDeviation="4 " result="SvgjsFeGaussianBlur1139Out" in="SvgjsFeOffset1138Out"></feGaussianBlur><feComposite id="SvgjsFeComposite1140" in="SvgjsFeGaussianBlur1139Out" in2="SourceAlpha" operator="out" result="SvgjsFeComposite1140Out"></feComposite></filter><filter id="SvgjsFilter1143" width="200%" height="200%" x="-50%" y="-50%"><feMorphology id="SvgjsFeMorphology1144" operator="dilate" radius="0" result="SvgjsFeMorphology1144Out" in="SourceGraphic"></feMorphology><feOffset id="SvgjsFeOffset1145" dx="0" dy="2" result="SvgjsFeOffset1145Out" in="SvgjsFeMorphology1144Out"></feOffset><feGaussianBlur id="SvgjsFeGaussianBlur1146" stdDeviation="4 " result="SvgjsFeGaussianBlur1146Out" in="SvgjsFeOffset1145Out"></feGaussianBlur><feComposite id="SvgjsFeComposite1147" in="SvgjsFeGaussianBlur1146Out" in2="SourceAlpha" operator="out" result="SvgjsFeComposite1147Out"></feComposite></filter></defs><path id="SvgjsPath1128" d="M0 2V0H23V2Z " fill="#000000" fill-opacity="0.5" filter="url(#SvgjsFilter1129)" transform="matrix(1,0,0,1,8,6)"></path><path id="SvgjsPath1134" d="M0 2V0H23V2Z " fill="#ffffff" fill-opacity="1" transform="matrix(1,0,0,1,8,6)"></path><path id="SvgjsPath1135" d="M0 10V8H23V10Z " fill="#000000" fill-opacity="0.5" filter="url(#SvgjsFilter1136)" transform="matrix(1,0,0,1,8,6)"></path><path id="SvgjsPath1141" d="M0 10V8H23V10Z " fill="#ffffff" fill-opacity="1" transform="matrix(1,0,0,1,8,6)"></path><path id="SvgjsPath1142" d="M0 17V15H23V17Z " fill="#000000" fill-opacity="0.5" filter="url(#SvgjsFilter1143)" transform="matrix(1,0,0,1,8,6)"></path><path id="SvgjsPath1148" d="M0 17V15H23V17Z " fill="#ffffff" fill-opacity="1" transform="matrix(1,0,0,1,8,6)"></path></svg>