<svg xmlns="http://www.w3.org/2000/svg" xmlns:xlink="http://www.w3.org/1999/xlink" width="10" height="20" viewBox="0 0 10 20"><defs><path id="a" d="M103.7 20.23a3.97 3.97 0 0 1-6.8-2.82V5.61a2.88 2.88 0 0 1 4.94-2.04c.56.53.85 1.26.85 2.03V16.64a1.6 1.6 0 0 1-2.75 1.12c-.3-.3-.46-.7-.46-1.13v-5.66c0-.18.14-.32.32-.32.17 0 .31.14.32.31v5.67c0 .25.1.5.27.68.18.17.42.27.68.28.55 0 .98-.44.98-.96V5.6a2.25 2.25 0 0 0-2.25-2.25 2.26 2.26 0 0 0-2.25 2.25v11.81c0 1.85 1.5 3.35 3.34 3.35 1.84 0 3.34-1.5 3.34-3.35V5.61a.3.3 0 0 1 .32-.32.3.3 0 0 1 .32.31v11.81c0 1.1-.44 2.1-1.17 2.82z"/></defs><g transform="translate(-96 -2)"><use fill="#3f4c5e" xlink:href="#a"/><use fill="#fff" fill-opacity="0" stroke="#3f4c5e" stroke-miterlimit="50" xlink:href="#a"/></g></svg>