<?xml version="1.0" encoding="UTF-8"?>
<svg width="131px" height="112px" viewBox="0 0 131 112" version="1.1" xmlns="http://www.w3.org/2000/svg" xmlns:xlink="http://www.w3.org/1999/xlink">
    <!-- Generator: Sketch 46.1 (44463) - http://www.bohemiancoding.com/sketch -->
    <title>Icon Team</title>
    <desc>Created with Sketch.</desc>
    <defs>
        <path d="M11,23.5 L17,30.5 L23,23.5 C30.3333333,24.8333333 34,26 34,27 C34,28.5 32.5,55.5 32,57 C31.6666667,58 29.6666667,59 26,60 L26,93 L26,93 C26,95.7614237 23.7614237,98 21,98 L12.1333099,98 L12.1333099,98 C9.3718862,98 7.13330995,95.7614237 7.13330995,93 C7.13330995,92.9561498 7.1338868,92.9123016 7.13504035,92.8684666 L8,60 C3.33333333,59.3333333 1,58.3333333 1,57 C1,55 4.19174408e-17,28.5 0,27 C0,26 3.66666667,24.8333333 11,23.5 Z" id="path-1"></path>
        <path d="M11,23.5 L17,30.5 L23,23.5 C30.3333333,24.8333333 34,26 34,27 C34,28.5 32.5,55.5 32,57 C31.6666667,58 29.6666667,59 26,60 L26,93 L26,93 C26,95.7614237 23.7614237,98 21,98 L12.1333099,98 L12.1333099,98 C9.3718862,98 7.13330995,95.7614237 7.13330995,93 C7.13330995,92.9561498 7.1338868,92.9123016 7.13504035,92.8684666 L8,60 C3.33333333,59.3333333 1,58.3333333 1,57 C1,55 4.19174408e-17,28.5 0,27 C0,26 3.66666667,24.8333333 11,23.5 Z" id="path-2"></path>
        <path d="M11,23.5 L17,30.5 L23,23.5 C30.3333333,24.8333333 34,26 34,27 C34,28.5 32.5,55.5 32,57 C31.6666667,58 29.6666667,59 26,60 L26,93 L26,93 C26,95.7614237 23.7614237,98 21,98 L12.1333099,98 L12.1333099,98 C9.3718862,98 7.13330995,95.7614237 7.13330995,93 C7.13330995,92.9561498 7.1338868,92.9123016 7.13504035,92.8684666 L8,60 C3.33333333,59.3333333 1,58.3333333 1,57 C1,55 4.19174408e-17,28.5 0,27 C0,26 3.66666667,24.8333333 11,23.5 Z" id="path-3"></path>
        <path d="M11,23.5 L17,30.5 L23,23.5 C30.3333333,24.8333333 34,26 34,27 C34,28.5 32.5,55.5 32,57 C31.6666667,58 29.6666667,59 26,60 L26,93 L26,93 C26,95.7614237 23.7614237,98 21,98 L12.1333099,98 L12.1333099,98 C9.3718862,98 7.13330995,95.7614237 7.13330995,93 C7.13330995,92.9561498 7.1338868,92.9123016 7.13504035,92.8684666 L8,60 C3.33333333,59.3333333 1,58.3333333 1,57 C1,55 4.19174408e-17,28.5 0,27 C0,26 3.66666667,24.8333333 11,23.5 Z" id="path-4"></path>
        <path d="M11,23.5 L17,30.5 L23,23.5 C30.3333333,24.8333333 34,26 34,27 C34,28.5 32.5,55.5 32,57 C31.6666667,58 29.6666667,59 26,60 L26,93 L26,93 C26,95.7614237 23.7614237,98 21,98 L12.1333099,98 L12.1333099,98 C9.3718862,98 7.13330995,95.7614237 7.13330995,93 C7.13330995,92.9561498 7.1338868,92.9123016 7.13504035,92.8684666 L8,60 C3.33333333,59.3333333 1,58.3333333 1,57 C1,55 4.19174408e-17,28.5 0,27 C0,26 3.66666667,24.8333333 11,23.5 Z" id="path-5"></path>
    </defs>
    <g id="Page-1" stroke="none" stroke-width="1" fill="none" fill-rule="evenodd">
        <g id="icons" transform="translate(-243.000000, -3758.000000)">
            <g id="Icon-Team" transform="translate(245.000000, 3758.000000)">
                <g id="Three" transform="translate(17.000000, 49.000000) scale(-1, 1) translate(-17.000000, -49.000000) ">
                    <g id="Combined-Shape-Copy-5">
                        <use fill="#FFFFFF" fill-rule="evenodd" xlink:href="#path-1"></use>
                        <path stroke="#FFFFFF" stroke-width="2" d="M17,28.9634093 L22.6142365,22.4134667 L23.1788854,22.5161301 C31.4796071,24.0253522 35,25.1454772 35,27 C35,29.913195 33.4006067,55.9604576 32.9486833,57.3162278 C32.4917738,58.6869564 30.5490439,59.7302128 27,60.7578245 L27,93 C27,96.3137085 24.3137085,99 21,99 L12.1333099,99 C8.81960145,99 6.13330995,96.3137085 6.13330995,93 C6.13365606,92.9210708 6.13365606,92.9210708 6.13538643,92.8421599 L6.97712153,60.8562263 C2.35494014,60.1110012 0,58.9863061 0,57 C0,56.1823852 -0.14654322,51.8172348 -0.49179881,42.0618972 L-0.499374071,41.8478761 C-0.915332356,30.0970545 -1,27.6346372 -1,27 C-1,25.1454772 2.52039292,24.0253522 10.8211146,22.5161301 L11.3857635,22.4134667 L17,28.9634093 Z"></path>
                    </g>
                    <path d="M11,23.5 L17,30.5 L23,23.5 C30.3333333,24.8333333 34,26 34,27 C34,28.5 32.5,55.5 32,57 C31.6666667,58 29.6666667,59 26,60 L26,93 C26,95.7614237 23.7614237,98 21,98 L12.1333099,98 C9.3718862,98 7.13330995,95.7614237 7.13330995,93 C7.13330995,92.9561498 7.1338868,92.9123016 7.13504035,92.8684666 L8,60 C3.33333333,59.3333333 1,58.3333333 1,57 C1,55 4.19174408e-17,28.5 0,27 C0,26 3.66666667,24.8333333 11,23.5 Z M10,27 C5.33333333,28.2254902 3,29.25 3,30.0735294 C3,31.3088235 4.5,53.3529412 4.5,55 C4.5,56.0980392 6.66666667,56.7647059 11,57 L11,92 C11,93.1045695 11.8954305,94 13,94 L21,94 C22.1045695,94 23,93.1045695 23,92 L23,57 C26.7254902,56.4901961 28.7254902,55.8235294 29,55 C29.4117647,53.7647059 31,31.3088235 31,30.0735294 C31,29.25 28.6666667,28.2254902 24,27 L17,36 L10,27 Z" id="Combined-Shape" fill="#3F4C5E"></path>
                    <path d="M16,0 C23.5,0 25,5 25,6.5 C25,8 25,13 23,17.5 C21,22 19,23.5 17,23.5 C15,23.5 12,22 10,17.5 C8,13 8,8 8,6.5 C8,5 8.5,9.02056208e-16 16,0 Z M16.1764706,3 C11.3235294,3 11,6.61702128 11,7.70212766 C11,8.78723404 11,12.4042553 12.2941176,15.6595745 C13.5882353,18.9148936 15.5294118,20 16.8235294,20 C18.1176471,20 19.4117647,18.9148936 20.7058824,15.6595745 C22,12.4042553 22,8.78723404 22,7.70212766 C22,6.61702128 21.0294118,3 16.1764706,3 Z" id="Combined-Shape" fill="#3F4C5E"></path>
                </g>
                <g id="Three-Copy" transform="translate(110.000000, 49.000000) scale(-1, 1) translate(-110.000000, -49.000000) translate(93.000000, 0.000000)">
                    <g id="Combined-Shape-Copy-5">
                        <use fill="#FFFFFF" fill-rule="evenodd" xlink:href="#path-2"></use>
                        <path stroke="#FFFFFF" stroke-width="2" d="M17,28.9634093 L22.6142365,22.4134667 L23.1788854,22.5161301 C31.4796071,24.0253522 35,25.1454772 35,27 C35,29.913195 33.4006067,55.9604576 32.9486833,57.3162278 C32.4917738,58.6869564 30.5490439,59.7302128 27,60.7578245 L27,93 C27,96.3137085 24.3137085,99 21,99 L12.1333099,99 C8.81960145,99 6.13330995,96.3137085 6.13330995,93 C6.13365606,92.9210708 6.13365606,92.9210708 6.13538643,92.8421599 L6.97712153,60.8562263 C2.35494014,60.1110012 0,58.9863061 0,57 C0,56.1823852 -0.14654322,51.8172348 -0.49179881,42.0618972 L-0.499374071,41.8478761 C-0.915332356,30.0970545 -1,27.6346372 -1,27 C-1,25.1454772 2.52039292,24.0253522 10.8211146,22.5161301 L11.3857635,22.4134667 L17,28.9634093 Z"></path>
                    </g>
                    <path d="M11,23.5 L17,30.5 L23,23.5 C30.3333333,24.8333333 34,26 34,27 C34,28.5 32.5,55.5 32,57 C31.6666667,58 29.6666667,59 26,60 L26,93 C26,95.7614237 23.7614237,98 21,98 L12.1333099,98 C9.3718862,98 7.13330995,95.7614237 7.13330995,93 C7.13330995,92.9561498 7.1338868,92.9123016 7.13504035,92.8684666 L8,60 C3.33333333,59.3333333 1,58.3333333 1,57 C1,55 4.19174408e-17,28.5 0,27 C0,26 3.66666667,24.8333333 11,23.5 Z M10,27 C5.33333333,28.2254902 3,29.25 3,30.0735294 C3,31.3088235 4.5,53.3529412 4.5,55 C4.5,56.0980392 6.66666667,56.7647059 11,57 L11,92 C11,93.1045695 11.8954305,94 13,94 L21,94 C22.1045695,94 23,93.1045695 23,92 L23,57 C26.7254902,56.4901961 28.7254902,55.8235294 29,55 C29.4117647,53.7647059 31,31.3088235 31,30.0735294 C31,29.25 28.6666667,28.2254902 24,27 L17,36 L10,27 Z" id="Combined-Shape" fill="#3F4C5E"></path>
                    <path d="M16,0 C23.5,0 25,5 25,6.5 C25,8 25,13 23,17.5 C21,22 19,23.5 17,23.5 C15,23.5 12,22 10,17.5 C8,13 8,8 8,6.5 C8,5 8.5,9.02056208e-16 16,0 Z M16.1764706,3 C11.3235294,3 11,6.61702128 11,7.70212766 C11,8.78723404 11,12.4042553 12.2941176,15.6595745 C13.5882353,18.9148936 15.5294118,20 16.8235294,20 C18.1176471,20 19.4117647,18.9148936 20.7058824,15.6595745 C22,12.4042553 22,8.78723404 22,7.70212766 C22,6.61702128 21.0294118,3 16.1764706,3 Z" id="Combined-Shape" fill="#3F4C5E"></path>
                </g>
                <g id="Two" transform="translate(70.000000, 5.000000)">
                    <g id="Combined-Shape-Copy-5">
                        <use fill="#FFFFFF" fill-rule="evenodd" xlink:href="#path-3"></use>
                        <path stroke="#FFFFFF" stroke-width="2" d="M17,28.9634093 L22.6142365,22.4134667 L23.1788854,22.5161301 C31.4796071,24.0253522 35,25.1454772 35,27 C35,29.913195 33.4006067,55.9604576 32.9486833,57.3162278 C32.4917738,58.6869564 30.5490439,59.7302128 27,60.7578245 L27,93 C27,96.3137085 24.3137085,99 21,99 L12.1333099,99 C8.81960145,99 6.13330995,96.3137085 6.13330995,93 C6.13365606,92.9210708 6.13365606,92.9210708 6.13538643,92.8421599 L6.97712153,60.8562263 C2.35494014,60.1110012 0,58.9863061 0,57 C0,56.1823852 -0.14654322,51.8172348 -0.49179881,42.0618972 L-0.499374071,41.8478761 C-0.915332356,30.0970545 -1,27.6346372 -1,27 C-1,25.1454772 2.52039292,24.0253522 10.8211146,22.5161301 L11.3857635,22.4134667 L17,28.9634093 Z"></path>
                    </g>
                    <path d="M11,23.5 L17,30.5 L23,23.5 C30.3333333,24.8333333 34,26 34,27 C34,28.5 32.5,55.5 32,57 C31.6666667,58 29.6666667,59 26,60 L26,93 C26,95.7614237 23.7614237,98 21,98 L12.1333099,98 C9.3718862,98 7.13330995,95.7614237 7.13330995,93 C7.13330995,92.9561498 7.1338868,92.9123016 7.13504035,92.8684666 L8,60 C3.33333333,59.3333333 1,58.3333333 1,57 C1,55 4.19174408e-17,28.5 0,27 C0,26 3.66666667,24.8333333 11,23.5 Z M10,27 C5.33333333,28.2254902 3,29.25 3,30.0735294 C3,31.3088235 4.5,53.3529412 4.5,55 C4.5,56.0980392 6.66666667,56.7647059 11,57 L11,92 C11,93.1045695 11.8954305,94 13,94 L21,94 C22.1045695,94 23,93.1045695 23,92 L23,57 C26.7254902,56.4901961 28.7254902,55.8235294 29,55 C29.4117647,53.7647059 31,31.3088235 31,30.0735294 C31,29.25 28.6666667,28.2254902 24,27 L17,36 L10,27 Z" id="Combined-Shape" fill="#3F4C5E"></path>
                    <path d="M16,0 C23.5,0 25,5 25,6.5 C25,8 25,13 23,17.5 C21,22 19,23.5 17,23.5 C15,23.5 12,22 10,17.5 C8,13 8,8 8,6.5 C8,5 8.5,9.02056208e-16 16,0 Z M16.1764706,3 C11.3235294,3 11,6.61702128 11,7.70212766 C11,8.78723404 11,12.4042553 12.2941176,15.6595745 C13.5882353,18.9148936 15.5294118,20 16.8235294,20 C18.1176471,20 19.4117647,18.9148936 20.7058824,15.6595745 C22,12.4042553 22,8.78723404 22,7.70212766 C22,6.61702128 21.0294118,3 16.1764706,3 Z" id="Combined-Shape" fill="#3F4C5E"></path>
                </g>
                <g id="Two-Copy" transform="translate(40.000000, 54.000000) scale(-1, 1) translate(-40.000000, -54.000000) translate(23.000000, 5.000000)">
                    <g id="Combined-Shape-Copy-5">
                        <use fill="#FFFFFF" fill-rule="evenodd" xlink:href="#path-4"></use>
                        <path stroke="#FFFFFF" stroke-width="2" d="M17,28.9634093 L22.6142365,22.4134667 L23.1788854,22.5161301 C31.4796071,24.0253522 35,25.1454772 35,27 C35,29.913195 33.4006067,55.9604576 32.9486833,57.3162278 C32.4917738,58.6869564 30.5490439,59.7302128 27,60.7578245 L27,93 C27,96.3137085 24.3137085,99 21,99 L12.1333099,99 C8.81960145,99 6.13330995,96.3137085 6.13330995,93 C6.13365606,92.9210708 6.13365606,92.9210708 6.13538643,92.8421599 L6.97712153,60.8562263 C2.35494014,60.1110012 0,58.9863061 0,57 C0,56.1823852 -0.14654322,51.8172348 -0.49179881,42.0618972 L-0.499374071,41.8478761 C-0.915332356,30.0970545 -1,27.6346372 -1,27 C-1,25.1454772 2.52039292,24.0253522 10.8211146,22.5161301 L11.3857635,22.4134667 L17,28.9634093 Z"></path>
                    </g>
                    <path d="M11,23.5 L17,30.5 L23,23.5 C30.3333333,24.8333333 34,26 34,27 C34,28.5 32.5,55.5 32,57 C31.6666667,58 29.6666667,59 26,60 L26,93 C26,95.7614237 23.7614237,98 21,98 L12.1333099,98 C9.3718862,98 7.13330995,95.7614237 7.13330995,93 C7.13330995,92.9561498 7.1338868,92.9123016 7.13504035,92.8684666 L8,60 C3.33333333,59.3333333 1,58.3333333 1,57 C1,55 4.19174408e-17,28.5 0,27 C0,26 3.66666667,24.8333333 11,23.5 Z M10,27 C5.33333333,28.2254902 3,29.25 3,30.0735294 C3,31.3088235 4.5,53.3529412 4.5,55 C4.5,56.0980392 6.66666667,56.7647059 11,57 L11,92 C11,93.1045695 11.8954305,94 13,94 L21,94 C22.1045695,94 23,93.1045695 23,92 L23,57 C26.7254902,56.4901961 28.7254902,55.8235294 29,55 C29.4117647,53.7647059 31,31.3088235 31,30.0735294 C31,29.25 28.6666667,28.2254902 24,27 L17,36 L10,27 Z" id="Combined-Shape" fill="#3F4C5E"></path>
                    <path d="M16,0 C23.5,0 25,5 25,6.5 C25,8 25,13 23,17.5 C21,22 19,23.5 17,23.5 C15,23.5 12,22 10,17.5 C8,13 8,8 8,6.5 C8,5 8.5,9.02056208e-16 16,0 Z M16.1764706,3 C11.3235294,3 11,6.61702128 11,7.70212766 C11,8.78723404 11,12.4042553 12.2941176,15.6595745 C13.5882353,18.9148936 15.5294118,20 16.8235294,20 C18.1176471,20 19.4117647,18.9148936 20.7058824,15.6595745 C22,12.4042553 22,8.78723404 22,7.70212766 C22,6.61702128 21.0294118,3 16.1764706,3 Z" id="Combined-Shape" fill="#3F4C5E"></path>
                </g>
                <g id="One" transform="translate(47.000000, 12.000000)">
                    <g id="Combined-Shape-Copy-5">
                        <use fill="#FFFFFF" fill-rule="evenodd" xlink:href="#path-5"></use>
                        <path stroke="#FFFFFF" stroke-width="2" d="M17,28.9634093 L22.6142365,22.4134667 L23.1788854,22.5161301 C31.4796071,24.0253522 35,25.1454772 35,27 C35,29.913195 33.4006067,55.9604576 32.9486833,57.3162278 C32.4917738,58.6869564 30.5490439,59.7302128 27,60.7578245 L27,93 C27,96.3137085 24.3137085,99 21,99 L12.1333099,99 C8.81960145,99 6.13330995,96.3137085 6.13330995,93 C6.13365606,92.9210708 6.13365606,92.9210708 6.13538643,92.8421599 L6.97712153,60.8562263 C2.35494014,60.1110012 0,58.9863061 0,57 C0,56.1823852 -0.14654322,51.8172348 -0.49179881,42.0618972 L-0.499374071,41.8478761 C-0.915332356,30.0970545 -1,27.6346372 -1,27 C-1,25.1454772 2.52039292,24.0253522 10.8211146,22.5161301 L11.3857635,22.4134667 L17,28.9634093 Z"></path>
                    </g>
                    <path d="M11,23.5 L17,30.5 L23,23.5 C30.3333333,24.8333333 34,26 34,27 C34,28.5 32.5,55.5 32,57 C31.6666667,58 29.6666667,59 26,60 L26,93 C26,95.7614237 23.7614237,98 21,98 L12.1333099,98 C9.3718862,98 7.13330995,95.7614237 7.13330995,93 C7.13330995,92.9561498 7.1338868,92.9123016 7.13504035,92.8684666 L8,60 C3.33333333,59.3333333 1,58.3333333 1,57 C1,55 4.19174408e-17,28.5 0,27 C0,26 3.66666667,24.8333333 11,23.5 Z M10,27 C5.33333333,28.2254902 3,29.25 3,30.0735294 C3,31.3088235 4.5,53.3529412 4.5,55 C4.5,56.0980392 6.66666667,56.7647059 11,57 L11,92 C11,93.1045695 11.8954305,94 13,94 L21,94 C22.1045695,94 23,93.1045695 23,92 L23,57 C26.7254902,56.4901961 28.7254902,55.8235294 29,55 C29.4117647,53.7647059 31,31.3088235 31,30.0735294 C31,29.25 28.6666667,28.2254902 24,27 L17,36 L10,27 Z" id="Combined-Shape" fill="#0379D3"></path>
                    <path d="M16,0 C23.5,0 25,5 25,6.5 C25,8 25,13 23,17.5 C21,22 19,23.5 17,23.5 C15,23.5 12,22 10,17.5 C8,13 8,8 8,6.5 C8,5 8.5,9.02056208e-16 16,0 Z M16.1764706,3 C11.3235294,3 11,6.61702128 11,7.70212766 C11,8.78723404 11,12.4042553 12.2941176,15.6595745 C13.5882353,18.9148936 15.5294118,20 16.8235294,20 C18.1176471,20 19.4117647,18.9148936 20.7058824,15.6595745 C22,12.4042553 22,8.78723404 22,7.70212766 C22,6.61702128 21.0294118,3 16.1764706,3 Z" id="Combined-Shape" fill="#0379D3"></path>
                </g>
            </g>
        </g>
    </g>
</svg>