<svg width="24.000000000000004" height="5" xmlns="http://www.w3.org/2000/svg">
 <title>Rectangle 2 Copy</title>
 <desc>Created with Avocode.</desc>

 <g>
  <title>background</title>
  <rect fill="none" id="canvas_background" height="402" width="582" y="-1" x="-1"/>
 </g>
 <g>
  <title>Layer 1</title>
  <path fill="#f41b1a" d="m9.718379,2.5c0,-1.38071 1.11929,-2.5 2.5,-2.5l0,0c1.38071,0 2.5,1.11929 2.5,2.5l0,0c0,1.38071 -1.11929,2.5 -2.5,2.5l0,0c-1.38071,0 -2.5,-1.11929 -2.5,-2.5z" id="SvgjsPath1014"/>
  <path fill="#f41b1a" d="m19,2.5c0,-1.38071 1.11929,-2.5 2.5,-2.5l0,0c1.38071,0 2.5,1.11929 2.5,2.5l0,0c0,1.38071 -1.11929,2.5 -2.5,2.5l0,0c-1.38071,0 -2.5,-1.11929 -2.5,-2.5z" id="SvgjsPath1015"/>
  <path fill="#f41b1a" d="m10.077519,9.709301c0,-1.38071 1.11929,-2.5 2.5,-2.5l0,0c1.38071,0 2.5,1.11929 2.5,2.5l0,0c0,1.38071 -1.11929,2.5 -2.5,2.5l0,0c-1.38071,0 -2.5,-1.11929 -2.5,-2.5z" id="svg_1"/>
  <path fill="#f41b1a" d="m0,2.5c0,-1.38071 1.11929,-2.5 2.5,-2.5l0,0c1.38071,0 2.5,1.11929 2.5,2.5l0,0c0,1.38071 -1.11929,2.5 -2.5,2.5l0,0c-1.38071,0 -2.5,-1.11929 -2.5,-2.5z" id="svg_2"/>
 </g>
</svg>