<svg xmlns="http://www.w3.org/2000/svg" xmlns:xlink="http://www.w3.org/1999/xlink" width="24" height="24" viewBox="0 0 24 24"><defs><path id="sjuva" d="M172.67 1373h-21.35c-.73 0-1.32.6-1.32 1.32v21.35c0 .74.6 1.33 1.32 1.33h11.5v-9.3h-3.13v-3.62h3.13v-2.67c0-3.1 1.9-4.79 4.66-4.79 1.32 0 2.46.1 2.8.15v3.24h-1.93c-1.5 0-1.8.71-1.8 1.76v2.31h3.6l-.47 3.62h-3.12v9.3h6.11c.74 0 1.33-.6 1.33-1.33v-21.35c0-.73-.6-1.32-1.33-1.32z"/></defs><g><g transform="translate(-150 -1373)"><use fill="#33589d" xlink:href="#sjuva"/></g></g></svg>