<svg id="SvgjsSvg1000" xmlns="http://www.w3.org/2000/svg" version="1.1" xmlns:xlink="http://www.w3.org/1999/xlink" xmlns:svgjs="http://svgjs.com/svgjs" width="15" height="15" viewBox="0 0 15 15"><title>g+</title><desc>Created with Avocode.</desc><defs id="SvgjsDefs1001"></defs><path id="SvgjsPath1007" d="M59.41 43.07C59.54 43.08 59.709999999999994 43.09 59.919999999999995 43.12C60.129999999999995 43.14 60.309999999999995 43.18 60.459999999999994 43.22C60.599999999999994 43.269999999999996 60.74999999999999 43.33 60.89999999999999 43.4C61.04999999999999 43.47 61.15999999999999 43.559999999999995 61.239999999999995 43.68C61.309999999999995 43.79 61.349999999999994 43.92 61.349999999999994 44.06C61.349999999999994 44.46 61.019999999999996 44.660000000000004 60.349999999999994 44.660000000000004H60.3C59 44.660000000000004 58.349999999999994 44.480000000000004 58.349999999999994 44.14C58.349999999999994 43.82 58.48 43.46 58.739999999999995 43.04H58.949999999999996C59.129999999999995 43.04 59.29 43.05 59.41 43.07ZM59.19 36.25C59.19 36.05 59.19 35.88 59.19 35.74C59.199999999999996 35.6 59.21 35.440000000000005 59.22 35.25C59.24 35.06 59.26 34.9 59.29 34.77C59.32 34.650000000000006 59.36 34.52 59.41 34.400000000000006C59.459999999999994 34.28000000000001 59.529999999999994 34.190000000000005 59.62 34.14000000000001C59.699999999999996 34.080000000000005 59.8 34.050000000000004 59.91 34.050000000000004C60.36 34.050000000000004 60.589999999999996 34.75000000000001 60.589999999999996 36.14C60.589999999999996 37.5 60.349999999999994 38.18 59.87 38.18C59.419999999999995 38.18 59.19 37.54 59.19 36.25ZM58.89 40.28L59.05 40.31C59.16 40.330000000000005 59.29 40.35 59.449999999999996 40.38C59.599999999999994 40.400000000000006 59.739999999999995 40.410000000000004 59.839999999999996 40.410000000000004C60.38999999999999 40.410000000000004 60.88999999999999 40.31 61.349999999999994 40.09C61.8 39.88 62.169999999999995 39.6 62.459999999999994 39.230000000000004C62.74999999999999 38.870000000000005 62.98 38.45 63.129999999999995 37.99C63.28999999999999 37.52 63.37 37.02 63.37 36.5C63.37 35.61 63.239999999999995 34.94 63 34.5C63.25 34.25 63.67 34.12 64.25 34.12L64.5 31.999999999999996H64.13C63.12 31.999999999999996 62.4 32.239999999999995 61.98 32.73C61.519999999999996 32.239999999999995 60.839999999999996 31.999999999999996 59.94 31.999999999999996C59.33 31.999999999999996 58.8 32.12 58.339999999999996 32.36C57.879999999999995 32.6 57.519999999999996 32.93 57.24999999999999 33.339999999999996C56.97999999999999 33.74999999999999 56.779999999999994 34.199999999999996 56.64999999999999 34.69C56.50999999999999 35.19 56.44999999999999 35.72 56.44999999999999 36.28C56.44999999999999 37.38 56.749999999999986 38.480000000000004 57.33999999999999 39.57C56.569999999999986 40.56 56.17999999999999 41.22 56.17999999999999 41.55C56.17999999999999 41.709999999999994 56.28999999999999 41.87 56.50999999999999 42.029999999999994C56.72999999999999 42.199999999999996 56.959999999999994 42.339999999999996 57.19999999999999 42.46999999999999C56.84999999999999 42.72999999999999 56.55999999999999 43.059999999999995 56.32999999999999 43.459999999999994C56.10999999999999 43.85999999999999 55.99999999999999 44.25999999999999 55.99999999999999 44.669999999999995C55.99999999999999 46.03999999999999 57.40999999999999 46.73 60.22999999999999 46.73C60.66999999999999 46.73 61.07999999999999 46.709999999999994 61.43999999999999 46.66C61.79999999999999 46.61 62.15999999999999 46.51 62.50999999999999 46.379999999999995C62.85999999999999 46.239999999999995 63.15999999999999 46.06999999999999 63.39999999999999 45.849999999999994C63.62999999999999 45.629999999999995 63.81999999999999 45.32999999999999 63.96999999999999 44.96999999999999C64.10999999999999 44.599999999999994 64.17999999999999 44.17999999999999 64.17999999999999 43.68999999999999C64.17999999999999 43.33999999999999 64.08 43.029999999999994 63.879999999999995 42.76999999999999C63.67999999999999 42.499999999999986 63.419999999999995 42.29999999999999 63.089999999999996 42.14999999999999C62.769999999999996 41.99999999999999 62.41 41.87999999999999 62.019999999999996 41.779999999999994C61.629999999999995 41.67999999999999 61.239999999999995 41.589999999999996 60.849999999999994 41.529999999999994C60.459999999999994 41.459999999999994 60.099999999999994 41.39999999999999 59.779999999999994 41.339999999999996C59.459999999999994 41.279999999999994 59.18999999999999 41.199999999999996 58.989999999999995 41.11C58.78999999999999 41.01 58.69 40.89 58.69 40.75C58.69 40.7 58.76 40.54 58.89 40.28ZM64.9 38.61V36.65H66.62V34.94H68.57000000000001V36.65H70.28V38.61H68.57000000000001V40.31H66.62V38.61Z " fill="#556278" fill-opacity="1" transform="matrix(1,0,0,1,-56,-32)"></path></svg>