<svg id="SvgjsSvg1020" xmlns="http://www.w3.org/2000/svg" version="1.1" xmlns:xlink="http://www.w3.org/1999/xlink" xmlns:svgjs="http://svgjs.com/svgjs" width="16" height="16" viewBox="0 0 16 16"><title>Icon Grid Copy</title><desc>Created with Avocode.</desc><defs id="SvgjsDefs1021"></defs><path id="SvgjsPath1022" d="M0 4V0H4V4Z " fill="#3f4c5e" fill-opacity="1" transform="matrix(1,0,0,1,0,0)"></path><path id="SvgjsPath1023" d="M0 10V6H4V10Z " fill="#3f4c5e" fill-opacity="1" transform="matrix(1,0,0,1,0,0)"></path><path id="SvgjsPath1024" d="M6 4V0H10V4Z " fill="#3f4c5e" fill-opacity="1" transform="matrix(1,0,0,1,0,0)"></path><path id="SvgjsPath1025" d="M6 10V6H10V10Z " fill="#3f4c5e" fill-opacity="1" transform="matrix(1,0,0,1,0,0)"></path><path id="SvgjsPath1026" d="M12 4V0H16V4Z " fill="#3f4c5e" fill-opacity="1" transform="matrix(1,0,0,1,0,0)"></path><path id="SvgjsPath1027" d="M12 10V6H16V10Z " fill="#3f4c5e" fill-opacity="1" transform="matrix(1,0,0,1,0,0)"></path><path id="SvgjsPath1028" d="M0 16V12H4V16Z " fill="#3f4c5e" fill-opacity="1" transform="matrix(1,0,0,1,0,0)"></path><path id="SvgjsPath1029" d="M6 16V12H10V16Z " fill="#3f4c5e" fill-opacity="1" transform="matrix(1,0,0,1,0,0)"></path><path id="SvgjsPath1030" d="M12 16V12H16V16Z " fill="#3f4c5e" fill-opacity="1" transform="matrix(1,0,0,1,0,0)"></path></svg>