<svg xmlns="http://www.w3.org/2000/svg" xmlns:xlink="http://www.w3.org/1999/xlink" width="24" height="24" viewBox="0 0 24 24"><defs><path id="t1lga" d="M743.62 745.05c1.62 0 2.95 1.2 2.95 2.95v17.1a2.88 2.88 0 0 1-2.95 2.95h-17.1a2.88 2.88 0 0 1-2.95-2.95V748a2.88 2.88 0 0 1 2.95-2.95zm-4.33 3.6v2.47c0 .57.47 1.03 1.03 1.03h2.6c.57 0 1.04-.46 1.04-1.03v-2.48c0-.57-.47-1.03-1.04-1.03h-2.6c-.56 0-1.03.46-1.03 1.03zm2.66 6.13c.19.62.3 1.28.3 1.97 0 3.83-3.21 6.93-7.16 6.93a7.04 7.04 0 0 1-7.15-6.93c0-.69.1-1.35.3-1.97h-2.11v9.71c0 .5.4.92.91.92h16.02c.5 0 .91-.41.91-.92v-9.71zm-6.86-2.76c-2.55 0-4.62 2-4.62 4.48a4.55 4.55 0 0 0 4.62 4.48c2.55 0 4.62-2 4.62-4.48a4.55 4.55 0 0 0-4.62-4.48z"/></defs><g><g transform="translate(-723 -745)"><use fill="#556278" xlink:href="#t1lga"/></g></g></svg>