<?xml version="1.0" encoding="UTF-8"?>
<svg width="15px" height="18px" viewBox="0 0 15 18" version="1.1" xmlns="http://www.w3.org/2000/svg" xmlns:xlink="http://www.w3.org/1999/xlink">
    <!-- Generator: Sketch 46.1 (44463) - http://www.bohemiancoding.com/sketch -->
    <title>Fill 199</title>
    <desc>Created with Sketch.</desc>
    <defs></defs>
    <g id="Page-1" stroke="none" stroke-width="1" fill="none" fill-rule="evenodd">
        <g id="School-Administer---Krossover---Game-Opened---Drag-&amp;-Drop" transform="translate(-1171.000000, -1381.000000)" fill="#F63A39">
            <g id="My-video" transform="translate(90.000000, 1376.221448)">
                <g id="Group" transform="translate(1004.440927, 5.235881)">
                    <g id="Save-to-my-Reels">
                        <path d="M89.0818939,4.5104685 L79.033817,4.5104685 C78.7564901,4.5104685 78.5314132,4.28589398 78.5314132,4.00806465 C78.5314132,3.73073773 78.7564901,3.50566081 79.033817,3.50566081 L89.0818939,3.50566081 C89.3592209,3.50566081 89.5842978,3.73073773 89.5842978,4.00806465 C89.5842978,4.28589398 89.3592209,4.5104685 89.0818939,4.5104685 L89.0818939,4.5104685 Z M88.5794901,14.5585454 C88.5794901,15.1131993 88.1293362,15.5633531 87.5746824,15.5633531 L80.5410286,15.5633531 C79.9863747,15.5633531 79.5362209,15.1131993 79.5362209,14.5585454 L79.5362209,5.51527619 L88.5794901,5.51527619 L88.5794901,14.5585454 L88.5794901,14.5585454 Z M82.5506439,1.99844927 C82.5506439,1.72061994 82.7757209,1.49604542 83.0530478,1.49604542 L85.0626632,1.49604542 C85.3399901,1.49604542 85.565067,1.72061994 85.565067,1.99844927 L85.565067,2.50085311 L82.5506439,2.50085311 L82.5506439,1.99844927 L82.5506439,1.99844927 Z M89.5842978,2.50085311 L86.5698747,2.50085311 L86.5698747,1.49604542 C86.5698747,0.941391575 86.1197209,0.491237728 85.565067,0.491237728 L82.5506439,0.491237728 C81.9959901,0.491237728 81.5458362,0.941391575 81.5458362,1.49604542 L81.5458362,2.50085311 L78.5314132,2.50085311 C77.9767593,2.50085311 77.5266055,2.95100696 77.5266055,3.50566081 L77.5266055,4.5104685 C77.5266055,5.06512234 77.9767593,5.51527619 78.5314132,5.51527619 L78.5314132,14.5585454 C78.5314132,15.6683555 79.4312185,16.5681608 80.5410286,16.5681608 L87.5746824,16.5681608 C88.6844925,16.5681608 89.5842978,15.6683555 89.5842978,14.5585454 L89.5842978,5.51527619 C90.1389516,5.51527619 90.5891055,5.06512234 90.5891055,4.5104685 L90.5891055,3.50566081 C90.5891055,2.95100696 90.1389516,2.50085311 89.5842978,2.50085311 L89.5842978,2.50085311 Z M84.0578555,14.5585454 C84.3351824,14.5585454 84.5602593,14.3339709 84.5602593,14.0561416 L84.5602593,8.02729542 C84.5602593,7.7499685 84.3351824,7.52489157 84.0578555,7.52489157 C83.7805286,7.52489157 83.5554516,7.7499685 83.5554516,8.02729542 L83.5554516,14.0561416 C83.5554516,14.3339709 83.7805286,14.5585454 84.0578555,14.5585454 L84.0578555,14.5585454 Z M81.5458362,14.5585454 C81.8231632,14.5585454 82.0482401,14.3339709 82.0482401,14.0561416 L82.0482401,8.02729542 C82.0482401,7.7499685 81.8231632,7.52489157 81.5458362,7.52489157 C81.2685093,7.52489157 81.0434324,7.7499685 81.0434324,8.02729542 L81.0434324,14.0561416 C81.0434324,14.3339709 81.2685093,14.5585454 81.5458362,14.5585454 L81.5458362,14.5585454 Z M86.5698747,14.5585454 C86.8472016,14.5585454 87.0722786,14.3339709 87.0722786,14.0561416 L87.0722786,8.02729542 C87.0722786,7.7499685 86.8472016,7.52489157 86.5698747,7.52489157 C86.2925478,7.52489157 86.0674709,7.7499685 86.0674709,8.02729542 L86.0674709,14.0561416 C86.0674709,14.3339709 86.2925478,14.5585454 86.5698747,14.5585454 L86.5698747,14.5585454 Z" id="Fill-199"></path>
                    </g>
                </g>
            </g>
        </g>
    </g>
</svg>