<svg xmlns="http://www.w3.org/2000/svg" xmlns:xlink="http://www.w3.org/1999/xlink" width="88" height="63" viewBox="0 0 88 63"><defs><path id="a" d="M689 746v60.19h1.52V746z"/><path id="b" d="M742 746v60.19h1.52V746z"/><path id="c" d="M759.85 793H742v1.52h17.85z"/><path id="d" d="M759.85 776H742v1.52h17.85z"/><path id="e" d="M759.85 759H742v1.52h17.85z"/><path id="f" d="M690.43 792H674v1.52h16.43z"/><path id="g" d="M690.43 775H674v1.52h16.43z"/><path id="h" d="M690.43 759H674v1.52h16.43z"/><path id="i" d="M757.96 746.28v57.9h-82.68v-57.9zm-84.96 0v57.9a2.28 2.28 0 0 0 2.28 2.28h82.68a2.28 2.28 0 0 0 2.28-2.28v-57.9a2.28 2.28 0 0 0-2.28-2.28h-82.68a2.28 2.28 0 0 0-2.28 2.28z"/><path id="j" d="M729.34 785.86H709.4l9.97-17.09zm-9.59-20.76a.76.76 0 0 0-1.04.28l-12.61 21.61a.87.87 0 0 0-.1.39c0 .42.34.76.76.76h25.22c.13 0 .27-.04.38-.11a.75.75 0 0 0 .27-1.04l-12.61-21.61a.73.73 0 0 0-.27-.28z"/></defs><desc>Generated with Avocode.</desc><g transform="translate(-673 -744)"><use fill="#cccfd5" xlink:href="#a"/></g><g transform="translate(-673 -744)"><use fill="#cccfd5" xlink:href="#b"/></g><g transform="translate(-673 -744)"><use fill="#cccfd5" xlink:href="#c"/></g><g transform="translate(-673 -744)"><use fill="#cccfd5" xlink:href="#d"/></g><g transform="translate(-673 -744)"><use fill="#cccfd5" xlink:href="#e"/></g><g transform="translate(-673 -744)"><use fill="#cccfd5" xlink:href="#f"/></g><g transform="translate(-673 -744)"><use fill="#cccfd5" xlink:href="#g"/></g><g transform="translate(-673 -744)"><use fill="#cccfd5" xlink:href="#h"/></g><g transform="translate(-673 -744)"><use fill="#b2b7bf" xlink:href="#i"/></g><g transform="translate(-673 -744)"><use fill="#b2b7bf" xlink:href="#j"/></g></svg>