<svg xmlns="http://www.w3.org/2000/svg" xmlns:xlink="http://www.w3.org/1999/xlink" width="38" height="34" viewBox="0 0 38 34"><defs><path id="a" d="M924.5 634l14.5 24h-29z"/><path id="d" d="M926.25 655.09h-2.5v-.13l-.75-.37v-.5h.75v-5.63l-.75-.37v-.5h4v.5l-.75.38v5.62h.75v.5l-.75.38zM925.5 643a1.5 1.5 0 1 1 0 3 1.5 1.5 0 0 1 0-3z"/><mask id="c" width="2" height="2" x="-1" y="-1"><path fill="#fff" d="M910 634h29v24h-29z"/><use xlink:href="#a"/></mask><filter id="b" width="61" height="56" x="894" y="618" filterUnits="userSpaceOnUse"><feOffset in="SourceGraphic" result="FeOffset1204Out"/><feGaussianBlur in="FeOffset1204Out" result="FeGaussianBlur1205Out" stdDeviation="2.4 2.4"/></filter></defs><desc>Generated with Avocode.</desc><g transform="translate(-906 -630)"><g filter="url(#b)"><use fill="none" stroke-opacity=".29" stroke-width="0" mask="url(&quot;#c&quot;)" xlink:href="#a"/><use fill="#3f4c5e" fill-opacity=".29" xlink:href="#a"/></g><use fill="#fff" xlink:href="#a"/></g><g transform="translate(-906 -630)"><use fill="#4a90e2" xlink:href="#d"/></g></svg>