<?xml version="1.0" encoding="UTF-8"?>
<svg width="23px" height="21px" viewBox="0 0 23 21" version="1.1" xmlns="http://www.w3.org/2000/svg" xmlns:xlink="http://www.w3.org/1999/xlink">
    <!-- Generator: Sketch 46.1 (44463) - http://www.bohemiancoding.com/sketch -->
    <title>Play All</title>
    <desc>Created with Sketch.</desc>
    <defs></defs>
    <g id="Page-1" stroke="none" stroke-width="1" fill="none" fill-rule="evenodd">
        <g id="School-Administer---Krossover---Game-Opened---Drag-&amp;-Drop" transform="translate(-332.000000, -1381.000000)" fill="#5CB85C">
            <g id="My-video" transform="translate(90.000000, 1376.221448)">
                <g id="Play-All" transform="translate(159.440927, 0.235881)">
                    <g transform="translate(82.000000, 4.000000)">
                        <polygon id="Path-2" points="9.55907268 7.54267143 9.55907268 14 14.7249355 10.7713357"></polygon>
                        <path d="M13.5590727,4.54267143 L13.5590727,6.54267143 L17.5590727,3.54267143 L13.5590727,0.542671428 L13.5590727,2.54267143 L2.55907268,2.54267143 L2.55907268,2.54267143 C1.45450318,2.54267143 0.559072675,3.43810193 0.559072675,4.54267143 L0.559072675,17.5426714 L0.559072675,17.5426714 C0.559072675,18.6472409 1.45450318,19.5426714 2.55907268,19.5426714 L4.05907268,19.5426714 L4.05907268,17.5426714 L3.55907268,17.5426714 L3.55907268,17.5426714 C3.00678793,17.5426714 2.55907268,17.0949562 2.55907268,16.5426714 L2.55907268,5.54267143 L2.55907268,5.54267143 C2.55907268,4.99038668 3.00678793,4.54267143 3.55907268,4.54267143 L13.5590727,4.54267143 Z" id="Path-3"></path>
                        <path d="M18.7220161,6.54267143 L18.7220161,8.54267143 L22.7220161,5.54267143 L18.7220161,2.54267143 L18.7220161,4.54267143 L7.72201614,4.54267143 L7.72201614,4.54267143 C6.61744664,4.54267143 5.72201614,5.43810193 5.72201614,6.54267143 L5.72201614,19.5426714 L5.72201614,19.5426714 C5.72201614,20.6472409 6.61744664,21.5426714 7.72201614,21.5426714 L9.22201614,21.5426714 L9.22201614,19.5426714 L8.72201614,19.5426714 L8.72201614,19.5426714 C8.16973139,19.5426714 7.72201614,19.0949562 7.72201614,18.5426714 L7.72201614,7.54267143 L7.72201614,7.54267143 C7.72201614,6.99038668 8.16973139,6.54267143 8.72201614,6.54267143 L18.7220161,6.54267143 Z" id="Path-3-Copy" transform="translate(14.222016, 12.042671) rotate(180.000000) translate(-14.222016, -12.042671) "></path>
                    </g>
                </g>
            </g>
        </g>
    </g>
</svg>