<?xml version="1.0" encoding="UTF-8"?>
<svg width="15px" height="16px" viewBox="0 0 15 16" version="1.1" xmlns="http://www.w3.org/2000/svg" xmlns:xlink="http://www.w3.org/1999/xlink">
    <!-- Generator: Sketch 46.1 (44463) - http://www.bohemiancoding.com/sketch -->
    <title>Combined Shape</title>
    <desc>Created with Sketch.</desc>
    <defs></defs>
    <g id="Page-1" stroke="none" stroke-width="1" fill="none" fill-rule="evenodd">
        <g id="School-Administer---Krossover---Game-Opened---New-Updates" transform="translate(-1308.000000, -1985.000000)" fill-rule="nonzero" fill="#556278">
            <g id="Saved-Reels" transform="translate(109.000000, 1631.542863)">
                <g id="Reel-2-Copy-2" transform="translate(959.000000, 128.645730)">
                    <path d="M248.556625,228.743418 L242.337338,234.962705 L245.113455,237.738821 L251.332741,231.519535 L248.556625,228.743418 Z M249.315779,227.984264 L252.091896,230.76038 L253.63718,229.215096 L250.861063,226.438979 L249.315779,227.984264 Z M241.578184,235.721859 L241.198606,236.101436 L241.198606,238.877553 L243.974723,238.877553 L244.3543,238.497976 L241.578184,235.721859 Z M240.125,238.877553 L240.125,236.101436 C240.125,235.816698 240.238112,235.543622 240.439452,235.342282 L250.101909,225.679825 C250.521178,225.260556 251.200948,225.260556 251.620218,225.679825 L254.396334,228.455942 C254.815604,228.875211 254.815604,229.554981 254.396334,229.97425 L244.733877,239.636707 C244.532537,239.838048 244.259461,239.951159 243.974723,239.951159 L241.198606,239.951159 C240.60567,239.951159 240.125,239.470489 240.125,238.877553 Z" id="Combined-Shape"></path>
                </g>
            </g>
        </g>
    </g>
</svg>