<?xml version="1.0" encoding="UTF-8"?>
<svg width="65px" height="83px" viewBox="0 0 65 83" version="1.1" xmlns="http://www.w3.org/2000/svg" xmlns:xlink="http://www.w3.org/1999/xlink">
    <!-- Generator: Sketch 46.1 (44463) - http://www.bohemiancoding.com/sketch -->
    <title>Video 2</title>
    <desc>Created with Sketch.</desc>
    <defs></defs>
    <g id="Page-1" stroke="none" stroke-width="1" fill="none" fill-rule="evenodd">
        <g id="School-Administer---Krossover---Wizard-2---Step-2" transform="translate(-776.000000, -790.000000)" fill-rule="nonzero">
            <g id="2" transform="translate(742.000000, 789.131862)">
                <g id="Video-2" transform="translate(34.000000, 0.327567)">
                    <path d="M13.737112,10.5513496 C13.6265605,10.8641285 13.5664062,11.2007141 13.5664062,11.5513496 L13.5664062,13.5513496 L3.56640625,13.5513496 L3.56640625,80.2857143 L61.0219566,80.2857143 L61.0219566,13.5513496 L50.0219566,13.5513496 L50.0219566,11.5513496 C50.0219566,11.2007141 49.9618023,10.8641285 49.8512509,10.5513496 L61.0219566,10.5513496 C62.6788108,10.5513496 64.0219566,11.8944953 64.0219566,13.5513496 L64.0219566,80.2857143 C64.0219566,81.9425685 62.6788108,83.2857143 61.0219566,83.2857143 L3.56640625,83.2857143 C1.909552,83.2857143 0.56640625,81.9425685 0.56640625,80.2857143 L0.56640625,13.5513496 C0.56640625,11.8944953 1.909552,10.5513496 3.56640625,10.5513496 L13.737112,10.5513496 Z M13.5664063,17.7275398 L13.5664063,20.7275398 L11.2426969,20.7275398 L11.2426969,73.1095241 L53.3456659,73.1095241 L53.3456659,20.7275398 L50.0219566,20.7275398 L50.0219566,17.7275398 L56.3456659,17.7275398 L56.3456659,76.1095241 L8.24269692,76.1095241 L8.24269692,17.7275398 L13.5664063,17.7275398 Z" id="Combined-Shape" fill="#B2B7BF"></path>
                    <path d="M36.75,61.5405708 C34.1266474,61.5405708 32,59.4139233 32,56.7905708 C32,54.1672182 34.1266474,52.0405708 36.75,52.0405708 C39.3733526,52.0405708 41.5,54.1672182 41.5,56.7905708 C41.5,59.4139233 39.3733526,61.5405708 36.75,61.5405708 Z M36.75,59.3482631 C38.1625745,59.3482631 39.3076923,58.2031452 39.3076923,56.7905708 C39.3076923,55.3779963 38.1625745,54.2328785 36.75,54.2328785 C35.3374255,54.2328785 34.1923077,55.3779963 34.1923077,56.7905708 C34.1923077,58.2031452 35.3374255,59.3482631 36.75,59.3482631 Z" id="Oval-3" fill="#DFE1E5"></path>
                    <path d="M40.25,35.6111922 L37.5271893,32.8883815 C37.0634417,32.4246339 36.3115583,32.4246339 35.8478107,32.8883815 C35.3840631,33.3521291 35.3840631,34.1040125 35.8478107,34.5677601 L38.5706214,37.2905708 L35.8478107,40.0133815 C35.3840631,40.4771291 35.3840631,41.2290125 35.8478107,41.6927601 C36.3115583,42.1565077 37.0634417,42.1565077 37.5271893,41.6927601 L40.25,38.9699494 L42.9728107,41.6927601 C43.4365583,42.1565077 44.1884417,42.1565077 44.6521893,41.6927601 C45.1159369,41.2290125 45.1159369,40.4771291 44.6521893,40.0133815 L41.9293786,37.2905708 L44.6521893,34.5677601 C45.1159369,34.1040125 45.1159369,33.3521291 44.6521893,32.8883815 C44.1884417,32.4246339 43.4365583,32.4246339 42.9728107,32.8883815 L40.25,35.6111922 Z" id="Combined-Shape" fill="#DFE1E5"></path>
                    <path d="M24.0811012,43.6111922 L21.3582905,40.8883815 C20.8945429,40.4246339 20.1426595,40.4246339 19.6789119,40.8883815 C19.2151643,41.3521291 19.2151643,42.1040125 19.6789119,42.5677601 L22.4017226,45.2905708 L19.6789119,48.0133815 C19.2151643,48.4771291 19.2151643,49.2290125 19.6789119,49.6927601 C20.1426595,50.1565077 20.8945429,50.1565077 21.3582905,49.6927601 L24.0811012,46.9699494 L26.8039119,49.6927601 C27.2676595,50.1565077 28.0195429,50.1565077 28.4832905,49.6927601 C28.9470381,49.2290125 28.9470381,48.4771291 28.4832905,48.0133815 L25.7604798,45.2905708 L28.4832905,42.5677601 C28.9470381,42.1040125 28.9470381,41.3521291 28.4832905,40.8883815 C28.0195429,40.4246339 27.2676595,40.4246339 26.8039119,40.8883815 L24.0811012,43.6111922 Z" id="Combined-Shape-Copy-2" fill="#DFE1E5"></path>
                    <path d="M41.2572616,8.55134956 L41.2572616,7.55134956 C41.2572616,3.68535632 38.1232549,0.551349564 34.2572616,0.551349564 L29.3311012,0.551349564 C25.4651079,0.551349564 22.3311012,3.68535632 22.3311012,7.55134956 L22.3311012,8.55134956 L25.3311012,8.55134956 L25.3311012,7.55134956 C25.3311012,5.34221056 27.1219622,3.55134956 29.3311012,3.55134956 L34.2572616,3.55134956 C36.4664006,3.55134956 38.2572616,5.34221056 38.2572616,7.55134956 L38.2572616,8.55134956 L41.2572616,8.55134956 Z" id="Rectangle-11-Copy-6" fill="#B2B7BF"></path>
                    <path d="M16.5664063,20.2857143 L47.0219566,20.2857143 L47.0219566,11.5513496 L16.5664062,11.5513496 L16.5664063,20.2857143 Z M16.5664062,8.55134956 L47.0219566,8.55134956 C48.6788108,8.55134956 50.0219566,9.89449531 50.0219566,11.5513496 L50.0219566,23.2857143 L13.5664062,23.2857143 L13.5664062,11.5513496 C13.5664062,9.89449531 14.909552,8.55134956 16.5664062,8.55134956 Z" id="Rectangle-11-Copy-5" fill="#B2B7BF"></path>
                </g>
            </g>
        </g>
    </g>
</svg>