<?xml version="1.0" encoding="UTF-8"?>
<svg width="82px" height="82px" viewBox="0 0 82 82" version="1.1" xmlns="http://www.w3.org/2000/svg" xmlns:xlink="http://www.w3.org/1999/xlink">
    <!-- Generator: Sketch 46.1 (44463) - http://www.bohemiancoding.com/sketch -->
    <title>Video 2 Copy</title>
    <desc>Created with Sketch.</desc>
    <defs></defs>
    <g id="Page-1" stroke="none" stroke-width="1" fill="none" fill-rule="evenodd">
        <g id="School-Administer---Krossover---Wizard-2---Step-2" transform="translate(-601.000000, -791.000000)">
            <g id="2-copy" transform="translate(576.000000, 790.131862)">
                <g id="Video-2-Copy" transform="translate(25.500000, 0.155782)">
                    <path d="M36.391767,30.0362542 L45.8147887,30.0362542" id="Line-15-Copy" stroke="#CCCFD5" stroke-width="2" stroke-linecap="square"></path>
                    <path d="M0.963339267,74.8644689 L34.8862173,74.8644689" id="Line-15-Copy-3" stroke="#CCCFD5" stroke-width="2" stroke-linecap="square"></path>
                    <path d="M46.9413557,74.8644689 L79.9219316,74.8644689" id="Line-15-Copy-4" stroke="#CCCFD5" stroke-width="2" stroke-linecap="square"></path>
                    <path d="M36.391767,35.0362542 L45.8147887,35.0362542" id="Line-15-Copy-2" stroke="#CCCFD5" stroke-width="2" stroke-linecap="square"></path>
                    <path d="M30.0958997,44.7123561 L33.8539751,55 L34.2986986,55 C35.9555528,55 37.2986986,56.3431458 37.2986986,58 L37.2986986,78.937949 C37.2986986,80.5948032 35.9555528,81.937949 34.2986986,81.937949 L3,81.937949 C1.34314575,81.937949 6.46995335e-16,80.5948032 4.4408921e-16,78.937949 L0,58 C6.85272294e-16,56.3431458 1.34314575,55 3,55 L4.592142,55 L4.95477025,44.3254217 C4.04419218,43.8103886 3.42957517,42.8331481 3.42957517,41.7123561 C3.42957517,41.6429281 3.43198529,41.573521 3.43680119,41.5042602 L4.80550178,21.8200094 C4.91498007,20.2455248 6.22568181,19.0251175 7.80396519,19.0281107 L16.2763427,19.0441784 L16.2763427,13.6280951 L13.3022396,13.6426871 C11.6454053,13.6508162 10.2956858,12.3142765 10.2875568,10.6574421 C10.2875407,10.6541713 10.2875287,8.35921305 10.2875207,3.7725674 C10.2875207,2.11849803 11.6263231,0.776508641 13.2803878,0.772575878 L33.2915657,0.724996586 C34.9484153,0.721057201 36.2947507,2.06100565 36.2986901,3.71785522 L36.2986986,10.5445412 C36.2986986,12.1956503 34.9645067,13.5364043 33.3134175,13.5445051 L31,13.5558556 L31,19.0721015 L33.1367546,19.0761538 C34.7913845,19.0792918 36.1310652,20.4215156 36.1310652,22.0761484 L36.1310652,41.7123561 C36.1310652,43.3692104 34.7879195,44.7123561 33.1310652,44.7123561 L30.0958997,44.7123561 Z M3,58 L3,78.937949 L34.2986986,78.937949 L34.2986986,58 L3,58 Z M7.79827576,22.0281053 L6.42957517,41.7123561 L33.1310652,41.7123561 L33.1310652,22.0761484 L7.79827576,22.0281053 Z M19.2763427,13.5366088 L19.2763427,18.8040456 L28,18.7378175 L28,13.5045144 L19.2763427,13.5366088 Z M13.2875207,3.7725674 L13.2875207,10.6427232 L33.2986986,10.5445412 L33.2986986,3.72498811 L13.2875207,3.7725674 Z M30.554999,54.7123561 L26.9019999,44.7123561 L7.94335618,44.7123561 L7.60364417,54.7123561 L30.554999,54.7123561 Z" id="Combined-Shape" fill="#B2B7BF" fill-rule="nonzero"></path>
                    <path d="M74.0958997,44.7123561 L77.8539751,55 L78.2986986,55 C79.9555528,55 81.2986986,56.3431458 81.2986986,58 L81.2986986,78.937949 C81.2986986,80.5948032 79.9555528,81.937949 78.2986986,81.937949 L47,81.937949 C45.3431458,81.937949 44,80.5948032 44,78.937949 L44,58 C44,56.3431458 45.3431458,55 47,55 L48.592142,55 L48.9547702,44.3254217 C48.0441922,43.8103886 47.4295752,42.8331481 47.4295752,41.7123561 C47.4295752,41.6429281 47.4319853,41.573521 47.4368012,41.5042602 L48.8055018,21.8200094 C48.9149801,20.2455248 50.2256818,19.0251175 51.8039652,19.0281107 L60.2763427,19.0441784 L60.2763427,13.6280951 L57.3022396,13.6426871 C55.6454053,13.6508162 54.2956858,12.3142765 54.2875568,10.6574421 C54.2875407,10.6541713 54.2875287,8.35921305 54.2875207,3.7725674 C54.2875207,2.11849803 55.6263231,0.776508641 57.2803878,0.772575878 L77.2915657,0.724996586 C78.9484153,0.721057201 80.2947507,2.06100565 80.2986901,3.71785522 L80.2986986,10.5445412 C80.2986986,12.1956503 78.9645067,13.5364043 77.3134175,13.5445051 L75,13.5558556 L75,19.0721015 L77.1367546,19.0761538 C78.7913845,19.0792918 80.1310652,20.4215156 80.1310652,22.0761484 L80.1310652,41.7123561 C80.1310652,43.3692104 78.7879195,44.7123561 77.1310652,44.7123561 L74.0958997,44.7123561 Z M47,58 L47,78.937949 L78.2986986,78.937949 L78.2986986,58 L47,58 Z M51.7982758,22.0281053 L50.4295752,41.7123561 L77.1310652,41.7123561 L77.1310652,22.0761484 L51.7982758,22.0281053 Z M63.2763427,13.5366088 L63.2763427,18.8040456 L72,18.7378175 L72,13.5045144 L63.2763427,13.5366088 Z M57.2875207,3.7725674 L57.2875207,10.6427232 L77.2986986,10.5445412 L77.2986986,3.72498811 L57.2875207,3.7725674 Z M74.554999,54.7123561 L70.9019999,44.7123561 L51.9433562,44.7123561 L51.6036442,54.7123561 L74.554999,54.7123561 Z" id="Combined-Shape-Copy" fill="#B2B7BF" fill-rule="nonzero" transform="translate(62.649349, 41.331468) scale(-1, 1) translate(-62.649349, -41.331468) "></path>
                    <path d="M36.261316,24.9064594 L36.261316,39.6700918 L44.9849733,39.5480456 L44.9849733,24.8473155 L36.261316,24.9064594 Z M33.261316,21.9267296 L47.9849733,21.8269074 L47.9849733,42.5063684 L33.261316,42.7123561 L33.261316,21.9267296 Z" id="Rectangle-11-Copy-4" fill="#B2B7BF" fill-rule="nonzero"></path>
                </g>
            </g>
        </g>
    </g>
</svg>