<svg xmlns="http://www.w3.org/2000/svg" xmlns:xlink="http://www.w3.org/1999/xlink" width="17" height="15" viewBox="0 0 17 15"><defs><path id="vxzua" d="M821.23 838.41c1.13 0 2.18.55 2.84 1.46l.68.93.67-.93a3.51 3.51 0 0 1 2.84-1.46c1.96 0 3.54 1.6 3.54 3.6 0 .88-.3 1.7-.86 2.35l-.1.1-.32.33a2332.38 2332.38 0 0 1-1.94 1.98l-1.61 1.63-1.77 1.8-.5.5-6.18-6.37a3.62 3.62 0 0 1 2.7-5.92zm9.71 5.95l.02-.02-.04.04.02-.02zm-6.24 6.34l.3.3a.43.43 0 0 0-.6 0l.3-.3zm-6.18-6.37l.02.02-.04-.05zm-.63.91l.03.04 5.97 6.15c.44.46 1.17.47 1.62.01l.74-.74 1.62-1.65 1.48-1.5a753.67 753.67 0 0 0 1.79-1.81l.29-.3.11-.12.03-.03a4.84 4.84 0 0 0-3.6-8c-1.21 0-2.35.47-3.22 1.27-.87-.8-2-1.27-3.23-1.27a4.84 4.84 0 1 0-3.63 7.95z"/></defs><g><g transform="translate(-816 -837)"><use fill="#0b131e" xlink:href="#vxzua"/></g></g></svg>