<svg id="SvgjsSvg1091" xmlns="http://www.w3.org/2000/svg" version="1.1" xmlns:xlink="http://www.w3.org/1999/xlink" xmlns:svgjs="http://svgjs.com/svgjs" width="10" height="9" viewBox="0 0 10 9"><title>Heart</title><desc>Created with Avocode.</desc><defs id="SvgjsDefs1092"></defs><path id="SvgjsPath1093" d="M20.76 3.88C21.360000000000003 3.88 21.92 4.17 22.270000000000003 4.66L22.630000000000003 5.15L22.980000000000004 4.66C23.330000000000005 4.17 23.890000000000004 3.88 24.490000000000006 3.88C25.530000000000005 3.88 26.370000000000005 4.7299999999999995 26.370000000000005 5.79C26.370000000000005 6.26 26.200000000000003 6.7 25.900000000000006 7.05C25.892160000000004 7.05784 25.880140000000004 7.06986 25.860000000000007 7.09C25.790000000000006 7.16 25.790000000000006 7.16 25.690000000000005 7.27C25.510000000000005 7.4399999999999995 25.340000000000003 7.619999999999999 25.170000000000005 7.789999999999999C24.960000000000004 8.01 24.790000000000006 8.18 24.660000000000004 8.309999999999999C24.260000000000005 8.719999999999999 24.260000000000005 8.719999999999999 23.800000000000004 9.179999999999998C23.290000000000003 9.699999999999998 23.290000000000003 9.699999999999998 22.860000000000003 10.129999999999997C22.734270000000002 10.259429999999996 22.655030000000004 10.340999999999998 22.601050000000004 10.396439999999997L19.310000000000006 7.009999999999996L19.330000000000005 7.029999999999996C19.040000000000006 6.689999999999996 18.880000000000006 6.249999999999996 18.880000000000006 5.789999999999996C18.880000000000006 4.729999999999995 19.720000000000006 3.8799999999999955 20.760000000000005 3.8799999999999955ZM22.60105 10.39644L22.76 10.56C22.67 10.48 22.53 10.47 22.44 10.56C22.49042 10.50958 22.50906 10.49094 22.60105 10.39644ZM18.66 7.6L18.68 7.619999999999999L22.13 11.18C22.38 11.44 22.81 11.45 23.07 11.18C23.15 11.1 23.15 11.1 23.490000000000002 10.75C23.92 10.32 23.92 10.32 24.430000000000003 9.8C24.890000000000004 9.33 24.890000000000004 9.33 25.290000000000003 8.930000000000001C25.410000000000004 8.8 25.590000000000003 8.620000000000001 25.800000000000004 8.410000000000002C25.970000000000006 8.240000000000002 26.140000000000004 8.060000000000002 26.320000000000004 7.880000000000002C26.420000000000005 7.780000000000002 26.420000000000005 7.780000000000002 26.490000000000006 7.710000000000002C26.540000000000006 7.660000000000002 26.540000000000006 7.660000000000002 26.550000000000004 7.650000000000002L26.570000000000004 7.620000000000002C27.010000000000005 7.120000000000002 27.250000000000004 6.470000000000002 27.250000000000004 5.790000000000002C27.250000000000004 4.250000000000002 26.020000000000003 3.0000000000000018 24.490000000000002 3.0000000000000018C23.7845 3.0000000000000018 23.122980000000002 3.2702000000000018 22.625000000000004 3.7358800000000016C22.127020000000005 3.2702000000000018 21.465500000000002 3.0000000000000018 20.760000000000005 3.0000000000000018C19.230000000000004 3.0000000000000018 18.000000000000007 4.250000000000002 18.000000000000007 5.790000000000002C18.000000000000007 6.460000000000002 18.240000000000006 7.100000000000001 18.660000000000007 7.600000000000001Z " fill="#b2b7bf" fill-opacity="1" transform="matrix(1,0,0,1,-18,-3)"></path></svg>