<?xml version="1.0" encoding="UTF-8"?>
<svg width="28px" height="13px" viewBox="0 0 28 13" version="1.1" xmlns="http://www.w3.org/2000/svg" xmlns:xlink="http://www.w3.org/1999/xlink">
    <!-- Generator: Sketch 46.1 (44463) - http://www.bohemiancoding.com/sketch -->
    <title>Combined Shape</title>
    <desc>Created with Sketch.</desc>
    <defs></defs>
    <g id="Page-1" stroke="none" stroke-width="1" fill="none" fill-rule="evenodd">
        <g id="School-Administer---Krossover---Wizard---Step-2" transform="translate(-687.000000, -1023.000000)" fill-rule="nonzero" fill="#8590A4">
            <g id="buttons-copy-3" transform="translate(673.000000, 1016.195875)">
                <path d="M30.2586633,11.0464441 L25.0222473,9.80481868 L17.6369792,9.80481868 L17.6369792,16.5421681 L20.8442072,16.5421681 C21.396492,16.5421681 21.8442072,16.9898833 21.8442072,17.5421681 L21.8442072,17.5421681 L21.8442072,18.3469868 C21.8442072,18.8992715 21.396492,19.3469868 20.8442072,19.3469868 L17.6369792,19.3469868 C16.0879206,19.3469868 14.8321605,18.0912267 14.8321605,16.5421681 L14.8321605,9.80481868 C14.8321605,8.2557601 16.0879206,7 17.6369792,7 L25.3502306,7 L30.9057813,8.31729655 C32.1704888,8.61717591 33.063482,9.74666989 33.063482,11.0464441 L33.063482,13.0120467 C33.063482,13.5643315 32.6157667,14.0120467 32.063482,14.0120467 L32.063482,14.0120467 L31.2586633,14.0120467 C30.7063785,14.0120467 30.2586633,13.5643315 30.2586633,13.0120467 L30.2586633,13.0120467 L30.2586633,11.0464441 Z M26.3156576,15.3005427 L31.5520736,16.5421681 L38.9373417,16.5421681 L38.9373417,9.80481868 L35.7301137,9.80481868 C35.1778289,9.80481868 34.7301137,9.35710343 34.7301137,8.80481868 L34.7301137,8 C34.7301137,7.44771525 35.1778289,7 35.7301137,7 L38.9373417,7 C40.4864003,7 41.7421604,8.2557601 41.7421604,9.80481868 L41.7421604,16.5421681 C41.7421604,18.0912267 40.4864003,19.3469868 38.9373417,19.3469868 L31.2240903,19.3469868 L25.6685397,18.0296902 C24.4038321,17.7298109 23.5108389,16.6003169 23.5108389,15.3005427 L23.5108389,13.3349401 C23.5108389,12.7826553 23.9585542,12.3349401 24.5108389,12.3349401 L24.5108389,12.3349401 L25.3156576,12.3349401 C25.8679424,12.3349401 26.3156576,12.7826553 26.3156576,13.3349401 L26.3156576,13.3349401 L26.3156576,15.3005427 Z" id="Combined-Shape"></path>
            </g>
        </g>
    </g>
</svg>