<svg xmlns="http://www.w3.org/2000/svg" xmlns:xlink="http://www.w3.org/1999/xlink" width="18" height="18" viewBox="0 0 18 18"><defs><path id="p1v5a" d="M158 544a9 9 0 1 1-18 0 9 9 0 0 1 18 0zm-8.68-7.84a7.86 7.86 0 0 0-7.8 5.48c.16.23.38.44.69.62 1.17.67.89 2.71.66 3.48-.24.76 0 2.6.73 3.14.74.54 3.18 1.13 3.7 1.45.72.42 1.26.23.75-.6-.5-.82-1.46-2.16-1.59-3-.1-.64.24-1.5 1.14-2.34.9-.84 1.3-2.74.43-3.5-.47-.42-2.18-1.12-1.91-2.08.15-.55.85-1.05 1.84-1.7.34-.22.85-.57 1.36-.95zm6.86 11a7.85 7.85 0 0 0-3.04-9.8c-.88.5-1.63 1.27-1.63 2.45 0 1.2 1.9 2.07 1.52 3.07-.38 1-.68 1.7.24 2.2.22.12 1.38.28 2.38.38.58.06.5.84.53 1.7z"/></defs><g><g transform="translate(-140 -535)"><use fill="#d3d6da" xlink:href="#p1v5a"/></g></g></svg>