<svg xmlns="http://www.w3.org/2000/svg" xmlns:xlink="http://www.w3.org/1999/xlink" width="10" height="14" viewBox="0 0 10 14"><defs><path id="fvsva" d="M768 784v-14h9.7v14zm4.86-13h-.02a3.8 3.8 0 0 0-3.84 3.76c0 1.35.63 3.15 1.88 5.32a29.55 29.55 0 0 0 1.87 2.87c.02.03.07.05.1.05h.01c.05 0 .09-.02.11-.06.01-.01.94-1.39 1.86-3.07 1.24-2.27 1.87-3.99 1.87-5.11a3.8 3.8 0 0 0-3.84-3.76zm1.77 3.85c0 .96-.8 1.74-1.78 1.74s-1.78-.78-1.78-1.74.8-1.74 1.78-1.74 1.78.78 1.78 1.74z"/><path id="fvsvb" d="M776.7 774.76c0 1.12-.63 2.84-1.87 5.11-.92 1.68-1.85 3.06-1.86 3.07a.14.14 0 0 1-.1.06h-.01a.14.14 0 0 1-.11-.05c-.01-.02-.95-1.25-1.87-2.87-1.25-2.17-1.88-3.97-1.88-5.32a3.8 3.8 0 0 1 3.84-3.76h.02a3.8 3.8 0 0 1 3.84 3.76zm-3.85-1.65c-.98 0-1.78.78-1.78 1.74s.8 1.74 1.78 1.74 1.78-.78 1.78-1.74-.8-1.74-1.78-1.74z"/><clipPath id="fvsvc"><use fill="#fff" xlink:href="#fvsva"/></clipPath></defs><g><g transform="translate(-768 -770)"><use fill="#fff" fill-opacity="0" stroke="#f41b1a" stroke-miterlimit="50" stroke-width="2" clip-path="url(&quot;#fvsvc&quot;)" xlink:href="#fvsvb"/></g></g></svg>