<svg xmlns="http://www.w3.org/2000/svg" width="40" height="27" viewBox="0 0 40 27"><path fill="#f41b1a" d="M37.17 9.68c0-.09-.04-.15-.1-.17l-.09.17zm-.88-.27c.04 0 .06-.02.06-.08s-.02-.09-.06-.09c-.05 0-.07.03-.07.09s.02.08.07.08zm-.35.1h.08l.04-.04a.88.88 0 0 0 .06-.1l.04-.11a.22.22 0 0 0 .03-.1c.04-.19-.02-.29-.17-.29a.1.1 0 0 0-.05.01l-.03.01zm-1.31.6c.04 0 .07-.03.07-.08 0-.06-.03-.09-.07-.09-.05 0-.07.03-.07.09 0 .05.02.08.07.08zm-1.01 2.18h.05l.06-.08a.42.42 0 0 0 .03-.09c0-.02-.03-.05-.07-.08l-.12-.07-.07-.02-.01.08.02.17c.01.06.05.09.11.09zm-.47 3.39c.04 0 .06-.02.06-.08s-.02-.09-.06-.09c-.05 0-.07.03-.07.09s.02.08.07.08zm-.17-.37h-.14c-.04 0-.05.01-.04.03.02.02.08.04.18.04a.3.3 0 0 0 .17-.04c.02-.02 0-.03-.03-.03h-.14zm.2.87a.5.5 0 0 0 .15-.36v-.14l-.24.32c-.07.1-.17.15-.31.15 0 .13.04.24.11.32.1-.08.2-.18.29-.29zm-.43-3.98l.02.06.03.03c.03-.01.04-.04.04-.09 0-.05-.01-.08-.04-.08-.01-.01-.02 0-.03.02l-.02.06zm.05.62c.04 0 .06-.03.06-.1 0-.05-.02-.08-.06-.08-.04 0-.07.03-.07.08 0 .07.03.1.07.1zm0-.79c.04 0 .06-.03.06-.08 0-.07-.02-.1-.06-.1-.04 0-.07.03-.07.1 0 .05.03.08.07.08zm-.09 4.62c.05 0 .07-.03.07-.09s-.02-.09-.07-.09-.07.03-.07.09.02.09.07.09zm0-3.14c.05 0 .07-.03.07-.09 0-.05-.02-.08-.07-.08s-.07.03-.07.08c0 .06.02.09.07.09zm-.17.61c.05 0 .07-.03.07-.08 0-.07-.02-.1-.07-.1s-.07.03-.07.1c0 .05.02.08.07.08zM29.41 26.5l-.01-.02-.17.18h.02l.02.01.05-.01a.3.3 0 0 0 .08-.08l.01-.06v-.02zm-.38.16c0-.06-.02-.08-.06-.08-.05 0-.07.02-.07.08s.02.09.07.09c.04 0 .06-.03.06-.09zM26.62 5.33c.04 0 .07-.03.07-.09s-.03-.09-.07-.09c-.05 0-.08.03-.08.09s.03.09.08.09zm-.96-.87c.04 0 .06-.03.06-.1 0-.05-.02-.08-.06-.08-.04 0-.07.03-.07.08 0 .07.03.1.07.1zm-.61 3.04l.02.3.03.36.03.32.01.16.02.17.02.17c.02.05.04.09.08.13.04.03.1.05.18.05a.4.4 0 0 0 .32-.15 1.36 1.36 0 0 0 .31-.77l.03-.36c0-.1-.01-.2-.03-.28l-.06-.26a1.97 1.97 0 0 1-.1-.54c0-.13.01-.25.04-.36l.09-.33.09-.34c.03-.11.05-.23.06-.36a.67.67 0 0 0 .28-.21l.17-.29.17-.31a.82.82 0 0 1 .25-.24 1.8 1.8 0 0 0-.16-.21.3.3 0 0 0-.19-.05.91.91 0 0 0-.5.17c-.17.12-.29.24-.37.36-.02-.06-.05-.09-.1-.1h-.14c-.03 0-.07.04-.12.11-.05.08-.1.16-.14.26-.05.09-.1.19-.13.29l-.07.22.04.01c.06 0 .11-.02.13-.07l.06-.16a.77.77 0 0 1 .07-.16c.03-.05.07-.07.13-.07.05 0 .08.01.09.02l-.2.61-.2.6c-.06.2-.11.41-.15.62-.04.21-.06.42-.06.65zm0-1.83c.03 0 .04-.02.04-.05 0-.02-.01-.03-.04-.04-.03-.01-.04 0-.04.04s.01.05.04.05zm-.43-4.27l-.18.1a.8.8 0 0 0-.14.09.48.48 0 0 0-.12.08c-.07.04-.1.1-.1.17h.27v-.22l.12.02a.3.3 0 0 0 .08.02c.02.01.04 0 .06-.02.03-.02.06-.07.09-.14zm-.79 20.03c.05 0 .07-.03.07-.08 0-.06-.02-.09-.07-.09s-.07.03-.07.09c0 .05.02.08.07.08zm-.43-.07c.07 0 .13-.03.17-.1 0-.02-.02-.03-.04-.05l-.05-.03-.04-.01-.04.01zm-3.14.51c.04 0 .07-.03.07-.09 0-.05-.03-.08-.07-.08-.04 0-.07.03-.07.08 0 .06.03.09.07.09zM19.04 23c.05 0 .07-.03.07-.08 0-.06-.02-.09-.07-.09-.04 0-.07.03-.07.09 0 .05.03.08.07.08zm-.44.61c.01.03.02.04.05.04.02 0 .03-.01.05-.04 0-.03-.02-.05-.05-.05-.04 0-.05.02-.05.05zm-.08 1.04h.03l-.03.18c0 .02.01.03.03.05l.05.04.1-.18v.62c-.34 0-.6-.04-.78-.1a.87.87 0 0 1-.4-.29c-.1-.12-.17-.28-.23-.46-.06-.19-.14-.4-.25-.64l-.29-.59a4.4 4.4 0 0 0-.91-1.33.79.79 0 0 0-.54-.25c-.13 0-.21.03-.27.1a1 1 0 0 0-.12.23l-.1.26a.4.4 0 0 1-.21.19l-.08-.03-.1-.06a5.62 5.62 0 0 1-.69-.52.57.57 0 0 1-.12-.35.9.9 0 0 0-.06-.34.83.83 0 0 0-.22-.37l-.35-.33c-.12-.1-.24-.21-.34-.32a.8.8 0 0 1-.21-.38h-1.18v.35H9.29a7.48 7.48 0 0 1-.63-.25l-.24-.1-.17-.09-1.22-.52a.38.38 0 0 1-.13-.09 1.3 1.3 0 0 0-.11-.12l-.11-.1a.15.15 0 0 0-.11-.04c-.21 0-.41.02-.62.05-.2.03-.4.04-.6.04h-.16a.2.2 0 0 1-.1-.12.83.83 0 0 1-.05-.2L5 18.38a.34.34 0 0 0-.06-.16 7.26 7.26 0 0 0-1.03-.95 1.45 1.45 0 0 0-.37-.19 7.9 7.9 0 0 0-.5-.07L2.93 17c-.03-.01-.06-.05-.09-.13l-.07-.27-.09-.32a.82.82 0 0 0-.1-.25l-.22-.33-.2-.28a2.54 2.54 0 0 1-.16-.28.99.99 0 0 1-.11-.33v-.04c0-.05.01-.09.04-.1.03-.02.05-.06.05-.12 0-.03-.02-.06-.05-.09l-.11-.11a1.2 1.2 0 0 1-.11-.12.21.21 0 0 1-.08-.11l-.36-.91a2.9 2.9 0 0 0-.51-.83c-.02-.22-.05-.4-.09-.56l-.16-.45-.14-.39a1.25 1.25 0 0 1-.06-.4c0-.19.01-.38.05-.56.03-.19.05-.37.05-.56 0-.13-.01-.27-.04-.4l-.09-.4-.1-.39c-.02-.13-.04-.26-.04-.38v-.04A14.98 14.98 0 0 0 .5 4.53L.47 3.26a4.76 4.76 0 0 0-.26-1.3l-.06-.12a.37.37 0 0 1-.06-.1.17.17 0 0 1-.03-.07l-.02-.11-.02-.16-.01-.17-.01-.1c.1 0 .19.01.28.04l.28.08c.11.04.22.06.34.09.12.02.25.03.4.03 0-.1-.01-.17-.03-.2a.13.13 0 0 0-.07-.06.49.49 0 0 1-.07-.03c-.02-.01-.03-.05-.03-.11s.01-.12.05-.17a.68.68 0 0 1 .12-.12.58.58 0 0 0 .11-.15c.04-.05.05-.12.05-.21H20a.48.48 0 0 1 .01-.25c.03-.05.08-.07.15-.07.07 0 .12.02.16.06.03.03.05.08.06.13l.02.18.04.16c.01.07.05.12.1.14.05.03.12.04.18.06l.19.05c.06.02.11.05.13.1l.22-.05.22-.03h.04c.11 0 .2.03.3.11l.27.24.26.24a.4.4 0 0 0 .26.11l.06-.03.11-.06a.3.3 0 0 1 .11-.06l.07-.03a2.12 2.12 0 0 1 .51.12l.29.12c.09.05.15.08.16.11-.11.08-.25.18-.44.29l-.54.36c-.18.13-.33.26-.46.42a.73.73 0 0 0-.2.48.7.7 0 0 0 .34-.1c.11-.07.22-.11.34-.15h.01l.02-.01c0 .1.02.19.05.26.03.07.11.1.23.1.08 0 .21-.04.36-.13s.31-.19.47-.31c.15-.12.3-.23.43-.35l.26-.26h.29c0 .07-.02.13-.06.19l-.12.16-.13.16a.44.44 0 0 0-.07.19c.14-.03.24-.01.32.04.08.05.16.11.22.18l.22.21c.08.06.19.09.33.09a.7.7 0 0 0 .14-.03l.23-.08.25-.08.21-.06.17-.04.17-.05v.38h.53l.02.1.04.2.03.19-.01.04v.05h.36l-.1.17-.21-.05a.92.92 0 0 0-.22-.04l-.07.01h-.08c0 .12.05.21.13.28.09.07.19.13.3.19l.29.2c.09.06.13.16.13.28v.96l-.15.2-.09.17a.64.64 0 0 0-.06.18l-.02.23h.05l.45-.44.07-.01.11.01c.03.01.06.04.07.1a3.13 3.13 0 0 1 .09.81v.28c0 .14-.02.27-.08.38-.05.12-.11.23-.18.34l-.19.32a.82.82 0 0 0-.08.35c0 .04.03.08.08.13l.17.13c.07.04.13.08.2.1l.16.04c.07 0 .17-.03.29-.08.13-.04.26-.11.41-.19a11.32 11.32 0 0 0 1.26-.83l.23-.22c.07-.1.11-.2.12-.3l.02-.29a.35.35 0 0 1 .1-.21c.06-.05.18-.08.36-.08l.1.01h.08l.06.02.11.03.1.02.07.01c.24 0 .41-.02.51-.07a.33.33 0 0 0 .18-.19.87.87 0 0 0 .04-.3c0-.11.02-.24.06-.39.01-.03.06-.11.16-.23l.32-.37a54 54 0 0 0 .31-.34c.1-.1.15-.15.17-.15h2.26c.02-.13.06-.22.1-.26.05-.04.1-.06.16-.07h.15c.05 0 .09-.02.11-.06.13-.21.24-.42.31-.64l.22-.66c.06-.23.14-.45.23-.68.09-.22.22-.43.38-.64a.6.6 0 0 1 .11.12l.06.15.18-.05.17-.04h.04l.11.03.14.09.13.11c.04.05.05.08.05.12v1.74l.23.09v.45c.2 0 .28.14.26.42a.45.45 0 0 1-.22.29 7.28 7.28 0 0 1-.76.35c-.12.05-.17.09-.15.14l-.18-.17a1.4 1.4 0 0 1-.24.49c-.1.11-.25.21-.45.29v-.07c-.11 0-.2.08-.26.22-.07.15-.12.32-.17.51l-.13.54a.89.89 0 0 1-.14.37h.08l.05.1.08.16a.8.8 0 0 0 .08.16l.06.1c0 .02.01.03.03.05l.05.04c.03-.01.06-.03.07-.06a.17.17 0 0 0 .03-.1V8.8l-.01-.08c.09.07.15.16.17.26l.03.31a.78.78 0 0 0-.3.05c-.07.03-.1.11-.1.25h-.24v-.18l-.41.08a8.62 8.62 0 0 0-.95.25c-.14.06-.24.12-.29.2h.09l.09.01c.11 0 .2-.01.26-.03a.7.7 0 0 0 .26-.16v.1h.26v.08l-.17.11-.14.08-.12.07c-.16.09-.3.16-.43.21l-.44.14a2.41 2.41 0 0 1-.08.39l-.06.24-.04.15-.11.2-.2.32-.2.33c-.06.1-.1.17-.1.2l-.02.1-.03.2-.02.2-.02.11a1.8 1.8 0 0 1-.27.62 4 4 0 0 0-.34.6v-.35l.01-.09.04-.13.03-.14.01-.08a.58.58 0 0 0-.07-.32c-.05-.08-.14-.12-.28-.12a.1.1 0 0 0-.05.01h-.04c.06.03.1.08.12.15l.06.2v.18l.01.29-.01.3v.18c.06-.01.13.06.2.2a3.79 3.79 0 0 1 .29 1.02l.05.35-.01.15-.01.12-.7.69a.75.75 0 0 0-.41.02c-.1.04-.17.1-.22.17a.87.87 0 0 0-.15.25c-.04.09-.1.18-.17.26-.11.1-.21.16-.29.17l-.22.05a.36.36 0 0 0-.18.13 1.3 1.3 0 0 0-.18.43 6.57 6.57 0 0 0-.99 1.04c-.15.2-.27.41-.36.63-.1.22-.15.45-.15.68 0 .37.05.73.14 1.09.09.35.19.71.31 1.06l.31 1.06c.1.36.14.73.14 1.1v.32l-.01.17v.15l-.01.1c-.04.02-.07.06-.1.13l-.11.24a.98.98 0 0 1-.18.25.49.49 0 0 1-.3.16l.33-.34c-.03.02-.08.02-.16.02-.09 0-.15 0-.17-.03-.02 0-.07-.07-.14-.21l-.23-.49-.29-.63-.28-.65-.2-.53a1 1 0 0 1-.08-.27l.01-.05a.69.69 0 0 1 .03-.08.69.69 0 0 1 .03-.08l.02-.05v-.7l-.08-.08-.14-.14-.14-.13a.28.28 0 0 1-.08-.09c-.04-.03-.06-.08-.08-.14l-.08-.18a.58.58 0 0 0-.11-.15.21.21 0 0 0-.16-.06.37.37 0 0 0-.21.06l-.2.12a.94.94 0 0 1-.22.12.48.48 0 0 1-.24.06c-.04 0-.07-.04-.11-.11a1.11 1.11 0 0 0-.16-.24 1.14 1.14 0 0 0-.25-.24.65.65 0 0 0-.39-.12l-.14.01-.16.04-.24.05-.23.05-.16.04v-.02l-.01-.02.01-.04a.38.38 0 0 1 .06-.05l.04-.05-.04-.08c-.02-.05-.04-.08-.06-.09l-.08.21h-.69l-.1.14h.13l-.02.13-.01.13-.03.07-.06.11a.4.4 0 0 0-.06.11l-.03.06c0 .02.01.04.04.07l.08.11.09.11.05.06.01.04-.01.04-.18.18c-.01-.09-.06-.17-.15-.25-.09-.07-.17-.11-.24-.11l-.04.01a.3.3 0 0 0-.05.09l-.04.08-.11.01h-.1a.75.75 0 0 1-.33-.06.8.8 0 0 1-.21-.15l-.2-.2a1.18 1.18 0 0 0-.27-.2l-.08.17-.07.01H22a.54.54 0 0 1-.19-.03 3.25 3.25 0 0 1-.17-.06l-.16-.06a.47.47 0 0 0-.17-.03c-.18 0-.39.06-.63.19a6.68 6.68 0 0 0-1.81 1.55 4.48 4.48 0 0 0-.21.7l-.1.43v.02l-.04-.02c-.03-.02-.05 0-.05.04 0 .03.02.05.05.04zm.04-.04v-.02a3.8 3.8 0 0 1 0 .02zm-.09-.47l.02.06c.01.02.02.03.03.02.03-.01.04-.04.04-.08 0-.05-.01-.08-.04-.1-.01 0-.02 0-.03.03a.14.14 0 0 0-.02.07zM1.71 13.69c.05 0 .07-.03.07-.1 0-.05-.02-.08-.07-.08s-.07.03-.07.08c0 .07.02.1.07.1zM1.62 2.45c.03-.01.05-.02.05-.04 0-.03-.01-.04-.04-.04-.04-.02-.05 0-.05.04 0 .03.01.05.04.04zm.01 10.8c.04 0 .06-.03.06-.09s-.02-.09-.06-.09c-.05 0-.07.03-.07.09s.02.09.07.09zm0-11.67c.04 0 .06-.03.06-.08 0-.07-.02-.1-.06-.1h-.02c0 .05-.02.09-.05.1 0 .05.02.08.07.08zm-.09.61c.04 0 .07-.03.07-.09 0-.05-.03-.08-.07-.08-.05 0-.08.03-.08.08 0 .06.03.09.08.09zm0-.69h.02c0-.06.02-.1.05-.1 0-.05-.03-.08-.07-.08-.05 0-.08.03-.08.08 0 .06.03.1.08.1zM1.45.88h.09L1.45.8zm-.17 1.31c.04 0 .06-.03.06-.09 0-.05-.02-.08-.06-.08-.05 0-.07.03-.07.08 0 .06.02.09.07.09zm-.09.26c.05 0 .07-.03.07-.08 0-.06-.02-.1-.07-.1s-.07.04-.07.1c0 .05.02.08.07.08zM.76 3.93c.04 0 .06-.03.06-.09 0-.05-.02-.08-.06-.08-.05 0-.07.03-.07.08 0 .06.02.09.07.09zm-.18-.44c.04 0 .07-.02.07-.08s-.03-.09-.07-.09c-.04 0-.07.03-.07.09s.03.08.07.08z"/></svg>