<svg id="SvgjsSvg1008" xmlns="http://www.w3.org/2000/svg" version="1.1" xmlns:xlink="http://www.w3.org/1999/xlink" xmlns:svgjs="http://svgjs.com/svgjs" width="18" height="25" viewBox="0 0 18 25"><title>Shape</title><desc>Created with Avocode.</desc><defs id="SvgjsDefs1009"></defs><path id="SvgjsPath1010" d="M778.71 30.44V22.810000000000002C778.71 20.650000000000002 777.0500000000001 19.000000000000004 774.89 19.000000000000004C772.73 19.000000000000004 771.08 20.650000000000002 771.08 22.810000000000002V30.44C771.08 32.6 772.73 34.25 774.89 34.25C777.05 34.25 778.71 32.6 778.71 30.44ZM781.63 30.44H783.79C783.79 34.760000000000005 780.36 38.31 776.17 38.95V43.14H773.62V38.95C769.43 38.31 766 34.760000000000005 766 30.440000000000005H768.16C768.16 34.25000000000001 771.3399999999999 36.92 774.89 36.92C778.4499999999999 36.92 781.63 34.25 781.63 30.44Z " fill="#3f4c5e" fill-opacity="1" transform="matrix(1,0,0,1,-766,-19)"></path></svg>