<svg xmlns="http://www.w3.org/2000/svg" xmlns:xlink="http://www.w3.org/1999/xlink" width="199" height="272" viewBox="0 0 199 272"><defs><path id="a" d="M215.45 346.29c7.39-3.41 14.76-6.86 22.15-10.25 3.55-1.63 6.28-4.01 8.02-7.56 1.6-3.26 3.34-6.45 5.1-9.62.83-1.49 1.14-3 1.08-4.68-.21-5.63-.38-11.26-.52-16.89-.06-2.24-.01-4.49-.01-6.75-4.04-3.65-7.16-7.98-11.99-10.67l-13.72 1.53c-.75.08-1.49.21-2.23.29-3.86.39-7.71 1.03-11.57 1.09-4.77.07-8.65-4.1-8.69-8.88-.02-3.63-.02-7.27.08-10.9.12-4.66 1.49-8.83 4.98-11.95 6.46 0 12.72-.03 18.98.02.85.01 1.9.1 2.51.59 2.63 2.08 5.53 4.04 5.42 8.03-.02.81.25 1.64.44 2.79l16.19-1.28v-13.75c-2.6-2.71-4.97-5.11-7.26-7.59-2.02-2.19-4.43-2.87-7.39-2.86-12.27.03-24.53-.14-37.18-.24a77.82 77.82 0 0 0-12.05 15.29 8.01 8.01 0 0 0-.96 3.92c-.05 10.28.03 20.55.03 30.83 0 1.61.52 2.93 1.64 4.05 2.58 2.56 5.1 5.18 7.73 7.68.88.83 2.02 1.38 2.79 1.89l10.09-1.04c5.47-.59 10.93-1.34 16.41-1.76 4.68-.35 7.68 1.81 8.76 6.42.59 2.51.61 5.21.55 7.81-.12 4.91-2.34 8.73-6.89 10.76a261.24 261.24 0 0 1-16.99 6.99c-4.23 1.54-7.99-.57-9.52-4.82-.46-1.27-.76-2.61-1.22-4.25a600.6 600.6 0 0 1-13.25 1.48v24.46l9.84 7.88c1.51-.53 2.94-.94 4.28-1.54 4.81-2.14 9.59-4.32 14.37-6.52zm-53.66-88.76c.01-2.09.52-4.18.78-6.14a959.3 959.3 0 0 0 4.01-2.29c.67-3.93.67-7.82-.27-11.86h-26.15c.46 4.25-.69 8.35.89 12.17l3.61 2.54c-.18 9.24 1.91 18.44-.51 27.77h-24.9c-.17-1.24-.46-2.32-.44-3.4.16-6.51.5-13.01.54-19.52.01-3.24.69-5.92 3.84-7.42l.76-12.11H97.6v11.97l4.05 2.11c.1.73.23 1.22.23 1.71v61.29c0 .5-.1.99-.17 1.49-.01.11-.09.22-.16.32s-.18.18-.47.46l-4.32.39v13.44c3.78 2.77 22.83 11.4 26.79 12.01.64-4.89.78-9.79 1.08-14.62-.88-.45-1.4-.86-1.99-1-3.14-.74-4.05-2.75-3.97-5.83.19-6.77.1-13.54.16-20.3.01-1.2.24-2.39.35-3.46 5.95-.88 22.93-.67 25.37.24.6 5.79.21 32.49-.58 35.37h-4.43c.05 6.02-.49 11.89.86 17.81 2.32 2.16 5.33 3.12 8.16 4.42 2.85 1.3 5.59 2.86 8.52 3.93 2.84 1.04 5.27 3.36 8.72 3.08 1.65-6.59.8-13.06 1.02-19.38l-5.06-2.96c-.09-.92-.19-1.54-.19-2.15.05-26.7.1-53.39.22-80.08zm37.19-77.26c2.69.66-1.33 3.98-2.23 7.93-.72 3.16-1.21 12.39-1.82 15.58-.06.33-.15.66-.26.99-.89 2.61-2.57 2.75-3.79.27a8.22 8.22 0 0 1-.56-1.26c-.62-2.57-.81-13.41-1.01-16.07-.32-4.02-4.45-6.53-2.12-7.44 2.08-.81 8.51-.8 11.79 0zm-6.92-28.14c3.22 4.36 6.6 8.63 8.48 13.85.3.8.45 1.68.53 2.54.44 4.79-1.45 7.81-6.14 8.71-8.34 1.6-10.76-1.35-9.91-8.7.27-2.37 1-4.73 2.83-6.37 2.36-2.1 3.19-4.65 3.09-7.67-.02-.72.2-1.44.3-2.16l.82-.2zm43.7 41.38c.32-6.33-.33-12.38 0-18.75-3.77 0-6.03-.1-9.37.05a5.4 5.4 0 0 0-3.98 1.83c-.63.71-1.59 1.48-2.46 1.55-3.7.3-12.22-.22-12.22-.22v-24.51s13.43.04 19.54 0c4.32-.02 8.55-.69 11.68 2.65h12.07c-.27-6.35.26-12.27 0-18.56-13.67 0-27.71-.11-40.98.03-13.35.15-26.7-1.04-40.19-.32-.42 3.66-.66 6.97-.2 10.41l4.58 1.4c.23 1.49 0 4.35 0 4.35v30.62s.21 2.26-.31 3.98c-2.81-2.49-4.52-5.25-6.33-7.9-8.04-11.8-16.01-23.65-24.04-35.46-1.6-2.37-3.36-4.63-4.84-6.65-6.03-.85-37-.58-39.9.32l-.73 9.11c2.14.56 1.99 1.02 3.8 1.49.09 1.18.01 2.04 0 2.89-.24 18.29 0 54.86 0 54.86v3.54c-4.67 2.22-4.21 11.95-4.21 11.95h43.91s.17-9.16-5.39-11.95v-35.47h.01a2.65 2.65 0 0 1 3.97.16c.64.81 1.14 1.69 1.7 2.51 9.36 13.78 18.68 27.59 28.03 41.38.83 1.22 1.78 2.36 2.64 3.5 12.78 0 25.3.01 37.82-.02.45 0 .9-.31 1.28-.46 0-11.56-3.91-13.01-3.91-13.01v-18.09s5.27-.48 7.35-.71c3.56-.41 6.7.29 9.06 3.24.14.18.44.23.51.26zm-38.88 166.13c-5.56-4.11-14.72-12.48-14.72-12.48v-29.52l22.51-3.09s-.08 8.99 3.44 11.57c1.2-.44 2.6-.89 3.97-1.44 2.9-1.17 5.78-2.39 8.67-3.59.46-.19.94-.35 1.39-.58 8.78-4.51 8.12-6.29 7.69-15.43-.04-.79-.71-1.55-1.14-2.44-3.67-.83-7.27-.22-10.85.17-5.47.59-10.92 1.31-16.38 1.98a8.4 8.4 0 0 1-7.46-2.64c-3.14-3.23-6.48-6.27-9.74-9.38-1.41-1.36-2.31-2.9-2.3-4.95.03-12.15.01-24.3.01-36.68l14.48-18.76c1.23-.07 2.46-.19 3.69-.2l32.34-.07c.25 0 .5.03.75.01 6.27-.45 11.49 1.59 15.77 6.29 2.26 2.49 4.89 4.65 7.47 7.07v19.13c-.94.35-1.71.8-2.53.93-4.97.79-19.86 1.36-22.38.81l-1.91-8.93c-1.62-1.4-3.22-1.59-4.87-1.59-3.88.01-7.77-.03-11.65.04-3.56.06-5.1 1.52-5.18 4.99-.08 3.75-.11 7.52.05 11.27.09 2.09.27 4.31 2.49 5.67 5.33.63 10.63-.35 15.96-.96 4.22-.48 8.46-.81 12.69-1.2a4.49 4.49 0 0 1 3.8 1.24c4.29 4.38 8.54 8.8 13.02 13.42 0 .02.11.39.12.76l.43 21.78c.07 3.58-.62 6.92-2.53 10.03-1.77 2.88-3.33 5.89-4.9 8.88a16.07 16.07 0 0 1-7.73 7.36c-11.03 5.08-22.01 10.25-33.02 15.36-3.73 1.74-7.51 3.4-11.45 5.17zm-25.72-126.41c.82 2.72.46 5.35.39 7.95-.08 3-.35 5.99-.48 8.99-.12 2.55-.66 4.76-3.64 5.19-1.69 26.61-.69 53.04-1 79.46-.01.74.12 1.48.2 2.34l5.16 2.88c0 3.18.23 26.34-2.26 29.48-1.8-.71-3.56-1.29-5.22-2.08-8.37-3.96-16.67-8.07-25.1-11.92-3.29-1.51-4.78-3.75-4.7-7.3.11-4.64-.11-9.27 0-13.91.05-2.23.33-4.5 1.86-6.62l3.27-.5v-26.17c-5.23-.1-10.31-.07-15.35-.06-.73 2.78-.87 16.87-.25 21.52l4.12 1.87c3.55 1.23 1.07 21.06-.41 24.67-.98-.25-2.07-.39-3.03-.81-6.09-2.64-12.16-5.3-18.2-8.02-3.77-1.7-7.46-3.56-11.22-5.26-1.88-.85-3.12-2.15-3.29-4.21-.54-6.35-.38-12.71-.25-19.31l4.83-.41c.17-.64.51-1.33.51-2.02-.02-17.67-.07-35.33-.12-53 0-.36-.16-.71-.3-1.27-1.17-.17-4.62-.51-4.62-.51v-20.82s30.93-.92 35.84-.27c1.06 2.7 1.08 12.38 0 21.09l-3.7 1.17c-.63 2.61-.77 16.14-.15 20.19 1.05.07 2.14.18 3.24.19 3.99.02 7.98.01 11.94.01.7-2.84.87-13.56.31-19.4-3.89-2.1-4.08-6-4.11-9.94-.02-3.25 0-6.51.05-9.77.02-1.1.18-2.19.27-3.19 2.92-.78 30.37-.95 35.41-.23zm70.58-33.96s-15.47.33-22.89-.86c-1.61-.51-3.96-2.51-3.96-2.51v10.04l4.29 2.17v20.02h-49.41l-28.02-40.4v17.69l6.64.81v21.9H92.06v-22.1l5.4-.54v-51.04c-1.24-.44-5.4-1.55-5.4-1.55v-21.55h48.85s4.51 7.01 6.8 10.43c2.29 3.44 4.57 6.89 6.87 10.33 2.23 3.32 4.38 6.71 6.75 9.94 2.4 3.26 8.47 10.54 8.47 10.54v-17.87l-5.17-1.48c-.25-1-.71-2.03-.76-3.09-.26-5.5-.43-11-.6-16.51-.01-.59.18-1.19.23-1.51.32-.34.39-.45.49-.51.1-.07.22-.14.35-.15.74-.07 1.48-.18 2.23-.18l88.35.16c.36 0 1.94.36 1.94.36v29.2s-1.03.7-1.35.69c-6.5-.15-13-.35-19.5-.49a7.38 7.38 0 0 1-4.47-1.65c-.87-.64-2-1.27-3.03-1.3-4.73-.14-13.62-.06-13.62-.06v14.5s1.26-.09 1.45-.3c2.08-2.45 4.84-2.84 7.81-2.8 4.51.05 9.02-.01 13.54.01.85.01 4.05.32 4.05.32zM85.67 127.51v207.7s78.88 36.86 83.69 39.28c2.72 1.38 5.2 1.31 7.89.09 6.71-3.07 84.89-39.29 84.89-39.29V127.51zm182.22 211.43s-84.81 39.85-89.13 41.85a9.3 9.3 0 0 1-8.57-.02l-89.97-42.58V121.23h187.67zM273.55 117H75v223.96l8.72 4.43c14.49 7.4 29.54 13.61 44.14 20.8 12.69 6.24 25.65 11.92 38.5 17.83 3.06 1.41 6.16 2.73 9.24 4.08 1.07-.41 2.02-.7 2.92-1.12 15.92-7.34 31.82-14.69 47.73-22.04 12.28-5.67 24.57-11.31 36.83-17.01 3.28-1.53 10.47-4.93 10.47-4.93z"/><linearGradient id="b" x1="122.68" x2="122.68" y1="145.04" y2="432.33" gradientUnits="userSpaceOnUse"><stop offset="0" stop-color="#556278"/><stop offset=".5" stop-color="#14171c" stop-opacity=".24"/><stop offset="1" stop-opacity="0"/></linearGradient></defs><g opacity=".32" transform="translate(-75 -117)"><use fill="url(#b)" xlink:href="#a"/></g></svg>