<?xml version="1.0" encoding="UTF-8"?>
<svg width="12px" height="16px" viewBox="0 0 12 16" version="1.1" xmlns="http://www.w3.org/2000/svg" xmlns:xlink="http://www.w3.org/1999/xlink">
    <!-- Generator: Sketch 44.1 (41455) - http://www.bohemiancoding.com/sketch -->
    <title>pin</title>
    <desc>Created with Sketch.</desc>
    <defs></defs>
    <g id="Page-1" stroke="none" stroke-width="1" fill="none" fill-rule="evenodd">
        <g id="pin" fill-rule="nonzero" fill="#3F4C5E">
            <path d="M11.9044947,4.28023068 C11.4840928,1.23820324 8.45263556,-0.310707525 5.21819292,0.0519698208 C2.66103281,0.338662148 0.111562975,2.40614455 0.00573461207,5.36253456 C-0.0587308114,7.16734489 0.453099966,8.52096054 2.17037403,8.90196164 C2.91405247,7.58587961 1.93083609,7.29820622 1.77690392,6.34480153 C1.14674412,2.4484569 6.27163452,-0.212601087 8.955795,2.51004243 C10.8145006,4.3956798 9.58978411,10.1930424 6.59586047,9.589846 C3.72795614,9.01453087 8.00045983,4.39954076 5.71173159,3.49423988 C3.85109554,2.7573023 2.86306877,5.74546614 3.74526717,7.23089254 C3.2276766,9.78517275 2.11363053,12.1902995 2.5648252,15.393 C4.02714912,14.3308871 4.5206878,12.2999889 4.92475973,10.1805733 C5.65976683,10.6279387 6.05326858,11.0906846 6.99031165,11.1628403 C10.4460318,11.4312089 12.3787919,7.71284833 11.9044947,4.28023068 Z" id="Shape"></path>
        </g>
    </g>
</svg>