<svg xmlns="http://www.w3.org/2000/svg" xmlns:xlink="http://www.w3.org/1999/xlink" width="558" height="10" viewBox="0 0 558 10"><defs><path id="a" d="M342.84 837h10.39l-6.83 15.7H336zm18.27 0h10.4l-6.83 15.7h-10.4zm18.28 0h10.4l-6.84 15.7h-10.4zm18.27 0h10.4l-6.83 15.7h-10.4zm18.28 0h10.4l-6.84 15.7h-10.4zm18.28 0h10.39l-6.83 15.7h-10.4zm18.27 0h10.4l-6.83 15.7h-10.4zm18.28 0h10.4l-6.84 15.7h-10.4zm18.27 0h10.4l-6.83 15.7h-10.4zm18.28 0h10.4l-6.84 15.7h-10.4zm18.28 0h10.39l-6.83 15.7h-10.4zm18.27 0h10.4l-6.84 15.7h-10.39zm18.28 0h10.4l-6.84 15.7h-10.4zm18.27 0h10.4l-6.83 15.7h-10.4zm18.28 0h10.4l-6.84 15.7h-10.4zm18.27 0h10.4l-6.83 15.7h-10.4zm18.28 0h10.4l-6.84 15.7h-10.39zm18.28 0h10.4l-6.84 15.7h-10.4zm18.27 0h10.4l-6.83 15.7h-10.4zm18.28 0h10.4l-6.84 15.7h-10.4zm18.27 0h10.4l-6.83 15.7h-10.4zm18.28 0h10.4l-6.84 15.7H719.8zm18.28 0h10.4l-6.84 15.7h-10.4zm18.27 0h10.4l-6.83 15.7h-10.4zm18.28 0h10.4l-6.84 15.7h-10.4zm18.27 0h10.4l-6.83 15.7h-10.4zm18.28 0h10.4l-6.84 15.7h-10.4zm18.28 0h10.4l-6.84 15.7h-10.4zm18.27 0h10.4l-6.83 15.7h-10.4zm18.28 0h10.4l-6.84 15.7H866zm18.27 0h10.4l-6.83 15.7h-10.4z"/></defs><desc>Generated with Avocode.</desc><g transform="translate(-338 -839)"><use fill="#fff" fill-opacity=".14" xlink:href="#a"/></g></svg>