<svg xmlns="http://www.w3.org/2000/svg" xmlns:xlink="http://www.w3.org/1999/xlink" width="28" height="28" viewBox="0 0 28 28"><defs><path id="1woza" d="M162 1599c1.94 0 3.75.37 5.46 1.1a14.15 14.15 0 0 1 7.44 7.44c.73 1.7 1.1 3.52 1.1 5.46s-.37 3.75-1.1 5.46a14.15 14.15 0 0 1-7.44 7.44 13.61 13.61 0 0 1-7.5.95c-.66-.1-1.3-.24-1.92-.42.26-.43.52-.9.79-1.41.26-.51.46-1.04.6-1.59l.18-.72.3-1.17c.12-.5.3-1.14.52-1.95.24.47.68.87 1.31 1.21.64.34 1.34.52 2.1.52 1.13 0 2.16-.25 3.09-.73a7.24 7.24 0 0 0 2.39-2.01 9.49 9.49 0 0 0 1.54-3.04c.36-1.17.54-2.44.54-3.81a7.4 7.4 0 0 0-.63-3 8.07 8.07 0 0 0-4.58-4.35 9.65 9.65 0 0 0-3.65-.66c-1.67 0-3.13.26-4.38.8a9.5 9.5 0 0 0-3.11 2.07 8.76 8.76 0 0 0-2.51 5.87c0 1.2.23 2.3.7 3.28a4.02 4.02 0 0 0 2.17 2.07c.16.06.3.06.44 0 .13-.06.21-.18.25-.37.04-.12.09-.3.14-.54l.14-.57c.04-.19.05-.32.03-.41-.02-.1-.1-.22-.22-.38a4.3 4.3 0 0 1-.68-1.16 4.33 4.33 0 0 1-.25-1.6 6.78 6.78 0 0 1 1.86-4.66c.6-.62 1.31-1.1 2.16-1.47.85-.36 1.8-.54 2.87-.54.93 0 1.76.13 2.48.4.73.28 1.34.65 1.85 1.12.5.48.88 1.04 1.13 1.7.25.65.38 1.36.38 2.13 0 1-.1 1.96-.32 2.87-.21.9-.51 1.7-.9 2.37a5.1 5.1 0 0 1-1.41 1.6c-.55.4-1.15.6-1.82.6-.36 0-.7-.07-1.01-.22a2.12 2.12 0 0 1-1.2-2.47c.1-.45.23-.9.37-1.35l.4-1.32c.14-.42.25-.83.34-1.22.09-.4.13-.75.13-1.07 0-.59-.15-1.09-.46-1.5-.32-.41-.8-.62-1.44-.62-.36 0-.71.09-1.04.27a2.6 2.6 0 0 0-.87.77 4.66 4.66 0 0 0-.73 3.37l.15.71c.05.26.13.5.25.72-.4 1.63-.71 2.94-.94 3.94-.22 1-.4 1.77-.54 2.31l-.33 1.4c-.12.52-.2 1.06-.23 1.63a16.6 16.6 0 0 0-.01 1.57 14.05 14.05 0 0 1-7.28-18.28 14.15 14.15 0 0 1 7.44-7.44c1.7-.73 3.52-1.1 5.46-1.1z"/></defs><g><g opacity=".4" transform="translate(-148 -1599)"><use fill="#cf0009" xlink:href="#1woza"/></g></g></svg>