<svg xmlns="http://www.w3.org/2000/svg" xmlns:xlink="http://www.w3.org/1999/xlink" width="20" height="17" viewBox="0 0 20 17"><defs><path id="zbqga" d="M1208 583a1 1 0 0 1 1-1h16a1 1 0 0 1 0 2h-16a1 1 0 0 1-1-1z"/><path id="zbqgb" d="M1213 578a1 1 0 0 1 2 0v11a1 1 0 0 1-2 0z"/><path id="zbqgc" d="M1219 578a1 1 0 0 1 2 0v11a1 1 0 0 1-2 0z"/><path id="zbqgd" d="M1207 574a1 1 0 0 1 1-1h18a1 1 0 0 1 1 1v15a1 1 0 0 1-1 1h-18a1 1 0 0 1-1-1z"/><path id="zbqge" d="M1207 575a1 1 0 0 1 1-1h18a1 1 0 0 1 1 1v2a1 1 0 0 1-1 1h-18a1 1 0 0 1-1-1z"/><clipPath id="zbqgf"><use fill="#fff" xlink:href="#zbqga"/></clipPath><clipPath id="zbqgg"><use fill="#fff" xlink:href="#zbqgb"/></clipPath><clipPath id="zbqgh"><use fill="#fff" xlink:href="#zbqgc"/></clipPath><clipPath id="zbqgi"><use fill="#fff" xlink:href="#zbqgd"/></clipPath><clipPath id="zbqgj"><use fill="#fff" xlink:href="#zbqge"/></clipPath></defs><g><g transform="translate(-1207 -573)"><use fill="#fff" fill-opacity="0" stroke="#3f4c5e" stroke-miterlimit="50" stroke-width="2" clip-path="url(&quot;#zbqgf&quot;)" xlink:href="#zbqga"/></g><g transform="translate(-1207 -573)"><use fill="#fff" fill-opacity="0" stroke="#3f4c5e" stroke-miterlimit="50" stroke-width="2" clip-path="url(&quot;#zbqgg&quot;)" xlink:href="#zbqgb"/></g><g transform="translate(-1207 -573)"><use fill="#fff" fill-opacity="0" stroke="#3f4c5e" stroke-miterlimit="50" stroke-width="2" clip-path="url(&quot;#zbqgh&quot;)" xlink:href="#zbqgc"/></g><g transform="translate(-1207 -573)"><use fill="#fff" fill-opacity="0" stroke="#3f4c5e" stroke-miterlimit="50" stroke-width="4" clip-path="url(&quot;#zbqgi&quot;)" xlink:href="#zbqgd"/></g><g transform="translate(-1207 -573)"><use fill="#fff" fill-opacity="0" stroke="#3f4c5e" stroke-miterlimit="50" stroke-width="4" clip-path="url(&quot;#zbqgj&quot;)" xlink:href="#zbqge"/></g></g></svg>