<?xml version="1.0" encoding="UTF-8"?>
<svg width="18px" height="20px" viewBox="0 0 18 20" version="1.1" xmlns="http://www.w3.org/2000/svg" xmlns:xlink="http://www.w3.org/1999/xlink">
    <!-- Generator: Sketch 46.1 (44463) - http://www.bohemiancoding.com/sketch -->
    <title>Scrap Book Inactive</title>
    <desc>Created with Sketch.</desc>
    <defs></defs>
    <g id="Page-1" stroke="none" stroke-width="1" fill="none" fill-rule="evenodd">
        <g id="icons" transform="translate(-250.000000, -1470.000000)" fill-rule="nonzero" fill="#B2B7BF">
            <g id="Search-Results" transform="translate(110.000000, 1261.000000)">
                <g id="Favorites" transform="translate(110.000000, 209.000000)">
                    <g id="Scrap-Book-Inactive" transform="translate(30.000000, 0.000000)">
                        <path d="M1,1 L1,16 L15,16 L15,1 L1,1 Z M1,0 L15,0 C15.5522847,-1.01453063e-16 16,0.44771525 16,1 L16,16 C16,16.5522847 15.5522847,17 15,17 L1,17 C0.44771525,17 0,16.5522847 0,16 L0,1 C0,0.44771525 0.44771525,1.01453063e-16 1,0 Z" id="Rectangle-24"></path>
                        <path d="M3.59413682,7.33152922 L3.62234334,7.32818771 C3.61301984,7.32959604 3.60361402,7.33071266 3.59413682,7.33152922 Z M8.97819277,6.92536117 L8.74936755,6.39822841 L7.99994977,4.67182667 L7.02185253,6.92535687 L6.45116257,6.99306827 L4.5514471,7.21812032 L6.43088787,8.99478057 L6.31031811,9.54675596 L5.88432577,11.4951286 L8.0000644,10.1477819 L8.53721614,10.4898565 L10.1153259,11.4955633 L9.56923164,8.99478465 L9.97973728,8.60669017 L11.4491027,7.21853045 L8.97819277,6.92536117 Z M12.9644991,6.69357524 C13.0399256,6.89437456 12.9929936,7.12061368 12.8443383,7.2746306 L10.66673,9.33335444 L11.3247094,12.346499 C11.3626648,12.5591429 11.2742761,12.7745431 11.0973871,12.8987995 C11.0018842,12.9661051 10.8901413,13 10.7778397,13 C10.6823368,13 10.5869084,12.9756031 10.5009036,12.9259527 L8.0000604,11.3333395 L5.49917998,12.9259527 C5.4132497,12.9756031 5.31774677,13 5.22224385,13 C5.10968151,13 4.99734265,12.9658071 4.90183973,12.8982781 C4.72502523,12.7734629 4.63682284,12.5572433 4.67559762,12.3445994 L5.33335353,9.33335444 L3.15671374,7.27574802 C3.00727624,7.12161936 2.96008349,6.89541748 3.03521197,6.69439468 C3.11004246,6.49340912 3.29430648,6.35365786 3.50829412,6.33522052 L6.33334067,6.00003352 L7.49025208,3.33451655 C7.57841722,3.13129616 7.77866048,3 8.00080535,3 C8.22242876,3.00029798 8.42256028,3.13241358 8.51027845,3.33611818 L9.66666839,6.00003352 L12.4917149,6.33522052 C12.7051439,6.35343437 12.8893706,6.49285041 12.9644991,6.69357524 Z" id="Cheerleaders"></path>
                        <path d="M18,3 L18,19 C18,19.5522847 17.5522847,20 17,20 L4,20 C1.790861,20 0,18.209139 0,16 L1,15.2777778 L1,16 C1,17.6568542 2.34314575,19 4,19 L17,19 L17,3.72222222 L18,3 Z M18,3 L18,19 C18,19.5522847 17.5522847,20 17,20 L4,20 C1.790861,20 0,18.209139 0,16 L1,15.2777778 L1,16 C1,17.6568542 2.34314575,19 4,19 L17,19 L17,3.72222222 L18,3 Z" id="Rectangle-25"></path>
                    </g>
                </g>
            </g>
        </g>
    </g>
</svg>