<?xml version="1.0" encoding="UTF-8"?>
<svg width="18px" height="20px" viewBox="0 0 18 20" version="1.1" xmlns="http://www.w3.org/2000/svg" xmlns:xlink="http://www.w3.org/1999/xlink">
    <!-- Generator: Sketch 46.1 (44463) - http://www.bohemiancoding.com/sketch -->
    <title>Scrap Book Active</title>
    <desc>Created with Sketch.</desc>
    <defs></defs>
    <g id="Page-1" stroke="none" stroke-width="1" fill="none" fill-rule="evenodd">
        <g id="icons" transform="translate(-150.000000, -1470.000000)" fill="#F5A623">
            <g id="Search-Results" transform="translate(110.000000, 1261.000000)">
                <g id="Favorites-Active" transform="translate(10.000000, 209.000000)">
                    <g id="Scrap-Book-Active" transform="translate(30.000000, 0.000000)">
                        <path d="M1,0 L15,0 C15.5522847,-1.01453063e-16 16,0.44771525 16,1 L16,16 C16,16.5522847 15.5522847,17 15,17 L1,17 C0.44771525,17 6.76353751e-17,16.5522847 0,16 L0,1 L0,1 C-6.76353751e-17,0.44771525 0.44771525,1.01453063e-16 1,0 L1,0 Z M11.9715993,6.95486019 C11.9114965,6.79428033 11.7641151,6.6827475 11.5933719,6.66817642 L9.33333471,6.40002682 L8.40822276,4.26889454 C8.33804822,4.10593086 8.17794301,4.00023838 8.00064428,4 C7.82292839,4 7.66273378,4.10503693 7.59220166,4.26761324 L6.66667254,6.40002682 L4.4066353,6.66817642 C4.23544519,6.68292628 4.08803396,6.7947273 4.02816957,6.95551574 C3.9680668,7.11633399 4.00582099,7.29729549 4.12537099,7.42059841 L5.86668282,9.06668355 L5.3404781,11.4756795 C5.30945827,11.6457946 5.38002018,11.8187703 5.52147178,11.9186225 C5.59787412,11.9726457 5.68774521,12 5.77779508,12 C5.85419742,12 5.93059976,11.9804825 5.99934399,11.9407622 L8.00004832,10.6666716 L10.0007229,11.9407622 C10.0695267,11.9804825 10.1458694,12 10.2222718,12 C10.3121131,12 10.4015074,11.9728841 10.4779097,11.9190396 C10.6194209,11.8196345 10.6901318,11.6473143 10.6597675,11.4771992 L10.133384,9.06668355 L11.8754706,7.41970448 C11.9943948,7.29649095 12.0319405,7.11549965 11.9715993,6.95486019 Z" id="Combined-Shape"></path>
                        <path d="M18,3 L18,19 C18,19.5522847 17.5522847,20 17,20 L4,20 C1.790861,20 0,18.209139 0,16 L1,15.2777778 L1,16 C1,17.6568542 2.34314575,19 4,19 L17,19 L17,3.72222222 L18,3 Z M18,3 L18,19 C18,19.5522847 17.5522847,20 17,20 L4,20 C1.790861,20 0,18.209139 0,16 L1,15.2777778 L1,16 C1,17.6568542 2.34314575,19 4,19 L17,19 L17,3.72222222 L18,3 Z" id="Rectangle-25" fill-rule="nonzero"></path>
                    </g>
                </g>
            </g>
        </g>
    </g>
</svg>