<svg id="SvgjsSvg1017" xmlns="http://www.w3.org/2000/svg" version="1.1" xmlns:xlink="http://www.w3.org/1999/xlink" xmlns:svgjs="http://svgjs.com/svgjs" width="25" height="25" viewBox="0 0 25 25"><title>Shape</title><desc>Created with Avocode.</desc><defs id="SvgjsDefs1018"></defs><path id="SvgjsPath1019" d="M18.2 16.79L16.88 15.469999999999999C18.2 13.829999999999998 19 11.759999999999998 19 9.5C19 4.26 14.74 0 9.5 0C4.26 0 0 4.26 0 9.5C0 14.74 4.26 19 9.5 19C11.76 19 13.84 18.2 15.469999999999999 16.88L16.79 18.21L16.439999999999998 18.560000000000002L22.439999999999998 24.560000000000002L24.56 22.44L18.56 16.44ZM3 9.5C3 5.92 5.92 3 9.5 3C13.09 3 16 5.92 16 9.5C16 13.08 13.08 16 9.5 16C5.92 16 3 13.08 3 9.5Z " fill="#404040" fill-opacity="1" transform="matrix(1,0,0,1,0,0)"></path></svg>