<svg id="SvgjsSvg1014" xmlns="http://www.w3.org/2000/svg" version="1.1" xmlns:xlink="http://www.w3.org/1999/xlink" xmlns:svgjs="http://svgjs.com/svgjs" width="23" height="23" viewBox="0 0 23 23"><title>Search</title><desc>Created with Avocode.</desc><defs id="SvgjsDefs1015"></defs><path id="SvgjsPath1016" d="M19 9.5C19 4.26 14.74 0 9.5 0C4.26 0 0 4.26 0 9.5C0 14.74 4.26 19 9.5 19C11.76 19 13.83 18.2 15.469999999999999 16.88L21.5 22.5L22.91 21.09L16.88 15.469999999999999C18.2 13.829999999999998 19 11.759999999999998 19 9.5ZM2 9.5C2 5.36 5.37 2 9.5 2C13.64 2 17 5.359999999999999 17 9.5C17 13.64 13.64 17 9.5 17C5.37 17 2 13.64 2 9.5Z " fill="#3f4c5e" fill-opacity="1" transform="matrix(1,0,0,1,0,0)"></path></svg>