<?xml version="1.0" encoding="UTF-8"?>
<svg width="16px" height="16px" viewBox="0 0 16 16" version="1.1" xmlns="http://www.w3.org/2000/svg" xmlns:xlink="http://www.w3.org/1999/xlink">
    <!-- Generator: Sketch 43.1 (39012) - http://www.bohemiancoding.com/sketch -->
    <title>Icon-Share-Google</title>
    <desc>Created with Sketch.</desc>
    <defs></defs>
    <g id="Symbols" stroke="none" stroke-width="1" fill="none" fill-rule="evenodd">
        <g id="T-Player---Header-+-Nav---Gallery" transform="translate(-716.000000, -169.000000)" fill="#556278">
            <g id="Icon-Share-Google" transform="translate(716.000000, 169.000000)">
                <path d="M2.87346939,10.4816327 C1.43673469,10.4816327 0.293877551,9.33877551 0.293877551,7.90204082 C0.293877551,6.46530612 1.43673469,5.32244898 2.87346939,5.32244898 C4.31020408,5.32244898 5.45306122,6.46530612 5.45306122,7.90204082 C5.45306122,9.30612245 4.31020408,10.4816327 2.87346939,10.4816327 L2.87346939,10.4816327 Z M2.87346939,6.26938776 C1.99183673,6.26938776 1.27346939,6.9877551 1.27346939,7.86938776 C1.27346939,8.75102041 1.99183673,9.46938776 2.87346939,9.46938776 C3.75510204,9.46938776 4.47346939,8.75102041 4.47346939,7.86938776 C4.47346939,7.02040816 3.75510204,6.26938776 2.87346939,6.26938776 L2.87346939,6.26938776 Z" id="Fill-61"></path>
                <path d="M13.355102,5.2244898 C11.9183673,5.2244898 10.7755102,4.08163265 10.7755102,2.64489796 C10.7755102,1.20816327 11.9183673,0.0653061224 13.355102,0.0653061224 C14.7918367,0.0653061224 15.9346939,1.20816327 15.9346939,2.64489796 C15.9346939,4.08163265 14.7591837,5.2244898 13.355102,5.2244898 L13.355102,5.2244898 Z M13.355102,1.04489796 C12.4734694,1.04489796 11.755102,1.76326531 11.755102,2.64489796 C11.755102,3.52653061 12.4734694,4.24489796 13.355102,4.24489796 C14.2367347,4.24489796 14.955102,3.52653061 14.955102,2.64489796 C14.955102,1.76326531 14.2367347,1.04489796 13.355102,1.04489796 L13.355102,1.04489796 Z" id="Fill-62"></path>
                <path d="M13.355102,15.7061224 C11.9183673,15.7061224 10.7755102,14.5632653 10.7755102,13.1265306 C10.7755102,11.6897959 11.9183673,10.5469388 13.355102,10.5469388 C14.7918367,10.5469388 15.9346939,11.6897959 15.9346939,13.1265306 C15.9346939,14.5632653 14.7591837,15.7061224 13.355102,15.7061224 L13.355102,15.7061224 Z M13.355102,11.5265306 C12.4734694,11.5265306 11.755102,12.244898 11.755102,13.1265306 C11.755102,14.0081633 12.4734694,14.7265306 13.355102,14.7265306 C14.2367347,14.7265306 14.955102,14.0081633 14.955102,13.1265306 C14.955102,12.244898 14.2367347,11.5265306 13.355102,11.5265306 L13.355102,11.5265306 Z" id="Fill-63"></path>
                <polyline id="Fill-64" points="11.2326531 12.6693878 4.50612245 9.30612245 4.96326531 8.35918367 11.722449 11.722449 11.2326531 12.6693878"></polyline>
                <polyline id="Fill-65" points="4.96326531 7.4122449 4.50612245 6.49795918 11.2326531 3.13469388 11.722449 4.04897959 4.96326531 7.4122449"></polyline>
            </g>
        </g>
    </g>
</svg>