<svg xmlns="http://www.w3.org/2000/svg" xmlns:xlink="http://www.w3.org/1999/xlink" width="28" height="24" viewBox="0 0 28 24"><defs><path id="byuea" d="M162.6 1493.2l.06 1.02-1.02-.13a16.4 16.4 0 0 1-9.63-4.78l-1.33-1.33-.34.98a5.98 5.98 0 0 0 1.25 6.1c.8.87.63.99-.77.47-.48-.16-.91-.28-.95-.22-.14.14.34 2.02.73 2.76a6.56 6.56 0 0 0 2.77 2.63l1 .48-1.18.02c-1.14 0-1.18.02-1.05.45.4 1.34 2 2.76 3.78 3.38l1.25.43-1.09.66a11.32 11.32 0 0 1-5.42 1.53c-.91.02-1.66.1-1.66.16 0 .2 2.47 1.36 3.9 1.81 4.31 1.34 9.43.76 13.28-1.52a17.87 17.87 0 0 0 6.73-8 21.4 21.4 0 0 0 1.38-6.17c0-.95.06-1.07 1.2-2.2.66-.67 1.29-1.39 1.4-1.6.21-.38.2-.38-.84-.03-1.72.61-1.96.53-1.11-.4.62-.65 1.37-1.85 1.37-2.2 0-.06-.3.04-.64.23-.37.2-1.18.51-1.79.7l-1.09.35-.99-.68a8.21 8.21 0 0 0-1.72-.9 6.86 6.86 0 0 0-3.54.08 5.9 5.9 0 0 0-3.94 5.93z"/></defs><g><g opacity=".4" transform="translate(-149 -1487)"><use fill="#00aced" xlink:href="#byuea"/></g></g></svg>