<svg id="SvgjsSvg1080" xmlns="http://www.w3.org/2000/svg" version="1.1" xmlns:xlink="http://www.w3.org/1999/xlink" xmlns:svgjs="http://svgjs.com/svgjs" width="11" height="10" viewBox="0 0 11 10"><title>Heart</title><desc>Created with Avocode.</desc><defs id="SvgjsDefs1081"></defs><path id="SvgjsPath1082" d="M51.47 3C52.26 3 52.99 3.38 53.46 4.02L53.93 4.659999999999999L54.39 4.02C54.86 3.3799999999999994 55.59 2.9999999999999996 56.38 2.9999999999999996C57.74 2.9999999999999996 58.85 4.119999999999999 58.85 5.51C58.85 6.13 58.63 6.71 58.24 7.17C58.24 7.17 53.97 11.65 53.900000000000006 11.58C52.45 10.09 53.85000000000001 11.58 49.56 7.11C49.35 6.8500000000000005 49 6.12 49 5.51C49 4.12 50.11 3 51.47 3Z " fill-opacity="0" fill="#ffffff" stroke-dasharray="0" stroke-linejoin="miter" stroke-linecap="round" stroke-opacity="1" stroke="#b2b7bf" stroke-miterlimit="50" stroke-width="1" transform="matrix(1,0,0,1,-48.5,-2.5)"></path></svg>