<?xml version="1.0" encoding="UTF-8"?>
<svg width="14px" height="13px" viewBox="0 0 14 13" version="1.1" xmlns="http://www.w3.org/2000/svg" xmlns:xlink="http://www.w3.org/1999/xlink">
    <!-- Generator: Sketch 40.1 (33804) - http://www.bohemiancoding.com/sketch -->
    <title>social</title>
    <desc>Created with Sketch.</desc>
    <defs></defs>
    <g id="Page-1" stroke="none" stroke-width="1" fill="none" fill-rule="evenodd">
        <g id="social" fill="#B2B7BF">
            <g id="Symbols">
                <g id="W-Twitter-Menu">
                    <g id="social">
                        <path d="M1.8881575,3.83163204 L11.0168238,3.83163204 C11.5883823,3.83163204 12.0463267,4.28572697 12.0463267,4.85232267 L12.0463267,6.37301331 C12.0463267,6.64915568 12.2701843,6.87301331 12.5463267,6.87301331 C12.8224691,6.87301331 13.0463267,6.64915568 13.0463267,6.37301331 L13.0463267,4.85232267 C13.0463267,3.73154378 12.1387863,2.83163204 11.0168238,2.83163204 L1.9402696,2.83163204 L3.9183483,0.853553391 C4.1136104,0.658291245 4.1136104,0.341708755 3.9183483,0.146446609 C3.7230861,-0.0488155365 3.4065036,-0.0488155365 3.2112415,0.146446609 L0,3.3576881 L3.2005106,6.55819874 C3.3957728,6.75346088 3.7123553,6.75346088 3.9076174,6.55819874 C4.1028796,6.36293659 4.1028796,6.0463541 3.9076174,5.85109196 L1.8881575,3.83163204 L1.8881575,3.83163204 Z" id="Combined-Shape"></path>
                        <path d="M1.8881568,9.83163274 L11.0168231,9.83163274 C11.5883816,9.83163274 12.046326,10.2857277 12.046326,10.8523234 L12.046326,12.373014 C12.046326,12.6491564 12.2701836,12.873014 12.546326,12.873014 C12.8224684,12.873014 13.046326,12.6491564 13.046326,12.373014 L13.046326,10.8523234 C13.046326,9.73154448 12.1387856,8.83163274 11.0168231,8.83163274 L1.9402689,8.83163274 L3.9183476,6.85355409 C4.1136097,6.65829194 4.1136097,6.34170946 3.9183476,6.14644731 C3.7230854,5.95118516 3.4065029,5.95118516 3.2112408,6.14644731 L-7.00000008e-07,9.3576888 L3.2005099,12.5581994 C3.3957721,12.7534616 3.7123546,12.7534616 3.9076167,12.5581994 C4.1028789,12.3629373 4.1028789,12.0463548 3.9076167,11.8510927 L1.8881568,9.83163274 L1.8881568,9.83163274 Z" id="Combined-Shape-Copy" transform="translate(6.523163, 9.436507) scale(-1, -1) translate(-6.523163, -9.436507) "></path>
                    </g>
                </g>
            </g>
        </g>
    </g>
</svg>