<svg id="SvgjsSvg1162" xmlns="http://www.w3.org/2000/svg" version="1.1" xmlns:xlink="http://www.w3.org/1999/xlink" xmlns:svgjs="http://svgjs.com/svgjs" width="19" height="15" viewBox="0 0 19 15"><title>Path</title><desc>Created with Avocode.</desc><defs id="SvgjsDefs1163"></defs><path id="SvgjsPath1164" d="M82.74 5.96L82.78 6.6L82.13 6.52C79.75999999999999 6.22 77.69 5.199999999999999 75.94 3.4799999999999995L75.08 2.6199999999999997L74.86 3.2499999999999996C74.39 4.659999999999999 74.69 6.14 75.67 7.14C76.19 7.6899999999999995 76.07000000000001 7.77 75.17 7.4399999999999995C74.86 7.34 74.59 7.26 74.56 7.3C74.47 7.39 74.78 8.59 75.03 9.06C75.37 9.71 76.06 10.360000000000001 76.81 10.74L77.45 11.040000000000001L76.69 11.05C75.96 11.05 75.94 11.07 76.02 11.34C76.28 12.2 77.3 13.1 78.45 13.5L79.26 13.77L78.55000000000001 14.19C77.51 14.799999999999999 76.29 15.139999999999999 75.07000000000001 15.17C74.48 15.18 74.00000000000001 15.23 74.00000000000001 15.27C74.00000000000001 15.4 75.59000000000002 16.14 76.51000000000002 16.43C79.28000000000002 17.28 82.57000000000002 16.91 85.05000000000001 15.45C86.80000000000001 14.42 88.56000000000002 12.35 89.38000000000001 10.36C89.82000000000001 9.29 90.26 7.35 90.26 6.42C90.26 5.81 90.30000000000001 5.74 91.03 5.01C91.46000000000001 4.59 91.86 4.13 91.94 4C92.07 3.75 92.06 3.75 91.39 3.97C90.29 4.37 90.13 4.32 90.68 3.7300000000000004C91.08000000000001 3.3100000000000005 91.56 2.5400000000000005 91.56 2.3200000000000003C91.56 2.2800000000000002 91.37 2.35 91.15 2.4600000000000004C90.91000000000001 2.6000000000000005 90.39 2.7900000000000005 90 2.9100000000000006L89.3 3.130000000000001L88.66 2.7000000000000006C88.31 2.460000000000001 87.82 2.2000000000000006 87.56 2.1200000000000006C86.89 1.9400000000000006 85.88 1.9700000000000006 85.28 2.1800000000000006C83.65 2.7700000000000005 82.63 4.290000000000001 82.74 5.960000000000001Z " fill="#3f4c5e" fill-opacity="1" transform="matrix(1,0,0,1,-74,-2)"></path></svg>