<?xml version="1.0" encoding="UTF-8"?>
<svg width="34px" height="34px" viewBox="0 0 34 34" version="1.1" xmlns="http://www.w3.org/2000/svg" xmlns:xlink="http://www.w3.org/1999/xlink">
    <!-- Generator: Sketch 46.1 (44463) - http://www.bohemiancoding.com/sketch -->
    <title>USA Today Hss</title>
    <desc>Created with Sketch.</desc>
    <defs>
        <linearGradient x1="23.961623%" y1="13.7402655%" x2="23.961623%" y2="104.62219%" id="linearGradient-1">
            <stop stop-color="#EB1E00" offset="0%"></stop>
            <stop stop-color="#EB1E00" offset="100%"></stop>
        </linearGradient>
    </defs>
    <g id="Symbols" stroke="none" stroke-width="1" fill="none" fill-rule="evenodd">
        <g id="W---Icon---USA-Today" transform="translate(-3.000000, -2.000000)" fill="url(#linearGradient-1)">
            <path d="M28.7885611,33.0355502 C30.2200545,24.8863843 31.634271,16.8358892 33.0705637,8.659848 C38.7207109,15.7482075 37.5017242,27.5821685 28.7885611,33.0355502 Z M21.7531651,25.8201857 C21.1693952,29.1492671 20.6036702,32.3746866 20.0185566,35.7110627 C16.513442,35.7711482 13.3575143,34.818035 10.3601509,32.858442 C10.7661598,30.5254742 11.1727447,28.1882833 11.5847046,25.8201857 L21.7531651,25.8201857 Z M5.98462222,9.17049783 C6.05756946,9.18316761 6.13051669,9.1958374 6.20346392,9.20850718 C5.37167349,13.9543006 4.54007502,18.6999022 3.70828459,23.4456956 C2.26162576,18.3086746 3.0362102,13.5471399 5.98462222,9.17049783 Z M24.8520404,8.27562724 C24.220087,11.8354523 23.597156,15.3444062 22.9749929,18.848369 C22.3031104,19.0443667 14.1485695,19.0946619 12.8449256,18.8946329 C13.3664984,15.4117864 14.0504747,11.9538955 14.6400035,8.37141847 C13.7440963,8.18943432 12.8909976,8.31037316 12.0501847,8.28964078 C11.1874877,8.26814055 10.3240228,8.28464966 9.46113382,8.28464966 C8.59958859,8.28464966 7.73804337,8.28464966 6.84539958,8.28464966 C8.51992254,5.53031567 13.2835689,2.28838702 18.734071,2.02385732 C24.3922808,1.74934536 29.0522653,3.8444667 32.8741245,8.27562724 L24.8520404,8.27562724 Z" id="USA-Today-Hss"></path>
        </g>
    </g>
</svg>