<?xml version="1.0" encoding="UTF-8"?>
<svg width="519px" height="185px" viewBox="0 0 519 185" version="1.1" xmlns="http://www.w3.org/2000/svg" xmlns:xlink="http://www.w3.org/1999/xlink">
    <!-- Generator: Sketch 46.1 (44463) - http://www.bohemiancoding.com/sketch -->
    <title>USA Today Hss</title>
    <desc>Created with Sketch.</desc>
    <defs>
        <linearGradient x1="23.961623%" y1="13.7402655%" x2="23.961623%" y2="104.62219%" id="linearGradient-1">
            <stop stop-color="#303744" offset="0%"></stop>
            <stop stop-color="#000000" stop-opacity="0" offset="100%"></stop>
        </linearGradient>
    </defs>
    <g id="Headlines" stroke="none" stroke-width="1" fill="none" fill-rule="evenodd" opacity="0.315160779">
        <g id="W---Headlines" transform="translate(-89.000000, -147.000000)" fill="url(#linearGradient-1)">
            <g id="Partner's-Header">
                <path d="M253.866341,183.788542 C284.666572,222.428794 278.0216,286.938394 230.524175,316.666011 C238.32757,272.243064 246.036785,228.357993 253.866341,183.788542 Z M192.17264,277.333426 C188.990378,295.481002 185.906483,313.063494 182.716897,331.250836 C163.609724,331.578375 146.406048,326.382739 130.066741,315.700554 C132.279988,302.983019 134.496374,290.242462 136.74206,277.333426 L192.17264,277.333426 Z M352.369316,238.852131 L352.369316,206.563844 C358.778837,205.98411 365.014646,205.726683 371.111277,207.20532 C378.341216,208.958127 382.370058,214.462466 382.538536,222.035642 C382.725851,230.480512 379.013039,236.040313 371.639736,238.352973 C367.47067,239.661038 358.751629,239.91114 352.369316,238.852131 Z M342.506503,301.693581 C342.529525,291.698915 349.393206,285.442176 360.103645,285.245443 C371.901349,285.028827 377.918449,293.686127 377.864034,302.301569 C377.802293,311.992764 370.34946,318.628318 360.010511,318.78424 C349.577381,318.942254 341.82003,311.433959 342.506503,301.693581 Z M566.755793,279.155614 C553.060872,279.828483 545.254338,265.947293 550.998314,254.593285 C555.321209,246.047955 567.349132,242.807093 576.330832,247.875061 C584.443977,252.452244 587.137545,263.311279 582.135503,271.469422 C578.590123,277.253163 573.129734,279.27177 566.755793,279.155614 Z M528.453127,279.146719 C517.955117,279.544371 510.896796,272.789521 510.659252,262.361624 C510.433218,252.410909 518.001161,245.624665 528.626838,245.687453 C538.847538,245.7471 546.384087,252.702869 546.19468,262.277908 C545.990621,272.635693 538.749171,279.587275 528.453127,279.146719 Z M396.293106,265.836997 L384.102983,265.836997 L384.102983,278.387099 L375.419521,278.387099 L375.419521,246.368798 L383.956479,246.368798 L383.956479,258.454275 L390.00916,258.454275 L395.931033,258.454275 L395.931033,246.360426 L404.935755,246.360426 L404.935755,278.35152 L396.293106,278.35152 L396.293106,265.836997 Z M361.056335,266.96706 C358.566825,266.754631 356.709372,266.59557 354.53903,266.409301 L354.53903,260.565912 L370.05164,260.565912 C371.920603,270.442329 365.88362,278.478036 356.093012,278.987658 C353.010164,279.147765 349.747325,279.0787 346.815166,278.243631 C339.768356,276.235489 335.467437,269.84899 335.562664,262.442201 C335.66417,254.624155 340.115778,248.665656 347.441991,246.539265 C355.447351,244.217187 362.555902,245.971041 367.588291,251.724436 C365.561313,253.338065 363.544799,254.94437 361.244697,256.775661 C358.473691,254.38975 355.458862,251.99756 351.614196,253.230281 C349.586172,253.880128 347.408504,255.193425 346.139158,256.851006 C342.918177,261.056698 344.439719,268.15897 348.709245,270.707081 C352.887729,273.200777 357.933722,271.903176 361.056335,266.96706 Z M401.224931,306.038346 C403.937335,310.080791 406.438356,313.809301 409.196805,317.919766 L399.122608,317.919766 C396.898897,314.437172 394.596702,310.832144 391.913598,306.632731 C389.527687,310.65634 391.371536,314.430894 390.248693,317.830817 L381.873935,317.830817 L381.873935,285.69322 C387.630469,285.835538 393.281311,285.189876 398.960408,286.222725 C403.093895,286.975124 406.213369,289.062796 407.178198,293.227677 C408.17756,297.5422 407.514109,301.584645 403.399459,304.30856 C402.828096,304.687376 402.31952,305.162465 401.224931,306.038346 Z M391.036671,293.177447 L391.036671,300.180306 C393.90395,300.307973 396.500199,300.819688 397.910816,298.171117 C398.387999,297.273261 398.370209,295.570683 397.813496,294.765962 C396.243818,292.502485 393.859999,292.360168 391.036671,293.177447 Z M497.631234,265.822137 L485.74249,265.822137 C483.885037,269.742147 485.570871,274.038881 484.534884,278.406773 L476.743,278.406773 L476.743,246.438701 C479.237742,246.32987 481.617374,246.225224 484.684526,246.091278 C484.812193,250.062565 484.935675,253.927113 485.069621,258.112923 L497.373807,258.112923 L497.373807,246.351845 L506.049943,246.351845 L506.049943,278.367007 L497.631234,278.367007 L497.631234,265.822137 Z M308.210284,265.853844 L295.680064,265.853844 L295.680064,278.398715 L287.289609,278.398715 C286.061074,267.838965 286.685806,257.325258 286.531978,246.417039 L295.562861,246.417039 L295.562861,258.11533 L307.898441,258.11533 L307.898441,246.36367 L316.436446,246.36367 L316.436446,278.547311 L308.210284,278.547311 L308.210284,265.853844 Z M315.471093,167.231678 C315.471093,174.848805 315.672012,181.978284 315.40726,189.091021 C315.196923,194.776396 311.901645,198.444212 306.38998,199.799367 C304.549271,200.252481 302.616473,200.542348 300.724487,200.544441 C291.005038,200.552813 286.327396,195.887729 286.238448,186.159908 C286.18194,179.934563 286.227983,173.708172 286.227983,167.178309 L295.352001,167.178309 C295.485947,168.390101 295.742328,169.700259 295.756978,171.013557 C295.81244,176.064782 295.751746,181.117054 295.816626,186.167233 C295.846973,188.508147 296.336713,190.76953 298.774947,191.824354 C302.212543,193.312409 305.568515,191.268688 305.79141,187.342399 C306.038372,183.000668 305.88873,178.636962 305.905473,174.282674 C305.913844,172.048498 305.906519,169.814323 305.906519,167.231678 L315.471093,167.231678 Z M416.057451,239.184798 L406.616358,239.184798 C405.90791,237.798249 405.216205,236.445186 404.460666,234.965502 L392.781212,234.965502 C392.064392,236.3081 391.351758,237.641281 390.515642,239.20468 L381.352906,239.20468 C385.447674,228.14054 389.396985,217.473005 393.434198,206.56374 L403.946858,206.56374 C407.888844,217.182091 411.89571,227.975201 416.057451,239.184798 Z M402.318578,226.711086 C401.034581,222.669687 399.95255,219.262439 398.590069,214.97617 C397.224448,219.301157 396.122534,222.792122 394.885627,226.711086 L402.318578,226.711086 Z M343.907179,199.49328 C348.045898,188.352749 351.95963,177.820206 355.928824,167.138021 L366.477063,167.138021 C370.390795,177.63917 374.365221,188.300426 378.517543,199.440957 L369.085869,199.440957 C368.51032,198.320207 367.818615,196.972376 367.030636,195.439324 L355.108405,195.439324 C354.492045,196.771458 353.922775,198.002085 353.233163,199.49328 L343.907179,199.49328 Z M361.141203,175.060711 C359.706517,179.826255 358.598324,183.509767 357.468155,187.266531 L364.740999,187.266531 C363.579437,183.326638 362.565424,179.891135 361.141203,175.060711 Z M93.8059125,264.389544 C85.9198479,236.38648 90.142283,210.430276 106.214744,186.57221 C106.612396,186.641276 107.010048,186.710342 107.4077,186.779408 C102.873422,212.649802 98.3401904,238.51915 93.8059125,264.389544 Z M323.379029,308.596608 C323.227293,310.660212 323.075558,312.193265 323.012771,313.73155 C322.957309,315.080427 323.00126,316.433489 323.00126,317.998982 L314.794981,317.998982 L314.794981,285.910568 C320.497099,285.692906 326.025507,284.985504 331.464966,286.477745 C336.626069,287.892549 339.205574,291.176316 339.423236,296.146965 C339.712057,302.724964 336.247253,306.993443 329.625303,308.06815 C327.758432,308.370574 325.845517,308.396736 323.379029,308.596608 Z M323.44077,300.900998 C326.379208,301.448292 328.734772,301.442013 329.818897,299.013198 C330.355727,297.809777 330.217595,295.762917 329.5081,294.663095 C328.177013,292.599491 325.97737,292.121263 323.043118,293.608271 C323.168692,295.918838 323.302638,298.378001 323.44077,300.900998 Z M328.571735,176.378718 C329.942587,177.161464 331.166936,177.985022 332.492792,178.585686 C334.233042,179.374711 336.107238,179.875962 337.828652,180.701612 C341.641924,182.528718 343.76099,185.605288 343.48368,189.872721 C343.189627,194.399673 340.993124,197.878081 336.585467,199.455084 C329.971888,201.821113 323.980948,200.396892 317.864435,195.811337 C319.351443,193.724712 320.70032,191.831679 321.758284,190.34781 C325.09542,191.354497 327.95956,192.456411 330.925206,192.978591 C331.922475,193.153349 333.178218,191.851562 334.060377,191.366008 C334.06247,188.284206 332.231178,187.636452 330.397794,186.969862 C328.599989,186.317922 326.758233,185.752838 325.034726,184.938698 C321.641081,183.335533 319.490621,180.760214 319.437252,176.828692 C319.38179,172.80299 321.203664,169.820601 324.678932,167.851178 C330.149785,164.751586 337.332633,165.662 342.740699,170.270576 C341.527861,172.084078 340.298279,173.923741 339.099045,175.716314 C332.131765,172.636604 331.725742,172.648115 328.571735,176.378718 Z M310.322862,288.732536 C308.876665,290.793001 307.691034,292.480928 306.52424,294.142695 C300.192157,291.072404 300.173321,291.071357 296.552596,293.585982 C296.051345,295.87248 297.676486,296.633251 299.324648,297.290423 C301.257446,298.061659 303.312678,298.563956 305.171177,299.475416 C308.693536,301.203108 310.968523,303.958417 310.83667,308.083532 C310.698538,312.40538 308.933173,315.984247 304.731667,317.556019 C298.082509,320.044482 291.886465,318.984426 285.815995,314.339224 C287.344862,312.273527 288.638277,310.525952 290.064592,308.59734 C291.272198,309.451246 292.155403,310.347009 293.22697,310.769776 C294.806067,311.392415 296.5662,312.130164 298.160993,311.964824 C299.438711,311.831925 301.102571,310.680827 301.665562,309.528683 C302.47447,307.872149 301.04083,306.63001 299.502545,305.965513 C297.116634,304.935804 294.574801,304.217938 292.296674,302.998821 C286.455378,299.872021 285.536592,292.469417 290.451779,288.168498 C291.714847,287.064491 293.376613,286.086058 294.993382,285.777355 C300.201575,284.782179 305.330238,284.89101 310.322862,288.732536 Z M460.769324,288.587184 C459.328359,290.671717 458.162611,292.359645 457.228129,293.711661 C454.286551,293.087975 451.696582,292.332437 449.061615,292.10431 C448.255847,292.034198 447.324504,293.411329 445.813427,294.648236 C447.7682,295.878864 449.097194,296.869854 450.559088,297.591906 C451.955056,298.280472 453.531013,298.595454 454.954188,299.237976 C459.756358,301.407271 461.249645,303.92085 460.961871,309.07672 C460.707583,313.60158 458.421085,316.667685 454.11284,317.910871 C447.75041,319.745302 441.844233,318.895582 436.347219,314.323632 C437.743187,312.335373 438.923585,310.653724 439.779583,309.434607 C443.25799,310.305255 446.295842,311.291013 449.410084,311.71378 C450.371773,311.84354 451.541707,310.440248 452.300385,309.945276 C452.290967,306.833127 450.477465,306.078634 448.67966,305.363907 C446.90383,304.657552 445.050563,304.136419 443.307174,303.359951 C439.833998,301.814341 437.844693,299.28088 437.859343,295.258317 C437.873993,291.12797 439.656102,288.021053 443.351125,286.557066 C449.332646,284.188945 455.148828,284.751936 460.769324,288.587184 Z M435.152589,268.667964 C433.352691,267.503263 431.902308,266.368908 430.28554,265.573605 C428.737837,264.81388 426.960961,264.531338 425.38605,263.817658 C421.911828,262.243793 419.990542,259.62557 420.016703,255.639633 C420.044957,251.508239 421.911828,248.512246 425.589062,246.964543 C431.480588,244.485497 437.123059,245.325799 442.831456,249.194533 C441.540134,251.117912 440.345086,252.895835 439.16678,254.650735 C432.699705,251.167095 431.63337,251.211046 428.410297,255.393716 C429.621042,256.243436 430.72505,257.257448 432.019511,257.866483 C433.743018,258.677484 435.660119,259.065718 437.41188,259.825442 C441.31724,261.519648 443.332707,264.443436 443.208179,268.837489 C443.088884,273.088179 441.30259,276.165795 437.432809,277.98139 C431.871961,280.590195 423.806953,279.186903 418.938857,274.657857 C419.20047,274.109516 419.405575,273.442926 419.792762,272.910282 C420.701083,271.658725 421.697305,270.471001 422.645391,269.27386 C429.766499,273.822788 431.480588,273.84581 435.152589,268.667964 Z M409.763773,206.597017 L419.848433,206.597017 C420.883375,208.348778 422.140164,210.384128 423.301726,212.470754 C424.481078,214.58982 425.566249,216.762255 426.950705,219.4035 C429.339756,215.019912 431.587536,210.894797 433.951471,206.555159 L443.963927,206.555159 C442.378552,209.360697 440.979445,211.858579 439.560456,214.34495 C438.701318,215.851841 437.916479,217.417334 436.917117,218.828998 C433.092334,224.230785 430.777582,230.028131 431.770665,236.807049 C431.863799,237.441199 431.595907,238.128718 431.448357,239.107151 L422.1297,239.107151 C422.051216,236.402072 422.140164,233.673971 421.836693,230.98982 C421.612752,229.003654 421.231843,226.885634 420.304687,225.155849 C417.116146,219.203628 413.656575,213.396864 409.763773,206.597017 Z M470.948061,247.383647 L470.948061,254.770554 C465.628943,252.902637 460.526442,251.756771 456.823047,257.179487 C454.666309,260.338727 454.845252,265.576221 457.316973,268.464429 C461.173149,272.96836 465.92195,272.087247 471.046427,270.128288 L471.046427,277.314276 C464.197397,280.899422 454.700842,279.315093 450.080755,273.833776 C445.23882,268.089799 444.948953,258.103505 449.444512,251.901182 C453.705666,246.022213 463.146759,243.949191 470.948061,247.383647 Z M304.02437,239.185949 L294.719316,239.185949 L294.719316,214.485488 C291.885523,214.258408 289.540424,214.070047 286.785115,213.849245 L286.785115,206.563844 L311.957525,206.563844 L311.957525,213.791691 C309.604054,213.981098 307.244304,214.170506 304.134248,214.420608 C303.972048,222.441665 304.146805,230.519231 304.02437,239.185949 Z M426.782017,293.107544 L426.782017,318.072757 L418.096463,318.072757 L418.096463,293.212189 C415.268949,292.943251 412.912338,292.71931 410.160169,292.457697 L410.160169,286.075384 L434.458791,286.075384 L434.458791,292.391771 C432.031022,292.617804 429.829286,292.823955 426.782017,293.107544 Z M589.137734,246.256513 L597.683064,246.256513 L597.683064,271.294978 C601.319486,271.535662 604.500701,271.747045 607.974922,271.977265 L607.974922,278.46213 L589.137734,278.46213 L589.137734,246.256513 Z M322.979284,278.523557 L322.979284,246.507348 L330.908253,246.507348 L330.908253,278.523557 L322.979284,278.523557 Z M330.651245,205.697382 C341.274829,205.644013 349.001833,212.919996 348.969393,222.946055 C348.937999,232.644575 341.240296,240.025204 331.034246,240.143453 C320.636696,240.263795 312.613546,232.679108 312.708773,222.819435 C312.801908,213.029873 320.432638,205.747612 330.651245,205.697382 Z M330.95053,213.988424 C325.944302,213.890057 322.668906,217.172778 322.471127,222.48457 C322.270208,227.906239 325.673271,231.784392 330.675313,231.834621 C335.473297,231.883805 339.102394,228.288194 339.29808,223.293478 C339.503185,218.029822 335.966176,214.08679 330.95053,213.988424 Z M361.855406,214.330613 L361.855406,231.561497 C365.973196,232.216576 369.458929,231.520686 371.611481,228.075765 C373.668807,224.784672 373.606019,221.045698 371.621946,217.713794 C369.475672,214.107719 365.924013,213.730996 361.855406,214.330613 Z M360.121435,292.726531 C355.282639,292.634443 351.559362,296.486434 351.379372,301.773111 C351.204615,306.88817 354.848362,311.079211 359.676693,311.316756 C364.551068,311.55744 368.810129,307.191641 368.795478,301.97089 C368.781874,296.989777 364.867096,292.816526 360.121435,292.726531 Z M566.970316,253.084301 C562.410923,252.954541 558.215696,257.253367 558.086982,262.187389 C557.950943,267.419651 561.966181,271.72057 566.996477,271.729988 C571.766207,271.740453 575.486345,267.695914 575.518785,262.463653 C575.550179,257.38522 571.754696,253.22034 566.970316,253.084301 Z M528.538936,271.724233 C533.278319,271.619587 537.315532,267.289368 537.197283,262.439061 C537.073801,257.396208 533.138094,253.173772 528.483474,253.091103 C523.683397,253.004247 519.438987,257.603405 519.57084,262.745672 C519.699553,267.739342 523.784903,271.829924 528.538936,271.724233 Z M252.795506,181.694068 L209.06531,181.694068 C205.620389,201.09948 202.224651,220.227582 198.833099,239.328476 C195.170516,240.396904 150.718268,240.671074 143.611811,239.580671 C146.455022,220.594886 150.183531,201.745141 153.397186,182.216248 C148.513393,181.224211 143.862959,181.883476 139.279498,181.770459 C134.576741,181.653256 129.869799,181.743251 125.165996,181.743251 C120.469518,181.743251 115.77304,181.743251 110.907036,181.743251 C120.03524,166.728753 146.002954,149.056266 175.714875,147.614255 C206.559057,146.117828 231.961687,157.538809 252.795506,181.694068 Z" id="USA-Today-Hss"></path>
            </g>
        </g>
    </g>
</svg>