<svg xmlns="http://www.w3.org/2000/svg" xmlns:xlink="http://www.w3.org/1999/xlink" width="16" height="10" viewBox="0 0 18 12"><defs><path id="qp4ka" d="M229.77 1248v-12h18.46v12zm9.23-1c4.42 0 8-5 8-5s-3.58-5-8-5-8 5-8 5 3.58 5 8 5zm-3-5a3 3 0 1 1 6 0 3 3 0 0 1-6 0z"/><path id="qp4kb" d="M231 1242s3.58-5 8-5 8 5 8 5-3.58 5-8 5-8-5-8-5zm8 3a3 3 0 1 0 0-6 3 3 0 0 0 0 6z"/><clipPath id="qp4kc"><use fill="#fff" xlink:href="#qp4ka"/></clipPath></defs><g><g opacity="1" transform="translate(-230 -1236)"><use fill="#fff" fill-opacity="0" stroke="#000" stroke-miterlimit="50" stroke-width="2" clip-path="url(&quot;#qp4kc&quot;)" xlink:href="#qp4kb"/></g></g></svg>