<svg xmlns="http://www.w3.org/2000/svg" xmlns:xlink="http://www.w3.org/1999/xlink" width="26" height="23" viewBox="0 0 26 23"><defs><path id="nfyra" d="M792.64 745.72c-3.48-.1-5.83 1.84-7.06 5.86.63-.27 1.25-.4 1.85-.4 1.27 0 1.83.71 1.68 2.14-.08.86-.64 2.12-1.68 3.77-1.05 1.65-1.83 2.48-2.35 2.48-.68 0-1.3-1.28-1.86-3.83-.18-.75-.52-2.66-1-5.74-.45-2.85-1.65-4.18-3.59-4-.82.08-2.05.83-3.7 2.26-1.2 1.08-2.4 2.17-3.64 3.26l1.18 1.52c1.12-.79 1.77-1.18 1.96-1.18.86 0 1.66 1.35 2.4 4.05l2.03 7.43c1 2.7 2.24 4.05 3.7 4.05 2.34 0 5.22-2.22 8.62-6.64 3.29-4.24 4.98-7.58 5.1-10.02.15-3.26-1.07-4.93-3.64-5z"/></defs><g><g transform="translate(-771 -745)"><use fill="#556278" xlink:href="#nfyra"/></g></g></svg>