<svg xmlns="http://www.w3.org/2000/svg" xmlns:xlink="http://www.w3.org/1999/xlink" width="34" height="25" viewBox="0 0 34 25"><defs><path id="t9uha" d="M854.05 756.62c0 2.64 0 5.45-.58 8.02a4.22 4.22 0 0 1-3.57 3.33c-4.1.47-8.25.47-12.38.47-4.13 0-8.27 0-12.37-.47a4.22 4.22 0 0 1-3.57-3.33c-.58-2.57-.58-5.38-.58-8.02 0-2.65 0-5.46.58-8.03a4.22 4.22 0 0 1 3.57-3.33c4.1-.47 8.25-.47 12.38-.47 4.13 0 8.28 0 12.38.47a4.22 4.22 0 0 1 3.57 3.33c.57 2.57.57 5.38.57 8.03zm-10.28-.33l-10.51-5.63v11.22c3.51-1.87 7-3.72 10.5-5.6z"/></defs><g><g transform="translate(-821 -744)"><use fill="#556278" xlink:href="#t9uha"/></g></g></svg>