<svg xmlns="http://www.w3.org/2000/svg" xmlns:xlink="http://www.w3.org/1999/xlink" width="31" height="30" viewBox="0 0 31 30"><defs><path id="a" d="M1257.25 225.93c-.26-.02-.52-.03-.79-.03a24 24 0 0 1-1.73-.3 14.94 14.94 0 0 1-11.26-10.88c-.24-.89-.39-1.81-.47-2.75v-1.64a8.47 8.47 0 0 1 .23-1.99c.12-.74.31-1.46.56-2.16a13.77 13.77 0 0 1 3.89-6.08 14.35 14.35 0 0 1 5.97-3.46 10.75 10.75 0 0 1 3.33-.64h1.64l1.32.12c.41.04.83.11 1.26.23a14.48 14.48 0 0 1 7.72 4.39 14.78 14.78 0 0 1 3.71 13.37 8 8 0 0 1-.44 1.55 13.64 13.64 0 0 1-1.81 3.74 16.1 16.1 0 0 1-2.81 3.1 16.22 16.22 0 0 1-3.74 2.26c-1.33.56-2.73.94-4.21 1.14-.28 0-.55.01-.82.03a11.44 11.44 0 0 1-1.55 0zm-12.09-14.43c0 .08.01.14.03.18a12.6 12.6 0 0 0 .38 2.52c.2.78.47 1.52.82 2.22.32.62.66 1.22 1.03 1.78a13.15 13.15 0 0 0 6.35 4.89c.46.15.94.28 1.43.38.49.1.98.18 1.49.26a14.25 14.25 0 0 0 2.63 0 12.7 12.7 0 0 0 9.25-5.56c.66-.97 1.19-2.04 1.58-3.21l.32-1.32c.1-.45.18-.91.26-1.38a15.87 15.87 0 0 0 0-2.69c-.19-1.4-.57-2.72-1.14-3.95a12.89 12.89 0 0 0-9.97-7.34l-1.12-.12h-1.11a.4.4 0 0 0-.14.03 15.03 15.03 0 0 0-5.65 1.7c-.86.49-1.66 1.08-2.4 1.79-.54.5-1.03 1.04-1.46 1.6-.43.57-.8 1.18-1.11 1.85-.31.54-.58 1.12-.79 1.72a8.61 8.61 0 0 0-.44 1.9c-.08.28-.13.55-.15.82l-.09.88zm14.63-.35l2.58-2.98h2.39l-3.27 3.8 3.27 4.62h-2.22l-2.46-3.21-.29.29v2.92h-1.81v-13.86h1.81zm-8.6-2.1h1.76v7.6h-1.76zm3.39-3.4h1.82v11h-1.82z"/></defs><desc>Generated with Avocode.</desc><g opacity=".67" transform="translate(-1243 -196)"><use fill="#fff" xlink:href="#a"/></g></svg>