<svg xmlns="http://www.w3.org/2000/svg" xmlns:xlink="http://www.w3.org/1999/xlink" width="303" height="302" viewBox="0 0 303 302"><defs><path id="a" d="M201.4 379.23c-2.55-.2-5.2-.29-7.95-.29a247.62 247.62 0 0 1-17.37-2.95 126.06 126.06 0 0 1-16.79-4.71 147.3 147.3 0 0 1-32.09-15.61 156.08 156.08 0 0 1-27.98-23.26 123.9 123.9 0 0 1-15.01-18.26 159.94 159.94 0 0 1-12.08-21.2 164.69 164.69 0 0 1-9.42-26.5A164.03 164.03 0 0 1 58 238.77v-16.49c0-3.53.2-6.96.59-10.3.39-3.34.98-6.58 1.77-9.72a117.93 117.93 0 0 1 5.59-21.79c2.55-7.07 5.4-13.94 8.54-20.61a136 136 0 0 1 13.54-21.79 154.6 154.6 0 0 1 17.08-18.85 148.02 148.02 0 0 1 28.27-21.2 140.94 140.94 0 0 1 31.8-13.54c5.5-1.96 11-3.44 16.49-4.42 5.5-.98 11.19-1.67 17.08-2.06h16.49c4.71.39 9.13.79 13.25 1.18 4.12.39 8.34 1.18 12.66 2.35a145.6 145.6 0 0 1 42.11 15.9 148.97 148.97 0 0 1 35.63 28.27 150.39 150.39 0 0 1 27.09 40.05 154.67 154.67 0 0 1 12.96 46.52c.39 5.11.58 10.31.58 15.61 0 5.3-.19 10.7-.58 16.19-.79 5.5-1.67 10.9-2.65 16.2a89.25 89.25 0 0 1-4.42 15.61 139.93 139.93 0 0 1-18.26 37.69 162.58 162.58 0 0 1-28.27 31.21 161.51 161.51 0 0 1-37.69 22.67 161.5 161.5 0 0 1-42.4 11.49c-2.75 0-5.49.09-8.24.29-2.75.2-5.5.29-8.25.29a94.2 94.2 0 0 1-7.36-.29zM79.79 234.06c0 .79.1 1.38.29 1.77.2.39.3.98.3 1.77.39 7.85 1.57 15.7 3.53 23.55a109.13 109.13 0 0 0 8.25 22.38 177.56 177.56 0 0 0 10.3 17.96c3.73 5.7 8.15 11.09 13.25 16.2a128.27 128.27 0 0 0 23.27 19.43 131.76 131.76 0 0 0 27.38 13.55c4.71 1.57 9.52 2.84 14.43 3.83 4.91.98 9.91 1.86 15.02 2.65 4.31.39 8.73.58 13.25.58 4.51 0 8.93-.19 13.25-.58a135.95 135.95 0 0 0 36.8-9.72 126.43 126.43 0 0 0 32.1-19.73 128.7 128.7 0 0 0 24.15-26.5 131.2 131.2 0 0 0 15.9-32.39 281.96 281.96 0 0 0 5.89-27.09c.39-4.71.58-9.33.58-13.84 0-4.52-.19-8.93-.58-13.25a141.03 141.03 0 0 0-11.49-39.75 131.76 131.76 0 0 0-23.26-34.46 132.42 132.42 0 0 0-30.04-23.55 136.15 136.15 0 0 0-36.51-14.14 99.68 99.68 0 0 0-10.6-1.76c-3.53-.39-7.26-.79-11.19-1.18h-11.19c-.39 0-.88.1-1.47.29-.59.2-1.08.3-1.47.3a177.37 177.37 0 0 0-28.27 4.71 152.66 152.66 0 0 0-27.09 12.07 124.73 124.73 0 0 0-24.15 17.96 127.37 127.37 0 0 0-14.72 16.2 103.43 103.43 0 0 0-11.19 18.55 107.62 107.62 0 0 0-7.95 17.37 87.45 87.45 0 0 0-4.41 19.14 40.43 40.43 0 0 0-1.48 8.25c-.19 2.75-.49 5.69-.88 8.83zm147.23-3.53l25.91-30.04h24.15l-32.98 38.28 32.98 46.53H254.7l-24.74-32.39-2.94 2.94v29.45h-18.26V145.73h18.26zm-86.57-21.2h17.67v76.56h-17.67zm34.16-34.16h18.25v110.72h-18.25z"/><linearGradient id="b" x1="186.87" x2="186.87" y1="229" y2="393.47" gradientUnits="userSpaceOnUse"><stop offset="0" stop-color="#313948" stop-opacity=".41"/><stop offset=".47" stop-color="#efefef" stop-opacity=".44"/><stop offset="1" stop-color="#f4f0f0" stop-opacity=".59"/></linearGradient></defs><desc>Generated with Avocode.</desc><g transform="translate(-57 -78)"><use fill="url(#b)" xlink:href="#a"/></g></svg>