<?xml version="1.0" encoding="UTF-8"?>
<svg width="694px" height="161px" viewBox="0 0 694 161" version="1.1" xmlns="http://www.w3.org/2000/svg" xmlns:xlink="http://www.w3.org/1999/xlink">
    <!-- Generator: Sketch 46.1 (44463) - http://www.bohemiancoding.com/sketch -->
    <title>the cube big</title>
    <desc>Created with Sketch.</desc>
    <defs>
        <linearGradient x1="23.961623%" y1="13.7402655%" x2="23.961623%" y2="95.5082944%" id="linearGradient-1">
            <stop stop-color="#556278" offset="0%"></stop>
            <stop stop-color="#000000" stop-opacity="0" offset="100%"></stop>
        </linearGradient>
    </defs>
    <g id="Live" stroke="none" stroke-width="1" fill="none" fill-rule="evenodd" opacity="0.315160779">
        <g id="W---Live" transform="translate(-44.000000, -144.000000)" fill="url(#linearGradient-1)">
            <path d="M103.284318,220.715664 C103.284318,201.657706 109.512316,185.83859 121.968499,172.88416 C134.424683,159.929729 150.368358,153.452611 169.800004,153.452611 C186.49129,153.452611 201.189365,158.310449 213.894672,168.026272 C216.884156,170.268385 218.378876,173.257824 218.378876,176.994679 C218.378876,180.233287 217.257836,182.911326 215.015723,185.028878 C212.77361,187.146429 210.033291,188.205188 206.794683,188.205188 C204.303447,188.205188 202.061367,187.457829 200.068378,185.963087 C190.601679,178.240253 180.387762,174.378894 169.42632,174.378894 C157.219261,174.378894 147.067624,178.800773 138.971104,187.644663 C130.874585,196.488553 126.826386,207.26299 126.826386,219.968297 C126.826386,228.812185 128.632506,236.534903 132.244799,243.510366 C135.857092,250.485828 140.901771,255.966467 147.378986,259.952446 C153.856201,263.938424 161.205239,265.931384 169.42632,265.931384 C181.135133,265.931384 191.84729,261.820905 201.563113,253.599824 C203.556102,251.855958 205.798181,250.984038 208.289418,250.984038 C211.278902,250.984038 213.832381,252.042798 215.949932,254.160349 C218.067484,256.2779 219.126243,258.70682 219.126243,261.44718 C219.126243,264.685788 217.880644,267.426107 215.389407,269.66822 C202.434976,281.127909 186.864981,286.857667 168.678953,286.857667 C149.994678,286.857667 134.424683,280.505109 121.968499,267.799802 C109.512316,255.094495 103.284318,239.399939 103.284318,220.715664 Z M226.599916,230.057755 L226.599916,166.157854 C226.599916,162.919247 227.720956,160.241207 229.963069,158.123656 C232.205182,156.006105 234.945501,154.947345 238.184108,154.947345 C241.422716,154.947345 244.100755,156.006105 246.218306,158.123656 C248.335858,160.241207 249.394617,162.919247 249.394617,166.157854 L249.394617,228.936704 C249.394617,236.908661 250.702497,243.6349 253.318295,249.11562 C255.934094,254.596341 259.670893,258.7691 264.528804,261.634022 C269.386716,264.498944 275.303314,265.931384 282.278777,265.931384 C292.492847,265.931384 300.402405,262.879664 306.007687,256.776135 C311.61297,250.672605 314.415569,241.766567 314.415569,230.057755 L314.415569,166.157854 C314.415569,162.919247 315.536609,160.241207 317.778722,158.123656 C320.020835,156.006105 322.761154,154.947345 325.999762,154.947345 C328.989246,154.947345 331.605005,156.006105 333.847118,158.123656 C336.089231,160.241207 337.210271,162.919247 337.210271,166.157854 L337.210271,228.936704 C337.210271,241.642011 334.905911,252.354168 330.297123,261.073496 C325.688336,269.792825 319.273497,276.269943 311.052416,280.505045 C302.831335,284.740148 292.991098,286.857667 281.53141,286.857667 C264.591,286.857667 251.200804,281.999828 241.360419,272.284005 C231.520034,262.568182 226.599916,248.492906 226.599916,230.057755 Z M347.673412,167.278905 C347.673412,164.040297 348.794452,161.362258 351.036565,159.244707 C353.278678,157.127156 356.018997,156.068396 359.257605,156.068396 L405.594375,156.068396 C420.541795,156.068396 431.752192,159.805195 439.225902,167.278905 C445.20487,173.257873 448.194309,180.357791 448.194309,188.578872 C448.194309,201.906986 441.966311,211.498104 429.510127,217.726195 C446.69966,223.705163 455.294298,234.1682 455.294298,249.11562 C455.294298,260.699869 450.996979,269.419066 442.402213,275.647158 C433.807446,281.87525 422.16109,284.989249 407.462793,284.989249 L359.257605,284.989249 C356.018997,284.989249 353.278678,283.868209 351.036565,281.626096 C348.794452,279.383983 347.673412,276.643664 347.673412,273.405056 L347.673412,167.278905 Z M401.110171,210.252523 C405.843521,210.252523 410.01628,209.629723 413.628573,208.384104 C417.240866,207.138486 420.105745,205.145527 422.223297,202.405166 C424.340848,199.664806 425.399607,196.426247 425.399607,192.689392 L425.399607,192.315708 C425.399607,190.571843 425.150488,188.952563 424.65224,187.457821 C424.153993,185.963079 423.468913,184.655199 422.59698,183.534143 C421.725047,182.413086 420.666288,181.354327 419.420669,180.357832 C418.175051,179.361337 416.680331,178.551698 414.936466,177.928889 C413.1926,177.306079 411.324201,176.80784 409.331211,176.434154 C407.338222,176.060469 405.096143,175.873629 402.604906,175.873629 L370.09443,175.873629 L370.09443,210.252523 L401.110171,210.252523 Z M407.462793,264.810333 C415.434751,264.810333 421.600469,263.253333 425.960133,260.139287 C430.319797,257.025241 432.499596,252.603363 432.499596,246.873518 L432.499596,246.499835 C432.499596,235.040146 423.655839,229.310388 405.968059,229.310388 L370.09443,229.310388 L370.09443,264.810333 L407.462793,264.810333 Z M464.636389,273.405056 L464.636389,167.278905 C464.636389,164.040297 465.757428,161.362258 467.999541,159.244707 C470.241654,157.127156 472.857414,156.068396 475.846898,156.068396 L550.957307,156.068396 C552.701173,156.068396 554.382733,156.504356 556.002036,157.376289 C557.62134,158.248222 558.86694,159.431541 559.738873,160.926283 C560.610806,162.421025 561.046765,164.164865 561.046765,166.157854 C561.046765,168.898214 560.050286,171.264854 558.057296,173.257843 C556.064307,175.250832 553.697668,176.247312 550.957307,176.247312 L487.057407,176.247312 L487.057407,209.505155 L542.736268,209.505155 C545.476628,209.505155 547.843267,210.563915 549.836257,212.681466 C551.829246,214.799017 552.825726,217.227937 552.825726,219.968297 C552.825726,222.708657 551.829246,225.075297 549.836257,227.068286 C547.843267,229.061275 545.476628,230.057755 542.736268,230.057755 L487.057407,230.057755 L487.057407,264.436649 L552.078358,264.436649 C554.818719,264.436649 557.123078,265.495409 558.991506,267.61296 C560.859933,269.730511 561.794133,272.15943 561.794133,274.899791 C561.794133,277.640151 560.859933,280.00679 558.991506,281.99978 C557.123078,283.992769 554.818719,284.989249 552.078358,284.989249 L475.846898,284.989249 C472.857414,284.989249 470.241654,283.868209 467.999541,281.626096 C465.757428,279.383983 464.636389,276.643664 464.636389,273.405056 Z M689.220251,217.726195 L714.630738,234.541959 L689.593935,259.205078 L689.220251,217.726195 Z M655.962408,312.268154 C655.46416,297.320734 653.907161,283.494578 651.291362,270.789271 C648.675564,258.083964 645.686125,247.371807 642.322955,238.652479 C638.959786,229.93315 634.662467,221.774473 629.43087,214.176201 C624.199273,206.577929 619.528274,200.661331 615.417734,196.426228 C611.307193,192.191126 606.324795,188.080647 600.470389,184.094668 C594.615982,180.10869 590.256384,177.430651 587.391461,176.06047 C584.526539,174.69029 580.85202,173.008731 576.367794,171.015741 C574.873052,170.26837 573.752013,169.645571 573.004642,169.147323 L655.962408,199.415697 L655.962408,312.268154 Z M573.004642,169.521007 L648.862419,144.484204 L737.799123,168.77364 L663.43608,193.063076 L573.004642,169.521007 Z M673.899222,307.036583 C685.857158,299.811997 696.195635,292.213839 704.914963,284.241882 C713.634292,276.269924 719.98685,269.419126 723.972829,263.689282 C727.958807,257.959437 731.072806,252.291959 733.314919,246.686677 C735.557032,241.081394 736.802632,237.344595 737.051756,235.476168 C737.300879,233.60774 737.425439,232.175301 737.425439,231.178806 L737.425439,271.162954 L673.899222,307.036583 Z M573.004642,233.420908 L573.008612,233.817961 C573.005965,233.684905 573.004642,233.552555 573.004642,233.420908 Z M584.962518,261.44718 C596.422207,277.889342 614.358841,293.085658 638.772961,307.036583 L573.378325,270.789271 L573.008612,233.817961 C573.151229,240.986658 577.135826,250.196311 584.962518,261.44718 Z M53.5843948,270.041904 L53.5843948,282.373463 C53.5843948,283.120834 53.3352748,283.805914 52.8370275,284.428723 C52.3387802,285.051532 51.7782603,285.549772 51.1554512,285.923458 C50.532642,286.297143 49.9721222,286.483983 49.4738748,286.483983 C48.2282565,286.483983 47.2317768,286.048023 46.4844058,285.176091 C45.7370348,284.304158 45.3633549,283.369958 45.3633549,282.373463 L45.3633549,249.11562 C45.3633549,248.119126 45.7370348,247.184926 46.4844058,246.312993 C47.2317768,245.44106 48.1659765,245.0051 49.287033,245.0051 C50.4080895,245.0051 51.4045692,245.44106 52.2765021,246.312993 C53.1484349,247.184926 53.5843948,248.119126 53.5843948,249.11562 L53.5843948,261.44718 L91.3264415,261.44718 C92.5720598,261.44718 93.6308195,261.88314 94.5027524,262.755073 C95.3746852,263.627006 95.8106451,264.685765 95.8106451,265.931384 C95.8106451,267.177002 95.3746852,268.235762 94.5027524,269.107694 C93.6308195,269.979627 92.5720598,270.415587 91.3264415,270.415587 L53.5843948,270.415587 L53.5843948,270.041904 Z M49.1001912,240.147213 C46.3598309,240.147213 44.9896713,238.652493 44.9896713,235.66301 C44.9896713,234.417391 45.3633512,233.358631 46.1107222,232.486699 C46.8580932,231.614766 47.8545729,231.178806 49.1001912,231.178806 L65.9159546,231.178806 L65.9159546,207.263054 L49.1001912,207.263054 C47.8545729,207.263054 46.8580932,206.827094 46.1107222,205.955161 C45.3633512,205.083228 44.9896713,204.024468 44.9896713,202.77885 C44.9896713,201.533232 45.3633512,200.474472 46.1107222,199.602539 C46.8580932,198.730606 47.8545729,198.294646 49.1001912,198.294646 L91.3264415,198.294646 C94.0668018,198.294646 95.4369614,199.789366 95.4369614,202.77885 C95.4369614,203.526221 95.2501215,204.273581 94.876436,205.020952 C94.5027505,205.768323 94.0045106,206.328843 93.3817015,206.702528 C92.7588923,207.076214 92.0738125,207.263054 91.3264415,207.263054 L74.1369945,207.263054 L74.1369945,231.178806 L91.3264415,231.178806 C92.5720598,231.178806 93.6308195,231.614766 94.5027524,232.486699 C95.3746852,233.358631 95.8106451,234.417391 95.8106451,235.66301 C95.8106451,236.908628 95.3746852,237.967388 94.5027524,238.83932 C93.6308195,239.711253 92.5720598,240.147213 91.3264415,240.147213 L49.1001912,240.147213 Z M90.9527579,193.063076 L49.4738748,193.063076 C48.2282565,193.063076 47.1694968,192.627116 46.297564,191.755183 C45.4256311,190.88325 44.9896713,189.82449 44.9896713,188.578872 L44.9896713,159.431549 C44.9896713,158.684178 45.1765112,157.999098 45.5501967,157.376289 C45.9238822,156.75348 46.4221221,156.31752 47.0449312,156.068396 C47.6677404,155.819272 48.3528202,155.694712 49.1001912,155.694712 C50.0966859,155.694712 50.9686056,156.068392 51.7159766,156.815763 C52.4633476,157.563134 52.8370275,158.435054 52.8370275,159.431549 L52.8370275,184.094668 L65.9159546,184.094668 L65.9159546,162.794701 C65.9159546,161.798207 66.3519145,160.864007 67.2238473,159.992074 C68.0957801,159.120141 69.0299799,158.684182 70.0264745,158.684182 C72.5177112,158.684182 73.7633108,160.054341 73.7633108,162.794701 L73.7633108,184.094668 L87.2159216,184.094668 L87.2159216,159.057865 C87.2159216,158.061371 87.5896014,157.189451 88.3369724,156.44208 C89.0843434,155.694709 90.0185432,155.321029 91.1395997,155.321029 C92.2606562,155.321029 93.1948559,155.694709 93.9422269,156.44208 C94.6895979,157.189451 95.0632778,158.061371 95.0632778,159.057865 L95.0632778,188.578872 C95.3124015,189.82449 95.0010016,190.88325 94.1290687,191.755183 C93.2571359,192.627116 92.1983762,193.063076 90.9527579,193.063076 Z" id="the-cube-big" style="mix-blend-mode: multiply;"></path>
        </g>
    </g>
</svg>